<mxfile host="65bd71144e">
    <diagram id="EzvOmjMX3gynu_YHUL_V" name="페이지-1">
        <mxGraphModel dx="791" dy="454" grid="1" gridSize="10" guides="1" tooltips="1" connect="1" arrows="1" fold="1" page="1" pageScale="1" pageWidth="827" pageHeight="1169" math="0" shadow="0">
            <root>
                <mxCell id="0"/>
                <mxCell id="1" parent="0"/>
                <mxCell id="26" value="" style="rounded=0;whiteSpace=wrap;html=1;" vertex="1" parent="1">
                    <mxGeometry x="100" y="480" width="380" height="220" as="geometry"/>
                </mxCell>
                <mxCell id="17" value="" style="rounded=0;whiteSpace=wrap;html=1;" vertex="1" parent="1">
                    <mxGeometry x="100" y="250" width="380" height="220" as="geometry"/>
                </mxCell>
                <mxCell id="21" style="edgeStyle=none;html=1;exitX=0.5;exitY=1;exitDx=0;exitDy=0;fillColor=#e51400;strokeColor=#B20000;strokeWidth=4;" edge="1" parent="1" source="20" target="2">
                    <mxGeometry relative="1" as="geometry"/>
                </mxCell>
                <mxCell id="20" value="" style="image;html=1;image=img/lib/clip_art/computers/Server_Rack_128x128.png" vertex="1" parent="1">
                    <mxGeometry x="205" y="260" width="80" height="80" as="geometry"/>
                </mxCell>
                <mxCell id="25" style="edgeStyle=none;html=1;" edge="1" parent="1" source="9" target="17">
                    <mxGeometry relative="1" as="geometry"/>
                </mxCell>
                <mxCell id="9" value="" style="rounded=0;whiteSpace=wrap;html=1;" vertex="1" parent="1">
                    <mxGeometry x="60" y="40" width="450" height="150" as="geometry"/>
                </mxCell>
                <mxCell id="24" style="edgeStyle=none;html=1;entryX=0.9;entryY=0.5;entryDx=0;entryDy=0;entryPerimeter=0;startArrow=none;" edge="1" parent="1" source="32" target="22">
                    <mxGeometry relative="1" as="geometry"/>
                </mxCell>
                <mxCell id="2" value="" style="dashed=0;outlineConnect=0;html=1;align=center;labelPosition=center;verticalLabelPosition=bottom;verticalAlign=top;shape=mxgraph.weblogos.github;fillColor=#e51400;fontColor=#ffffff;strokeColor=#B20000;" vertex="1" parent="1">
                    <mxGeometry x="379" y="330" width="75" height="75" as="geometry"/>
                </mxCell>
                <mxCell id="6" style="edgeStyle=none;html=1;entryX=0;entryY=0.5;entryDx=0;entryDy=0;" edge="1" parent="1" source="3" target="5">
                    <mxGeometry relative="1" as="geometry"/>
                </mxCell>
                <mxCell id="3" value="" style="shape=actor;whiteSpace=wrap;html=1;fillColor=#a20025;fontColor=#ffffff;strokeColor=#6F0000;" vertex="1" parent="1">
                    <mxGeometry x="80" y="67.5" width="40" height="60" as="geometry"/>
                </mxCell>
                <mxCell id="8" style="edgeStyle=none;html=1;" edge="1" parent="1" source="5" target="7">
                    <mxGeometry relative="1" as="geometry"/>
                </mxCell>
                <mxCell id="5" value="" style="image;html=1;image=img/lib/clip_art/computers/Server_Rack_128x128.png" vertex="1" parent="1">
                    <mxGeometry x="210" y="57.5" width="80" height="80" as="geometry"/>
                </mxCell>
                <mxCell id="7" value="" style="image;html=1;image=img/lib/clip_art/computers/Server_Rack_128x128.png" vertex="1" parent="1">
                    <mxGeometry x="394" y="57.5" width="80" height="80" as="geometry"/>
                </mxCell>
                <mxCell id="10" value="DNS&lt;br&gt;10.50.1.2" style="text;html=1;strokeColor=none;fillColor=none;align=center;verticalAlign=middle;whiteSpace=wrap;rounded=0;" vertex="1" parent="1">
                    <mxGeometry x="210" y="137.5" width="80" height="30" as="geometry"/>
                </mxCell>
                <mxCell id="11" value="Backup&lt;br&gt;10.50.1.4" style="text;html=1;strokeColor=none;fillColor=none;align=center;verticalAlign=middle;whiteSpace=wrap;rounded=0;" vertex="1" parent="1">
                    <mxGeometry x="404" y="137.5" width="60" height="30" as="geometry"/>
                </mxCell>
                <mxCell id="14" value="" style="image;html=1;image=img/lib/clip_art/computers/Virus_128x128.png" vertex="1" parent="1">
                    <mxGeometry x="222.5" y="280" width="45" height="50" as="geometry"/>
                </mxCell>
                <mxCell id="23" style="edgeStyle=none;html=1;exitX=0.9;exitY=0.5;exitDx=0;exitDy=0;exitPerimeter=0;" edge="1" parent="1" source="18" target="14">
                    <mxGeometry relative="1" as="geometry"/>
                </mxCell>
                <mxCell id="18" value="" style="shape=actor;whiteSpace=wrap;html=1;fillColor=#a20025;fontColor=#ffffff;strokeColor=#6F0000;" vertex="1" parent="1">
                    <mxGeometry x="130" y="270" width="40" height="60" as="geometry"/>
                </mxCell>
                <mxCell id="19" value="Backup&lt;br&gt;10.50.1.4" style="text;html=1;strokeColor=none;fillColor=none;align=center;verticalAlign=middle;whiteSpace=wrap;rounded=0;" vertex="1" parent="1">
                    <mxGeometry x="215" y="350" width="60" height="30" as="geometry"/>
                </mxCell>
                <mxCell id="36" style="edgeStyle=none;html=1;exitX=0.1;exitY=0.5;exitDx=0;exitDy=0;exitPerimeter=0;entryX=1.004;entryY=0.407;entryDx=0;entryDy=0;entryPerimeter=0;strokeWidth=4;fontSize=6;" edge="1" parent="1" source="22">
                    <mxGeometry relative="1" as="geometry">
                        <mxPoint x="309.288" y="573.56015" as="targetPoint"/>
                    </mxGeometry>
                </mxCell>
                <mxCell id="22" value="" style="shape=actor;whiteSpace=wrap;html=1;fillColor=#a20025;fontColor=#ffffff;strokeColor=#6F0000;" vertex="1" parent="1">
                    <mxGeometry x="384" y="550" width="40" height="60" as="geometry"/>
                </mxCell>
                <mxCell id="27" value="git push" style="text;html=1;strokeColor=none;fillColor=none;align=center;verticalAlign=middle;whiteSpace=wrap;rounded=0;" vertex="1" parent="1">
                    <mxGeometry x="290" y="310" width="60" height="30" as="geometry"/>
                </mxCell>
                <mxCell id="29" value="github private&amp;nbsp;&lt;br&gt;&amp;nbsp;repository" style="text;html=1;strokeColor=#B20000;fillColor=#e51400;align=center;verticalAlign=middle;whiteSpace=wrap;rounded=0;fontColor=#ffffff;" vertex="1" parent="1">
                    <mxGeometry x="368.5" y="300" width="96" height="30" as="geometry"/>
                </mxCell>
                <mxCell id="30" value="git pull" style="text;html=1;strokeColor=none;fillColor=none;align=center;verticalAlign=middle;whiteSpace=wrap;rounded=0;" vertex="1" parent="1">
                    <mxGeometry x="386.5" y="500" width="60" height="30" as="geometry"/>
                </mxCell>
                <mxCell id="33" value="ssh" style="text;html=1;strokeColor=none;fillColor=none;align=center;verticalAlign=middle;whiteSpace=wrap;rounded=0;" vertex="1" parent="1">
                    <mxGeometry x="130" y="57.5" width="60" height="30" as="geometry"/>
                </mxCell>
                <mxCell id="34" value="ssh" style="text;html=1;strokeColor=none;fillColor=none;align=center;verticalAlign=middle;whiteSpace=wrap;rounded=0;" vertex="1" parent="1">
                    <mxGeometry x="308.5" y="53.75" width="60" height="37.5" as="geometry"/>
                </mxCell>
                <mxCell id="37" value="base64 decode" style="text;html=1;strokeColor=none;fillColor=none;align=center;verticalAlign=middle;whiteSpace=wrap;rounded=0;" vertex="1" parent="1">
                    <mxGeometry x="319" y="590" width="60" height="30" as="geometry"/>
                </mxCell>
                <mxCell id="38" value="" style="edgeStyle=none;html=1;entryX=0.5;entryY=0;entryDx=0;entryDy=0;endArrow=none;" edge="1" parent="1" source="2" target="32">
                    <mxGeometry relative="1" as="geometry">
                        <mxPoint x="417.11764705882365" y="405" as="sourcePoint"/>
                        <mxPoint x="420" y="580" as="targetPoint"/>
                    </mxGeometry>
                </mxCell>
                <mxCell id="32" value="&amp;nbsp;affected server&lt;br&gt;log" style="text;html=1;strokeColor=#B20000;fillColor=#e51400;align=center;verticalAlign=middle;whiteSpace=wrap;rounded=0;fontColor=#ffffff;" vertex="1" parent="1">
                    <mxGeometry x="368.5" y="460" width="96" height="30" as="geometry"/>
                </mxCell>
                <mxCell id="39" value="" style="shape=image;verticalLabelPosition=bottom;labelBackgroundColor=default;verticalAlign=top;aspect=fixed;imageAspect=0;image=data:image/png,iVBORw0KGgoAAAANSUhEUgAAAggAAAGxCAYAAAAH0U5DAAAAAXNSR0IArs4c6QAAIABJREFUeF7s3Qm8/uWYP/D7tAmlQohsWUI0xBCNhEFFi2ixV7YxY2xjrONvCWMG2RoMMmlkCSllSzL2LNlFhGzRoiJCqfN/vb/cP9/fde7vc+7nPM8553me871fr9/rV8/vu9zXcl/XdV/3dX2+c5ttttl8GnHMbZ3S3DYpXfndlNJlIz4spXT1be6WLj3vK2n+ij+s97Crb3PXdJVrbt/89vvzv5F+f95XRn/ZSj3h6iltsF1KV56dUrpk8Evntk1p7sZ/vubK01NK67Nhwc03v/nN09zcXPr+978/MjVXu9rV0rWuda3005/+dEnPGudcuiYwlndsntIGO/6Fx19LKf1uSeT2N/Uc6DnQc2BmOTA3coBwnZQ2+dcN0hWnXpmu+GRKW2yzb9ry5vumH3/04IFMu8Gur0xb3Hzf9NuffTL95ORD1127wSbXSDsc8r30/ffcK/3hwjP+/PvcBun6dzssbXT1bdZde/MHnZwu+t5706+++aahhNP13viQLW5WpuOat3lkuvCMo4d6Z3PxVilt+HcpbXj3DdJlL7kypV93P2LD3efS3LVTmv/lfLricymlSwe/7vjjj0+vfe1r06mnnpoe9KAHpfe9733Dz+8vd7z85S9P22+/fdp7772X9Iz2XPIDPvKRj6SXvOQl6dOf/nTxmcPOufSO/OAHPOABzdwf97jHDZ4/edwxpQ12mEt/Om4+zS8tHloSj/qbeg70HOg5MA0cGDlA2PjJc+ny/51P6cI/k9vlWEvMuOrWt09b3+FJ6wUIpeuustX26Vq3eVQ657PPWe+fb7bvSemnn3hyuuzXPxiK1zXv7aLjpnsdl3504n5Dva998YZ3nkvpJvPpimMHBwj4ecUX65I7p512Wtp5552bB7773e9OBx544JLnN+qN7bnUBgjDzrn0jqEDhL/csNEBc+mKz/cBwqhy7+/vOdBzYPY4MHKAsMlL5tJlz/2rI2s71lsc8On0y9NelP5w0XfTtru9Nm1y9eumy39/YfrhCQ9oOBkd9SZb3DRd+7aPaYKG7x7zt+mPFzmzSGmbXV6SfvHZ56Ytb/HgtPUdnpwu/eUX0i+/8JJ0xR8varILaf7KdOP7HZU2vvr1mmf+4aLvpwu+8YZ0lS1v2aTef/H556ebPOA96eLvHZsu/t57Frx3481vuGB+6Lj+Li9Ov/7BCWmLWzwo/eTkx6SrXvu26Vq3PTRd8uOPNfO64FtvSRtseNW03b4nNkce/v2s9903XXXrv1l375a3PCCd/ZFHpEt/cdo67dn46Ruky19xZac2ySC0A4Tb3e526QlPeEJ6xzvekW55y1umc845J9mVG29605vSMccckz75yU+mRzziEemxj31sOvnkk5t/e9vb3pbc+6IXvSj94he/SJdeemlzDPH2t789vec970nf+c530i1ucYu0zz77pJ/85Cfp3/7t35r73CPIuN71rtdkJq597WunX/3qV2n//fdPdujPf/7z049+9KO0ww47NBmL7373z3Jqz+We97xnetnLXrYuq/HoRz+6eXd8XmnOl19++YLrMrPa7+ia3/Oe97x04oknpv322y/90z/9Uzr//PPTsccem84666zkeOK5z31u+vCHP9w8sg8QZs+o9RT1HOg5MB4OrAsQNjpobugnXvmD+bTRg+bSZc9aP0DY+g7/nC45++S05fYHpbPee680P39luuatHpI23GSLtPVOT0nfe+fO6bJLfrzAUecJ/M0TL1kvQNj8xvdNm2zmYH4uXe26d0pzG2yULvnpJ9MGG26SLvvtz9IlPz65CRCuuOySdK0dDk7nfvnl6bJLfpL+cMG3043+/k3pu8fcId3mkLPS9997r3T5JT9Z8N4NNtliwfyuep07pK22PzCd/aGHNAHKHy/6XrrwjLelmEHY6lYPS5vf6N5NFuTm+300nffV1zXzu+atHpZ+9MH90/Xv/h/pD786o7k3j02esUG67D+vTBvsnNIGN/8r3684bT7Nn5VSDBCk/X//+983qf/b3OY26RnPeEbj4K5zneukL37xi+lv/uZv0q9//eczi9Ju3I77gAMOSJdcckm6293ulq5+9asnDlzQ8f73v79x7Nlhtp+x2WabpYc85CFp8803b67dbbfd0h3ucIfmt4c97GFNIHLYYYc1RwdxLub89a9/vQlGHH0IKr761a8ueN7Pf/7zBXMuvdd18R1d83vwgx+cDj744CYwErz86U9/Sve4xz2aYEFQccEFFzS/9QHC0Eu+v6HnQM+BNcSBdQHCVf5rg3TFZ+tS2pk/V5413zizy1+0foCwzd1elH5//tfS3IZXSWd/8MDGwW682Q3Sb3/6ibTN3Q5LPzhu96a+wG7/Ond6Rvrxhx+6HstjgLDhptdKG1/tOmmDja7WZAyufv1d0kXfPSZtdauHpt+c/ZH0x4vOLAYIF377qHTLAz+TfvKxx6Yb7Pry9IPj/5q5aL+3NL+rbHXLdbUUN7rvW5sg5KIz39UECD879Ynp8t+d08x5q1s9PG1+o3umn5z86PUCBHM7+4MHrBdcNDdcJaWN/2EuXf6abl7HAOGmN71p49Q4+PY49NBD07bbbts4wjwECByh6/OIKXnZAc6e0z/uuOPSm9/85mKA8JznPCfd8IY3TJ/73OeS/5ZpkMHIZ/zt2oI4l1e/+tXpy1/+8noBwt3vfvcFz/ve977XBAjtOZfe67r4jsXm94Y3vCF9/OMfTxtuuGG6z33ukx7zmMcsWNp9BmENWbue1J4DPQeG4sB6AcIf/6k77d311A33TCldMZeu+Nh8SleuX4Nw60edkX72yX9Jm11/l3TVrXdMl1/y07TFzfZJF3zzzemXp70wXWXLW6TtH/rFdMnPPpku+Orr0uWX/jJdc/uHpK13enJTCPirb/9PuvTcL6cNr7Jl2v5hp6ez3nefdNmvf9hM5eo32DVd907/mn54wl7N/5cyCAKErbZ/SNrmbi9MPz31iY2Tb3x0eO9mN7zngvn9/vyvp+vd+dnp0vO+lq56ndunHx7/gPSn35+frnXbx6Tr3eW56dLzvprO/8qr059+f0Habt+TmoDoqte+XeuI4bD067NOSFtuf2D68UcPSb875zMpbZjSRo+aS1eeMZ+u/OuJwwLWxgChxPtNN900ffazn013vOMd1/vnhz70oenZz352OuOMM9LrXve6dJOb3CQ985nPTO985zvTf//3fzdHBbe+9a2blLtrOPx8xOBBG2+8cePUBREcsIyBjoY999wzHXnkkc2xRAwQvvSlLy2Yy33ve98mu8BBO4bgnAUI8XkyDXHOu+6664Lr0BLp7Zrf0572tPStb31r3RGIIxKFm2effXb6wx/+kP7zP/8znX669pD+iGEoa9Ff3HOg58Ca4sDIAQKnt8m/bJDS9ebTZYfNp3QR/kmb2yHnv/Nvbd7mHXROscf/d217lz2Xtt3tVemaOxzSPOS80w9vgoy/jvYRyV/v2/jq10+3OeTM9O0jt2sc/MLrS+/N745zy3cPnvNf6zD+PNeGjm1T2uSZc+nKL6X0p6MHZ2oECBtKdsyndJnsTHvaf3miWgDHBo985CMXKKy6i+at8/NNDUYe/n8dBR2/H3744UkNgKCikVrruvYz87P93TWX0rtLz2u/J88xXnf/+9+/SG/X/PJcu+idu2lKGz9trlHRy/+jL1JcU1avJ7bnQM+BKg6MHiDk12z+l17y4ZMQVRNdykU33fv4tNGmWzUFhn+8eHSMgNo5FDsgNvrz8UJVv/1VU0qb/uVtSgsKPN1yyy2bCy6++OLaaQ287n73u1965Stf2WQVpPJ/+9vfVj933HMpvXjs7yAPOmv8Rhasmtz+wp4DPQd6DqwJDowvQFgT7OqJ7DnQc6DnQM+BngNrgwN9gLA25NxT2XOg50DPgZ4DPQeG4sDQAYIOg68fkXOzC9+lhc6f8847b6iJrMbFOgBU+ytc68dCDhxyyCFNm+DnP//5sbBn3M8by6RW6CGL6Zqi014PV0gY/Wt6DvQcqOJAdYAAAvkmexyTNr/hbul3v/hC+uGJ+6UrL3N4u/74u7/7u6Za/d///d+rJlBz0VWucpWm918P/wMf+MDGkD7xiU9MRxxxRAMe5N9+9rOf1TxqvWtU9b/+9a9v+vXj0HOvfRCQkA6At7zlLc0lL3zhCxMa82+l6/z2ghe8oMEtUOH/rGc9qzi3LbbYoikGvMtd7tJU8p977rlNr3/pvTXzKz0PMBFAozw++tGPNlX8JTrinOErPPWpT20wBRYbJXnE33zjoeZ5nCmQpzwe9ahHNYEcndpxxx3TZz7zmQZXoWvE92oPjXymM+ou8gA0he9R1570pCdVXbeYcx+ka+bw4he/eB1Q1WK87v+950DPgZ4DK8GB6gDhGjd9QIMieI0b3yed+a67pcsu/mG68k8Lv3DDeXLiPvoDOY8TV2DGIV100UWNo/3hD3+YNtlkk8Tw77TTTg2djD80v8c//vHp9re/ffq///u/pj+ew+TkXvOa16Qf//jHjRPVuvfSl760acV717velZ7+9KdXBwjAdbTBbbXVVmmbbbZp3lsKEG5wgxukjTbaqCkCFERwnkB2tPgx5gr6tN5xXPE6qIWe/5vf/KZpLdSOh+aSk7/+9a+fYAagBW2l95Y+wlS6DlhSfB6nfM1rXrPBOoCyKLPDyUY6fvCDHyyYM7TE//qv/2rm3y6GJE98w/ff/e536WY3u9kCeXC0UUbAjmqeJ0DA3/w9BXwUHO6xxx5JW+SrXvWq9MY3vrEBiYqjNJfLLrtsAV8EDJ7ruw4CJrLUBhl1DY01111xxcIqx5Ku0Y24FrwDkFMOcnWSkGW8biUMQv+OngM9B3oOZA5UBwiAg262z4lp482un775pm3TlZeVvzYkQDjooIPSf/zHfzTgN8B0AO3YxTp6sLt7+MMf3vTvP+UpT2mMs/Htb387/e3f/m3juAQV//Iv/5L+53/+J2299dZp3333TYw8Z8SZ2tXrrf/Xf/3XgQGCXnzIg3mccsopza6eE9EXb4569UsBQltF3vve96YnP/nJDdjONa5xjcbZQOKDIGhHnke+jiPcZZddGujjb37zm41TLM1Fr77nfeADH1gXIJTei3eRDveW3lt6Xv4Nbzk7GYESHXHOng92WSDHieVBjnbWHNkf//jH5jsQUR6cfElGNc8Dh8xh451BTtoZOfULL7wwcbxgnCNwlGtLc+F4I18AQNEpQRnYae2i6I+6JtCtuQ6+RBzoj7oGRyKuBcGkjIbgxDAnI16X0R9789VzoOdAz4GV4MB6AcKgF17xmfk0f9wW6baP/Wm6/LfnpB8cf//0x4vPWnBL+4jBmTMcfLtnQDl2Wbe97W2bnayULKPI2WitO/roo5tdFBjfjAIo23DjG9+4cVJ2rDD0ofPZEdv9yzDYTfqGAKS9OFxjB50Hx21X+qlPfao5V18s7Qs0yLzBHB911FFNdsPO2B8OR6pbgBCvy+/bbrvtGudmB65tMM5FRqXk0OPzSnS4t/TemgChiw7zbs9Z5sLZuMAny7KkI2QW5SEALMmo5nlXvepVmwwUp5tlLhgA7+wbCwIdQZegMo7SXOhGVyAGlplc6AI8h6hrOQCsva49HwFN1DUYE3EtCGB87RKteQgIS9ethFHo39FzoOdAzwEcqP5YkxqEDTfePN3mkO82n2g+/+tvTL/50UnFAAHOvywA5ygV/Pd///cNDj/nDo2P4WQU7QQN6WQG37GDc2FpZINTsPOGvud5sg/O9BlPaXJDAGEH6HsCNUOAcOWVVzb3cApdRwzQ9xhsO1Y0mItaAYA9sg52z44eoAzG64D9cISGnfArXvGK9I1vfGPB9AQajgre+ta3pn/8x39M0vy+exCfVzrfLs3Pe+Pz7PBjBkEgFukQpHXNGdKi+gZBnOFIRc2Ej0QJ+mQTojw8q0tGiz3PUcKtbnWr5jgqy1zgQj/UJviNLn3sYx+rmot7SnwBwUwPZIfIcffdd1+ga7JOtddFvpR0jX7HtSAQE+QKOAU9sjzmVLquRsf7a3oO9BzoOTAODlQHCJvf+H7pRvd5U9po02umX5/9kXT2SfsX3y+DwIE6DpAGZvTUFDiPdv5t12tn+L//+79NAGG45v/9v//X/Lfsgl0gpygVzli6zs6ufV1++bA1CNe97nWbeTm6cM7riKN0xGA36ZgjI/sJCE466aSm/sB5uOxF3nXG66SIM22cqKCoNPBKYdwGG2zQBC144Hy/9N54f2l+6gTi8/AsBgieFelwvDNozs7qHTXgGd5xrPnIoj23kjxKvw16ngwCGZG54ynOE1/8BhpacIBXdKRmLmpWSnxxVKTIVQArfS+oKela7XVxLiVdc1QS14IAS8Dn2xGyGQJEWavSdeNY9P0zeg70HOg5UMOB6gAhP2yxNseal/bXTB8H1FN85StfKab1l0LNuJ+3lDn09/Qc6DnQc6DnQDcHhg4Qemb2HOg50HOg50DPgZ4Ds8+BPkCYfRn3FPYc6DnQc6DnQM+BoTkwlgDBuamqeufo4xiKFxXFOcvPrV3OdxWptX8bx7sm5Rlodj5dat3LcxyGzzXPmxTa+3n0HOg50HOg58DkcWDkAEGbotYzxYWq8EcdWhgVwAFK0heei+IUBapaHydC46hzHef96MJHQYLixVwwmN8xLJ8Xe17N3OEClOZSc29/zXAcUJCZcR+Gu3PpV8MR0VUBq0SnTT96DvQc6DnQ5sDIAYKHqRLXtjgOIBfocUCM2m2BWv9y/7uuBkOFuKAhV9Krbod2qC1Nm6XKd0bXrlub27Of/ewG2MgA4AQ1zzjuuOMaXIMID90FGR3fO4w6DbpXC6G+9zvf+c6dUNXD8LnmeYvNfSV4oENAMPSFL3yhAaDS2gcECpTyySef3IBTwZHQphhldOtb33rBdcCFtFHC0gCo5Tno0CapTdV7/NFRE/WAfOK9N73pTZtuGjgIAK10vegMGbceRByExWQzjn/XLaJlWBdHDEhrnj9OHmhTzsiZ3q3tGXpqXNMArqIe+H+dT7pb7nWve6V/+Id/KH6unCx1WJ122mkNRgd4bVnJaCNkQ+F+3OlOd2p0RXdJtheRL9796Ec/upmna+ha1is2yftk8+Jvl1566QLaIMXG0X5etlf4bkNGV7Ndo5OD5gJ8DO5MaR11vcPz2Vu8ApR2zjnnjFXvtTJbn56fkWRLtr1GF/M1USdhvox77Q+SUZY5oLhoS2TYo13zrJJOxnu1P0f56mQr2aY4P1D/Ntz0HpYMP8131oy57bfffl4LmN0/5dE+xvAeeuihTauV9jL4+bvttlvTo69ljxP/7Gc/m6DCqUaHVQCJDlTynnvu2bTD+TetW9rUOG3YBsCCtPRRaoBJ8R2MtolTljz0loNjZpjbSgR97v3vf38DbuO5EPQgNOqRz8O/lQKEmmCgyznG93oXCGatfCCmGZeuUbrXtQwjMCl88l7GiTwsIIYHuE7ks+tK/Kt5nmMMz2Uc7Vplam50oxs1rYDaUw1tkFAAKaC50Qntl2TURUeNwsV70UrGoKANmAP0zUeitJXCh+DsGacoN0YrXsfwZpnTBUbbc2KrZ0m+bX3J95oT3AiAR8CfyIgxHqce0FvYDxn4SQtwRpxsryPGOgM55dZRbbhx/Waj49/QDWcE/+Ia1BbLoNHbHCCANo/XaeuNa1p76Dj1AM4J2wP4DIKq7NXHP/7xBWu6JDd6DO3SwDvtsCUQLfoLPtymYJCNGCYAlKkTyBxwwAHNOmrPjz5ZQ6effvo63c2/CTyivSqtny49FdRpFb7rXe/abHzMuTQXgS39Zz9smuDG1Ni/9lr453/+58auvf3tbx+r3pOb1uKIJDtOvcLTca/9UoCQeZrly35HO8SeR3sl4B2kk20bFuXrXSXbFOdnbvQo3w/0z0asZsw96EEPmqdsFiPwHB8h4sRFMFKQwGqA/QDcsZMTCLiGEf/lL3/ZvEN0kgME/2+BczCOB4DPqBugyAyZnYFFzCnEd8AjOOGEE5rf86As3mW387znPW/dF+/s+kE654/6wFcQpQsmGE8IeIyuhcsQ5m8UeC6IZwbTvOzcSouwK0CI783zrEkRl+4VdAl0LGTz9F5pX7SKfgH4fOhDH1rAZ9eV+FfzPEc1AjSLk0wZKoZMpMlAA+7hlL2DEvq9jTrZxYMahYv3ttEG8/2cBfwIaJf0Ztddd20C0mjYStdxDFnmAjf0nXXWWUUjEfUArfFei5psBcgf/vCHm10qYzxuPShlEOI6oh8xQJAxievXcVReb3Yy9Nz84xq0o4gBgoxN6bo4F85inHrAeQlWGTxGVKB67LHHLljT5tb1MTh1SoIh68bmJo4Mtibb4DnshCPNuImoDRDYJuuCzsjYySTIUtEj/LGu6C3nGn9zrBPtVel7HtZgSU9lE2VKv/a1r6VPfOITTUBUmssTnvCEhq8Cb3PsChBK78h8yWtQEDluvS8hnI5Tr7oChFHWfilAiPIVnEdb4p3RrgkQBAFRJ+O9sIOifPmJkm2K87PxF/QDt7MBt+krrY+S/Z478MAD5321T7rNsGORdsyLsO0YGAnpOxmE9hcKSwGCnWEesgq+gcD5iGJEtM7aS++waDn+9nCtRSA9Ai55sSFogHLIYIw7g9D1bmlEmYxhB8PNqOQdXDswEblzbhxTDMTa17VlVPM8RtFuWCrf7pERcUQkaBAkMjzeLV1XktGwNA66HmIgB0bueXDqggMyZ3RlUGQxomMoXQf5ksztSjhdi09qb5hdRPteupt1yC7azoADGbcemKsAWiCeh/XWXkdtKGgL3Y7Y2o3rVzZNxoezHLQGOS8Bgm9G5Nqe0lp1XZzLOHXAsxhEqeYcJLBHp5566rrX5DVtIxD1gH3IEOFApwT/pSFrZrdtM0SWjC5DLpCUGRWksGW1AQLHSQc5aRsTGS26IugFMS+YtMFybBh/yxkP88y0ySrEMSjTxbn4Y8MluCjNJfPK3zJBpUB7sWwae8wWyJSMW+8HfYtmXDq23Gsf/6J8ZdWjHeIzo12jt1En0R3v5SOifG3qam0T2cncm0MGJazh79yOO+44LzUG7pchZZRFJSXHIBvASLkevj0HDAbZxMERI9Ris1AYFAtNyjcHBxamZ0iNtyPZtoNzr/oD58955HMl93Z9VpfyQ2zkUDk8xsDiKQUInE7+2JH36Jio+a2riEx2QnTOyHFQwww7Dem/jNhI2RhsKSB/M2SMYuSz89SSjGqeJ9tjlynYsvgFU/7b+a1hR0oOdki1AYLUtHeb86BOjMgbukF5payl0Dlg32GgyM5+7bIotMxIlFHpurbMGV7ZL4a6ZCTi8+hk1pd8L32uXYSj6MH++++f9ttvv2auMkZoi+uIjjNEvmJJT2TjQGTH9Wu+zvStZetFwCMrKEBvr0HZKTtRa18Q6vjEeo3XkW2cS5eOL1UP6JwNANtAF9DE8cc1XdIDgYUvtKLX+ao1XVqrgmKbG/TKDLEzjsxk6wQG9773vZtsJTtIHow8vtDr0sZEEM0OCmRkCzxL1rQmhV+yVyVEV3Lu0lM2B61oYh9Kc8n3QkpV2+VrojW2zlrAD5lEGwbr8MwzzyyKfal6r0aIzsv0okNxeunLtV66VL1y73Kv/cUCrGxLZHGiXZNJjzqZAwT3+SPzJejHf7rGXwhA29cttnmRoSZHHzvs4nFJuE2RIuZz9hYGByv1jKkWhQjHUQLDIfWj2MULRMAWq7PrPETuahYYNyNf578Zbs+kcHaM7i29w70Yks/Jpec803mbVDyn0Y6+87vt4PMnkDkaxo+DIwDM9G+5wDHOmVGp+a2rvsA7ODqp0VKasMuY2lkQnOKhPDJPycKuHh9KfDbnyD8ZgJrn4TEDYGfOCHsWHvnNyPzrklGJHqlszlhGYtjBoXHEhjoWmRjyINP2XKKMpNzjdW2ZeyY+MtwWZz4DJKMST70/60u+F4/yb9YIh9sVAC1VD/J7rTXBIB6o34nryL+REZrQQ27OL+P6Nef8m2cLusw7rkH/JnCwpj1bvYbUfrxOMFpa0+PUA/KgQzmDaS7mFtd0l9w4qbYdkgljVPNwLGr3nAO+vL7oGp4KmLt0DY85svg8zjZ/xh1/ZOYECHldttd0/K1krwQZ8R2CmKj3bT1ld9hdulmaS76XTqCDba+xdd6Recr+l75Wmulbqt5HWdL7rrU1in0Z59p3rFuSUZRvyQ6xsdFe4WHUSfyMdoi+RPlaq9E2leZH76PvrrXRY+liqH3ZMNeJLlX15mAAYxkLBT+lAGGYZ0/KtXY+Mge5lmPUeY37ecPMh3NztjVM+mqY5/fXTgcHJkUPGGgOKA+ZvaUcAeb7x/28kjRX4h3ToUULZzmrejVueYxbhyY2QBg34/rn9RzoOdBzoOdAz4GeA/Uc6AOEel71V/Yc6DnQc6DnQM+BNcOBPkBYM6LuCV0JDujy0co0TKFmntco964Ebf07Vp4DwNO0o+ai6nHMQK2DQmVDl0xNZ9g43ts/Y/o4MHe3u91tHipXHop5DH2ZhqJFhYEGZdU+lX9T9NW+VzW6QpN8nbYdFcAqdvVsQpFSgalaV/GNoh4VnCqzFUEOM+K9ijgovr5w7+nqJgDOoctBYZY5AOhxboMOxVkwAlR9dw3X7bjjjutdN046VIu3YW9hUeBriffa27Q4DRp4n2WpyFMVrPkPkluWr8plZ395kKdCmUG6kWVemlOXHijSee5zn9vogiJW16lsVl2u/ZPDNaKeAuEaJ++7sC8iLUB8zFERXRuB0P/ryDHvrrqSUe4dZX2Mci99iboWdYjd0IER9bRkN0o1RLoHoq5ZnzW2CeJh1Bf36spRNCtY07lAr6OutenQBUB+o9Y4jVMn0caJW4uDRsn+demzind98IrX6Kmi3ZJdK72ZeiTZAAAgAElEQVRvnLT1ejXMqkxjtXW1b57bfffd58EVZ+hFhYGqNDl/bUPa4LT6KPABtKAFCk6Cfk5D6xCD6I/WPIvS/RYaZ6dlSZU6JRe16lPOyF8qrYGhZLhkz6Poit30D3e1NLou3su56xXV995GXCwZd5X+2j2AOflbNSjDocoXoASnXII99XyLi1Nwr951nQslOmoFEO8VjMEG0CqlCwSSIOS3yHsdC12AMe13a0slSzxnZHQaeG6UG5nGd2gvNT9QoOSLJxZ11A0yizLP+hHnUtIDbVeKNRlwiIXmrF2SLPXyCzKNqKeCiXHqUNugcjjaigSaAk/6D9wmO/4IMKTiW6W7IaAZhKhZcy9nqXVN4amOHABigl//rx2RHvpN4a4CXmtUm60WSB0A49TJLiCxKA9zjjqE1vib7pM4VONHXUNXjW3SQRD1BZ4EwCSoijYA/l/QEHUNbfkdWhu/9KUvNe2AcagWByKl99xgL1Wlw41At7bKjCUzTp1Uga+FHMhORjmlB1HmnHy0f2jTzSFDoNPBxkfnC93RSUafjZJdo1fWtfez3/RLV1WvVyurV4rysy0dp17V+qcmQKBEjLDImfNgoHUR6E1lHPVOcw6AXLQg2ilkQJeIfQ1whSIiSvTOcGbHorVIW10OEFQZey/Dlp9nMXsPUIdBVcele2tAN7Q0CVz0PQtm4CXkntK88GU0Stjrds4wE+wUCQvOA2NdmkutAOK9sgd2O/joby1mH/zgBxfwvna324ZMJWeG+PDDD1+AqU7eJfnGHuKSbuiXjjLXox+HewUYbT2gJ4JJO88cnLnOzim3xQoajKinfhunDrV5yskLAAWN9ESrLWcgyGWMo5OH9CkrJQDLqKIMOUObB8wCRrbmXnPBE73hnJoMC+cUkRS15nmnQMp7rRstbePUya4AIcqjpENdelVaH6V+9RrbpHUv6otMjQ1LG0+Fs4u6FqGR4UKwcXF4Pt5ak4ZMHFnAbaDrgnrriozHqZPZgQtObEoMfCrJPNo/tAkGYErImtqssVkxQCjZNRsIOg14jY0DBgXgrter5dcrNlrrOxskyAWIxi+PW69qfFQTIABv4CRFmtDEGGhGiYMWtdr1Cx4YSRPntJyX6vmNAYIdueia4QebCqAj77Lt3B0vcHiD0OhqJj7IwAzKIHBQAgALnPILEPSJc/qMEaNu11Eaong7CdfYSQp0MgzyUucc7wP44tm5/9uuB78i79tgVoPe3Q4QGAyGUwak9KGdknxLAULUDd/JiDIvfR3QXARWbT2wk3EkxMA67pHqhFDHsZCVI4t8/hr1dFw8z8/BH4ZUsCo7kT9uAxDHLtXCRXvJyedntFFF7Szt+POQIUFvDBBK95aQMmXJYoBgLoJegCoMvd78cY+uAKEkj5IOlX6rDRBqbBNAo6gv9FwKvW1n8se72rrmyJTMHZ1Z17JlJZx6ffh0WkbJztuO2rEpO5hhawW4MjjjHjAaHA+Sb8YjKMm8FCDkLKOsLJ3m5GOAULJr9Myxr8wM0Dvvde84R69XqcH+KOlVDlQduzr2Xg5/WSPLJkCIqeq2U5HGtDMRDORhpykyL0GSMvB2iKBLLW4pEiAN0lSCEBG3IGIQwaJlTBl2dGUQ2s9j7O26GFT/LTJzlAINUpqbQDKqofe374X2RqkFFXYZkMzGbRDw3jvMT4rd2W6bV5n35lZ7xJCRADlyDkxQM+hLfG35lgKE/LysGzJAUeYl+WW9ausB40dP3C9IIwfPj+iFtfRmnVmKDuG7oNbHTByloUuQINj1RxDEueQAwXGJXWV7RNjxkg4LEBa7d7EAwbGTwN1c6KwhAFmsJmXYNeX6LkM+SP/aOlSyG7UBQo1tck3UF3prA9AGIePQo67JKpA5504HB32RVvbTBkEWAlKlFLwNUK5Dcf+gsRSdzM8TmApOBApGSeaDAgT2SgZB3U4MEEp2DereagUIa12vZMToKtvCFkG6HeRnRtGrxexBEyDIGuQiQWfg2aHnzyRLt4uwRcsWSN71OQdHhB2CM1dpULtfyuu3fB1lywu4/cnc0uTyOQtEqHZQshghztEsfkcUzjil6O0+4/PszDl4QnCd3asdqzROPhvFAw4u3msXKc0HtczHUaQUuwqasgOWfh8GXdGHicwF/XYpHKbCysh759NRbl1O2Q5J2lnWxC7dzjzKTfoqvkP2aFCA4Bl0w4exoszzeWlbbu3AM+uBc3v3kjU5KP5z9l8KEGro9b6l6lDbESoMxU/BpNoNukymCtnUY9BvOyvDrpPzsBOzy7cGOBGBZ2nU3EteEebaGnvpS1/aOIo8F8d/+OrYTN2OdHL7U+nt9y9VJ/El8t6uOf6GVyUbUdKr2gChxjYpQoz6YmPiiMbcrT8peTUGUdfYiJpAWyCQg0E6b16eS+YKOGWd1C7ZpY/TrrWfJUAVKDjuiDJ3HBDtH3RMv9EXu3+1FeYcA4SSXVM0Whsg9Ho1Xr2yQbXOZYkc58swdPmZpdq6xfxp/ve+zbGWU0Nep4gIqiAjtVLDEYnAIQ9HE7Wf9Rz3HCdpLuOmbVqftxo6WeLVpOvGpM5PxlPQOWrLowLcvfbaqxGNDVK7Bmsput3rVR3XJlWvBs2+DxDqZDv0VboiFPpw0v3oOTAJHOh1chKkMHtz6PVq9mTaZxBmV6Y9ZT0Heg70HOg50HNgZA70GYSRWdg/oOdAz4GeAz0Heg7MHgfmDjrooHmFfUupftYKo0AnA9lk9iiC8SljxUMq57tQDWePndNBEeAaRZ0KtFQ2d40u+erH1xrajzIHFIZpsVP0Wlof4+DbsO/okrliXWtfYSwU1PbI79DOO6rM2QTP6L/2OQ7pL3xG11qNVy5FD5Znxv1Tp4EDc7e4xS3mVUk+7GEPGzhf2Aeqt/V2Z5yBQVCebaQuVf+wBfK361Xm+y0+rzQBvcmPe9zjmkIafcyqtVVuxt+6Cm0GtfMtJqB4b8aHAAClojkDPqlwNi9VzIys6xhEVdO5Wt+7YBzgiwEEo9Qmutic2v++VNrApTIo0A/bUMHx3V3yBSCkY2UpY6lz9q54r/llnurCUKFOBnQjDy1C2jr1kKvK1l2hBS93AqgMbyN51tI0iA4Bs8r929/+9lUV8rXvbF837DsGyVw7oGAx9/Pn9+R3wEMZReaeBw+CjHSBDDPGrS+xY0GleMZCycV25sdG6cpQ4a+d19x1EEzq2q8FThtGD8bJe2vzve99b4M4qXPJplSXEN7rkONX2BTdILlzRQcVzAkdY1FGOjnimoYGW7KxUd/UTET56qKCWqsFWReVtledZP4f/onf2Pu4Gc7Pjj6ALkXa1KRlHBM2CoAgexRtmNb7mufpUonvKOGgdPmtmnXYHDHoFYZrAC3L0G6G+fqsIYdxIuBetThyeO0AwbcVtGRpjcwY9LGNRk+n1jptYUCK9HADTIrPazuBfffdd13bof54wBF2NJRIMBB/g69w7WtfuwkePJdjsIuzILxP1e6wH9CJ92K052iDVAmcAwQOByYCQ6vVzHXaGzkf6HsZza3UTlWaX16YbR6UhBnvxdvIA7IkV2ho5Pyd73wnnXjiiQvAerxT26Y+cC1REPwYnShfeqEVM3/gBV7Aeeed1+gIlElBoBadnXbaad29WrAsSMHROOXRNoqCMbIHfENHyAQNZIL+3AYnsOOktHyNk/dZPuah5RGEeJt/WlXt0o3IK9XpUW6MYm6fpLccdEYWje/IesWooYsMoiy9NwI02dFrZ9OunNEfS3S4JspccAlER1+9QAheB8TLSJugLCMTMsJk06Vr5gAXwz2MJrqXS18ynWwco0pXtCziHfRXhtuazmPS1357LYxLD8bJe63uOqzopfmxjdYEG9fGqoA9ohWdXTE4QW3aUUbaNeOaZl9qWlY9L8q3tAHxW2zz7nKq0Qdo14600aEcIEDf5Ee0POc5Zxvm32qeV3pHaX5dulsdIFgQFjGEuwz2YSfGaMEmF/m1mdUOEDhAxl/0ZXHp3S8hdUll7r777k1fJzAZTqgL2Iiyt8GBMFpqjJMTsHBi8TfGt9S3yzlxnCKtYUe8F6PB6To+YcBhr3M+8CIy4phdBp4IiAjenO3ODIopNa9XWr+60TW/yIPS3OO9+aNXbfQzGOzmpJffcQIDTU7RWQi4GIQMRyujZEGX5Bt3k6CI/RH5C5BgLVjYdlvkwvCKwOnGOOWBRwIxPe4ickBBdhFf+cpX1ukavuF3NiYCJs6OIxsn773HbpNeM3LeaX6ZB3ARBK3mEXkliIm6aydllyTThDZZEM649A48gNfP4FiHArYoSwaxBsGxRIffShkEAT+8CAE74Cfzi7Rl3W8/o0vXGEhAVEDWrA+biHHrS3Qg7B4eA8LKugHLAkiZHaRdnwyCDMgkr/28FsapB+PkvQw0p2fDIRizoaPjjqDpqgyzzYtgQaDZ/pZLSUbsb1zTNoQlGxttp+dF+cLNKGVMagIEgFnRB9ikRtq0OVrTNihsKx9bsmGyJjXPY2PjO9ogf+3gNupuLTLjuiJF55AcvUyBIUUigm7Dtw5C6oKgKMorQXlK4VKCd73rXc3OgPD189Z8OyETyahk5c+9/e3fwK3WAnsMGyi0GU0pHXsw1Oih5JyuYEGUzCFKSQmu/LtgKp/XcwSOcwRho34xrkRDKUDQZskACrBEpvmrcNFZSPvJjnDklFaKXNYmG9S2fKOzEDhFaFDzy/cKGJcLqpXRwU86BRxL4CiTIX3HuPtdcJqNibmS36CjlaXqh/cJDsjB6EJDjLwCCxx11/2yMFnXBeoAmErvwAPDGua0S7KshYf2nPiOQQGCwKC9PgZBxGa9WUzXcjAlQBjnKKXhbRwAfdETzouuSHcff/zxTaApq5GPBSd57aNt3HowTt57lgCWA+fU2lkDmQQO0fdEBLucfxvWuSQjviauaQFCjY1lJ6J8vW+pAYLjgOgDHBMYbdocbcgW+ny3LKN6nCy3tg1jn2qeZ7Md35F/a8suA9S1/dbQAQLmEB5hSHvY7UjHEqQUo3+3O2AQnMNYVM7vOH/OXkQo+rdjjRkE0ZIzersNxwT+27FEfJ7gxNkU8A7BCqPJ4AhWBAPmYTcqSoq/Mcy1AUJ8R+1CyIx2zCKlClVRSlu6SwQqQyKjILIrIQFy0o4lDNCZXYV+ggupOFGuc9DaUQoQKL6MgpSwo46MtiiiJw9BDKWSKSAT54GCiIwS2SVfysZ5MawiaHojve3jXhaBrBSQKHpkVwua1g6zNJYqj5LBFyjKhNFF72SUBKfot2g5J0dhXWiDS+U9ujg2+pnP8ksBAl2JvLJzjrpLDubpmYwH/ZIF6HqHwFPa1q5EoBdlCUUzylymQaDIYOfvCMgGxHegzZpuy9yRIgNHh/DSl1cdVUTa0JFHDhDwqKRrETmyK0AYRV/iGmRHBAY2H44bwMAL/gXI9MeOz7dkDGt6Utd+1rVx6sE416pn4bNjLTwUfEm3qysTvFqvAgTZYTokC0nfHWWWZMTZxjVtw1ljY2UQo3zpmqNw9kuQLWNnLdRkEGyeog/gByNtbGI+YpDNtUlR2xKzWrXPs4biO/A1jpLfGjpA8FBRHOGIbgQEjD+cbhGd3+x08hCtGX4jVKlETGkbE5Ckdq/OHp2XOFuy2BSqYFZ8nvtdw0AhyqAIGGj4Upq5lH4TxWWGuYbBahunNtPiO2odsJ2FHYZ5cJwcq5S2YwSDc5HKYXjzdf49Qzi36WXwu+YntYd+qc1hMg1dPMiRMceZoWAFMRaEd8l+CLoYGc6NrPFPNqEkX7TRC/dSNNF8lK9nCZgsPO+UNuyCnF6qPOiQj520ccr9pkMDZr3AyHstQrtiw3wGFcotlffO4QXJnEwe7fnhl3czOpFXXXLjcAWg1peAnDMf9A48t9ulb1GWgvgoc2nQqJMMYnwHeqLMffKbvhtSorm+J9KWeQEv3kZBMKJAuaRrWZZtXpXW5ij6EumVaTJnNoWjyqlt8mR88d6Oj15M8tpv69o49GDctpMcZfYE8I4a1dPgOd3H1zbv6bnuH4OfodNRRmxxXNPRp7CxNph0NQ/H2+x3lG/0b66zVmUAHDVlW2xTG5/nvdEH8H2RNnO2ZtgrfkG9jQAo2jD6X/O8Ev9K82PLo+5mX72Y71sPB0FKkzByAdpiN3f9uygRAwxY8fk7DzXPs8tx5ho/glNzb+01K/GO2rks93WyLqJW2QPZgpUatVXV5jML8mDUBFk5tbgcfJ7Gd6jFkZnkHGQOBM+jjlnQl1F5sFr3TxvvOe8cyOKZQGSUtvtxP2/cchz3/HqgpHFLqH9ez4GeAz0Heg70HJgBDvQBwgwIsSeh50DPgZ4DPQd6DoybAxMbIDhf0nI36DvYozJjnO/QzuacOB6njPMdo9I76ffX8KqLzyXaap436Tzp59dzYCU50K+Z8XN7JXi6XO+Y23LLLecVq6kUVZSm2ln9wD3ucY+GUyrPFVc5e1J0lofCNsUeKthVp8In0PI3zBh0rypWlfQqh2vAL4Z5b7522HcoHFQBq2Wv3San+EuBp44PZ1ztkd+hx3clx3K1ii0nDYvJYxCfS/PKz1MXoAfZ+RwMCEV1XTUSCve0q9J3Ou3/Ff7o2NFGqLjKv7cLlXSjCAwH6WlbHtaR5+sCUQDnHXF+6LE+YDwoVBV8AvzKIz9PQW6+F4pn19dDPcs6BybVvm7QO/K72vNr35uxOlR+A99SjBznx6ZE/rlm0L0lWWZ6S1XfXfyLcyGnyAO1ESrf81Bdrnq+Rl9K9+JB1CGFjnHUyuOiiy5aoGtsMh1S7Jl1qPQ8hWnD8n4Ue7WYzRmnr+CjdJsoFEejda0LruTLOE9rV/GtYl1jrfuyWjs+t88++8yr9tbmA6OAQQIKgqm6DSweMJkWg1bC3CYnaGAsGByocW24Wi1QqoVVkJcWR55c6V7/JijQ4qWoiSFR+aqqVHFJRntUeGeBqEK28FV7e692SIpo7hZXvo7jblevx3dk4+56/eYcAeAUQY/vr2fjF/EDtIQq7jQY+3YGof2OkkA8y3tyS4x3mSflxxtD/7sKcRWwKnL9t7Yy10YecKDmwjBoR4VGRk5dPGjPCd9K74334nN2MtnJkUOkg27U3EtGg2SuIp/MVddHPnuvwJZutnUjPk8FNH7Qbf3F+qDpSNar/A76Q9c5ZBXQnLKgwvqAnJkBwrST4rGWIjghWikVKMbnyYBFeaiWpteCXzouqLTe4vzQrNjXtdpGjZJ8dagwdkcddVSzfmFd0JnIe9gcWvasiwxJDVgqvsN7oq7ZLMR36FzREqgzRvGr1mUFzpFezjbyT9V2vFfQHddbiV4BQuSzdrfIP4FTnItq7sgDv5lLxhAQyKs+r9EXuhHvFRxEHWITliqPkq7pNPI8Oupd2oitj0gbWdbwPm9q2vaqa22NYnO67H2Ns4r35tY9G7MMe2/9lnzZQQcd1IDFCX60rhq9L6vhekpzhx9++Ly2E+09jB1F08WQ+/ildO2eRGpALCCc6cvODtOC1f+uFST3fxOmgEPEllv8StMp3cuAcmwWnlYRAYK+UAh9QIgsGIYXnK/dkr52VdKMN2fNyIiw/eF49YXrxdfbzyDbTZbekQMEhtb7tflQLLQwrvrAOYEYIKBBywxY3DZcbXxHiX47UfNFC3QvwFRaNS16OzKD8eVAOBStNjka5lgjD/J3MrT4oReyIV5FHmg71GKTh2ehK75Xm1e8l+w9VzU6+cAYwOtIh8Cw5l698YNkrl+ZY2fwI58zoJNsFv2jH3as8Xn693Vz0F0OGRaHYCvrVX4H424NaN1EnwCXPEoAYQIiTtyu3nMETvF5djj0si0PMtLHr4VKKxfecaxxfuShzdH1WojhZ/gtPo8OCRqhD8IlELR06b1qbgiZ3q+d2c4rvsOco65xmPEdAgRGl3PKAUJpfgLUyD86HO9lT+J6Q1uk13qLfDa3Ev/iveYSeSDAZB/YP7aBrNBRoy/4HO/VYht1iFMt2aEaedDTqGuCqXbGgyxtfuLzXFPDewFCaQ1aF+21VbK7tTYHb0v2vs5NpQX3ChAEaFAZtRbrlsstlNGXQb5lt9gkG02j92XzVayfO+qoo+Yj1GgXjGVGreMYgODkYTclEm8PytTV996+Lt7LIXPSDD7jzAlI63OGOYVlB2Lnw+BzzHZ6XWh0ADjsCEWXFhLjX3qHYIaRsmuxY6PMFE+gZGft3wVOtXC18R0laehjBTTDkMnCMJB25SJdxoxcBGbSnWhGv50+Zfdb5IGdsr5hf0TKdpNgYyMP0Ok9eeTvYsT3WoQl/gESIX/zwFeBWaQD8FLNvfRmkMwjCqMFngMxumF3K8hopzfj82BTAAKys+aUGX+GLetVfgd++I2eeKYgzZFbF+InxymzYF209TQ/j95EediJM8b+Vl8jCIENEucnI0LXyECwLGMkAIrP87vgMmefgJjJqJR4T7etE/QLqkvvMK+oa45T4jvwBA8FbzlAkG2M8ysFCHQ33gsQLK43wUx8nnUZ5Vbin2OP0lwiD2xqZGHYNJklMpf9qtEXz4/3CrCiDvltqfLINrSta3nd+s1OWPCRM0xt+Qpgou6WeC9AKK3BuLZKdrfW5mRgnpKvqPJUf8HiyH7GuqDHNm1souCY/Sz5MsE7e+STARl8q/dlP69i+9wzn/nMeTtIZ29SlDkNnzMIdosWoLT7MLUAlJdBHnbYWTgyyJFeCY1OpGwRQlzkGJwVl/DsBQZ2K64x7DQEHaV3CEhkJET/j3/84xtjJSBAAwPt/zNcrZoL2Yj2aDsuv8d3tBd1my+eDUHMQve3wQgyPHb0dnMcMMOdDUGOgCMPLFa8g1QmG+F5nlPiQUku8b10oHSvAKENsetZkQ7RfO29g2Su1oNcOFIjBggl9L34PM6QIxB4kqMsg9R3vje/gzEVUGVIWE5Ddq0rQMAHwD/S0m09zc9Df0keUt+w58lWYAhAKM4vAyPJ4OV6FwYxPo/Bkw2S7aGTMkewBwbJXDbOzle2IQa8dlZR1/A9vsPu0nusKTs5xpcjLM0v8k8AFu8VaMb1BmEyPq9dg5D5LEMU+Sc4K80l633mgffKgtExekLmdu01+sKWxHttjKIOcfJLlUeeb1vXgPdYf2TOPsfNWVu+NbxnH5dqd0e1OcP6h3x96YhB8D/IlwncM3pt78vWr5XrksPcrW51q3mO1m6CMonEpMns0iiewg/wnRYhB5XTW85+pJ9Ko/ZrhPFei81OpV00VAoQRPgMs8Vo3gwOwxjhaqVlQTZbUIIF94g4B73DzhtkLeQ0uP4CIzso9QX4IDjhaKSI7Z7s3PAKz/Ku39lufAdaS3zhHCxywZl6CueI0raGlJjzNX8z/qJ8/825eH/kAcPkenO2Q5NdYfAiD9opyiyDrvfGexltUL7qMvAjf2Y70mEXW3Nvl8xzgIYnHLYsQOQzucYAgb5G3jOk+GKu3ifw4gTiO5y74pnjBWvBurBrcp3rzUWmhGPNZ6J2JvSOnsbnkUGUhyBTdkIWRybBTsYRUpxf6dsJdkLxeVL9dr70WgbIcUSJ9xmu1jutBXRKXccAwb1R1xwTxne0127OIHDecX7WaIl/+f58r+OjuN447fi8nNkTTGTdQFvkX2kudpqC+zYPBMHWHzuCdvbP3zX6IgMY76WTUYfYiLgWauWBT1HX6JxsEvoNtlgGJtJGtjW8z1/cXIrdHcXmtG2iDcUwqLGlAIGtK/myEux978teURWbTVSbIyPrTFT9wnKNWXnHcvFnpZ87bnmM+3krzY/+fT0HVpoDq7lmBEq+aSP4n6WxEjxdiXdMVIAwSwrS09JzoOdAz4GeA4M5IDPnOx2yX/2YPA70AcLkyaSfUc+BngM9B3oO9BxYdQ70AcKqi6CfQM+BngM9B3oO9ByYPA7MPeABD5jX56+yO3cOmKZiG0V4CrpqPw05eeT1M+o5MLkcUDWvA6K97kaZ7aQ/r01brX1RCKjoth89B7o4AAsH9oGC3Vq9Wg1u6rQr+drVmEvtO+e23377eRXouhTa8MEeoC0EcIgKWSNX4bdRE2tfFO/tgroFKqLKW1eCinTVqgcffHCD2JYRsyAJqvr3XXgtRKp4Kcg451dLV+m6UoWtAEywpYJaNTVaSp8dLd3r++A6KbKxBBcKq8Izsmw4mdzO2Z6TCnnvxScdEJAE3TNOXnmv1tA8dB2oBo/0aj2raS/SIguZzxw5B10quhiiHtTwxdmm9ju4DVrXVGyrKFf1b36GlkfdBFrvMk/9hgbB8Th51ZaN1uInPvGJI31+tvQ8HQfjkEeen951esNGZDRJrY3xN8Yv96brBFF8phWwa0T7UrqOLfCe5RzjlG/JrumOqVn7WklhsMA3YSO0KgsgS3oa15FOh3idNuio97BLSnMZJw9GkZXuE5g3QMvokP9eDMI/Qjwvpleld+h0iPpcooNs6LjuHLZcN4TuC90sun9yV06E3Pcs/qrL1y7Gs3HPWXtyzWiOGGKrE0NuYUJca6MDavHT76zNrfYFeRLx3q4AAZNPOumkxiG+853vbAIEGAF+14ajdZGQMEw7W3uU5lcL7xnvze1KeKN1TEsfSFc4CUCGIINxYiUDWHLyHBKHlhdxl3BK9wIZyf3MOTjr4l98LuAU79V6pYXTHwA945QlOUAnxA/fOdCyBNks0ls751IwWtKDWr60ecoha4fSvihgEFxa5CCItf1lw8vIcIyMzzj1KssH3oD2Sx07nAKeaeszVw7e2hMs++9sdBR0delf+3njkEf7edYaYwhfIwcIXb9lu4Cv2nAFsnGU7AvdiLRZK/ADMnw5A66FmC6316XMSeQfHWfDdEWBhweqBu3TOwQ3Ak+orILlca6Fko7nNbjY2gdihN4M+wyjAd7BID3NvIVLEa/jZHOLX9Z7OAElOzROHbqcmpUAACAASURBVC/ps00d+QnCDddo14TmmQdsDkPLOKAq+iNIZX+jHRd0ucYaZavxli2Ofst7at7hu0JRx82l5D9cB6rdOhMYCOxsJvindoBQujf62pLek+Vyz9nmu2YUAwQ3Uq5TTjllvQABI8AQP+5xj6t59nrXxHtLC8mCoBDwtO38QKoymHYmjArjIEBgpGDUS9kwAJyRvvzS/AiTU2XcOOmuEe8lIMAbjlk4P7zAE0oggmTY8YLix1Fy8j6qAsBET7mFUsoeeM4wAQJ0x4wMpj8fTyz+PMzdvO2YBTdAfyxCu4hxytIOXwaH3GQyPJscI72jBghRD7oChMwXxtAuDE/JU984+F5OF0qfANS8GXB/wB7nAIHTgVWAjnHqFdnQc8EAtD+Oym4RVDIwHGlSRu3kk08uBggl/YvPG1Ue8XnmXAKL6gKQcv3xxx/fOLf8rY24RqJ9oRuRNsGFYIDxNWTASutSMBD5lzcyDDg9tD44E5sN2Uc4AqCyAVKNcy2UdNzza9a+gIV9o4d5CGwG6emg6zi9qPfsZGku49Txkj7DlpHN4PwMWQHX+ZOHLKfMsYyfdWqu7Im1Eu24Ne4ZgMYEo7LfGRG27beGeUdJn0v+g57KZsLDYR/YDuBiMYNQurcUIES9R3ctX5Y651oH3hkgeEBEB6x9aM11pYUELAWTCR3TwJMKAES38LSlcix8Dp9wpIHtCDBU1mGcg1OhpBlZkiGx6ywh99UECJwZmNeMeMfwWcC195YyCNAfGQ8DeI+FxQjmgT8CBlE7RYaWlr+7MU5ecQQMPodqATDYHFykF0hRzRGDucWUJ3lEPegKEDJf7KikaN1Lj+xEnFfSK7s0hkeAAPzJs2URBG/4JsKW3sxAUOPkl8yAIwCBQA5aIzqlOZcyCCX9i88bVR6l+dUGCHTQzo6+gSIeNGpQMeMRQ2ldygiV+CfjYpdnd5k/MtfOEAEMG7fd6AqCa9a+AIGTk4XLwzFNSU/jOipdR4ej3tsc1MxlVH2P8mCXoILK4vhvQZ8NnuPEPHxXwXd/6JoPUcmoCJZsAOPAK+iq1m88YmjrFfjl2ncMCnjj+11rA0bX0cS2gWW3mWTb80cF432lACGuaYBoyz1nPrNmNAGClD2Dadcudc7QS8NJRxMkpW1/yrX9YKkWzlwUt9hZUfs+C4mx9gEigyOW1pS+lymQauPMIBpKk1EGAoEiKL0pSLAb5sR9WKlroROkHTT62l9aXIw5zorsIr2TETcnaIM1AYKzPzvU7JRB6soc4KkPJUlp4y3I5Ti/0r35a4ayIMMeMXB+MiF20qJzH9bKsMWRB0uVpU+smpfgDryzHQqku0ivnWmUuR1zHJw1CFc7PfJmBPA96kFXgBDfQZdyqtVORhAgG0Hf8ldMBZyCnNoAZql6hVb6wKDnLJLAE510lLMTCNv52e0ymjJDrmfYS/oXnzeqPOLzyIPuM37+Le9w429Sqgy3ehvBgTVdki89i/ZFUFKiDaooubBBIN/dF9el+UX+gbPGN5kFf6stcZ2dn9T1cq2Fkl2j96W1H/XeJkjwisdsqQAGHSU9jTpeug69Ue9lYWrmYm5L1fGSPjt/V0dkOO4QfEPE9Y482Mb80TOOV2DnD7nHubBramLYs3wdGOWoV3Sn5h3eHfXZb9Em2rg43pAd4BvZErVh6DP4Qj7DBqnEv+hr+buo9+oXlnvO7S8bD/KFTYBAgfMnQzkS/y+Nn4cPmNihloYiONFi+/vaizlf/67GIL6DIc+AGRC2LBjOX0AA1tkZt0CAwnifsyrnTrIKXQRjtCMBRiF/bbJmfq5hpAnPO+xEKJ95S586ZpFVEMBQkDwYR4olQBANyxIw8hRDBC2Vl3/Li7A9P04g3us67/ElwkyHeeS5DKLHjs7zzF2QIzvTVTg2iizRJnUvpevb6xZmpLckc0Fb5B+o27ZucN4MXUkPSnyJeoU/+V56wwFL5XLAjFaWRy1PS3Kr1SlHZeTt+CwP6VKQtYYPbNEfeusIwlzRKKvBMUf9o0/xea5ZqjzAq5ee1+apIMuIv9E19Ultu1EjX/bFdZE2R0IMNF7hh2yZdR7XpQLmyL88P88USNqFct7m512ckw9bLcdaiPpnc1VaC1HvBVN2o+opDHzm9Ep6Gt8h+xWvEzREvcfTkh0q6e9SbWdJn9k/+my07V/pvWhry6203vL68Le1YfNkndT6rfiOaJvwnp+JNrFNh42WgvH2EOCxf/nTBdH3lHxtSe9r+DKuOQ+yXSPjIHCC8L6d6a3FQWFy9Ih+Bmxa27JWQ5azxL8a/bdLcdaqJmUcY9KfN0nyHaYGZrnXwiTxZRx6OKvPWG49WA6+jXPOIwcIiinseoc5XlgOpvTPHJ0DvSxH52H/hMnlgKyWP/Hrh6UZ92thcuW4kjObRj0Y55xHDhBWUlj9u3oO9BzoOdBzoOdAz4GV4cBUBwjO69RG9NmLlVGW/i09B3oOrA4Helu3Onxf629tAgQpCQUPCsFUH2uFqRnDnOmpOFVVqzjoRz/6UfP40m8173WNYg+FJIpC8nfRS/cqQlOcp6ARZoFCxZr3er7rFPkoOFEEVPqtdr7DXBfn5wiHfLTSnHbaaZ0BUWl+CncUe+ahBXGxYs3YNlQz99WY82L6txgdq6UbS+XVYnJYa/Quxo9xyrd2DZbs2jD3lmiqtXXjtrGL8Tfb4WgndQi1CzC1Cpdaut0fZaTLosbW1cyt65ouO17jF0pz5i8jD0aZX9e9o8hXy6h22WHH3BZbbDGvBUibkWpfFePQ0AQN2pbOPffcps1PZTl4SYPCA0DhePSyamtTbc2Ruo5TykMFr1YOrSjaP3QiAMvYcsstF/wG1ja+lzBVakPL8g7v9X7O0qB8ir5K7/WbVkgtQRnhStVrnEvpvYq/VBPjiTkrwvS8+Ju20DhnLTCuzZgEqtIpPpr9puoWj2t5BVVPqxYMhYxkh/b43tKcBQPAVl796lc3/IIFkEFK2vL1LDwlY73nZKW1bJLnLEBo6x/dwPtIh9bBqJOrpRu6GKL+1cqX/FT1+6P6PoMQzTK9Jf3Lawgf2ByyXW75sj81a3AU+ZZsLJnX2LpRbGzJXrGxaGa/tfXhM35HPnNa0SaytzabOjC0oQtcVftHeyWIiPYZD2r4XJozR53Xgv8295JulOaM3hq/UJqz32r8Qmn9ogN/zdd6tq5r/UKtDyULrf5aRw2y5Etrxty9733vecAqWgU5yhzpaYvTx0/YHqi/WQYAPoDdNOARMKXa/Y477rgGNU3fOme+3XbbrXu3am1gHZyR+/Roc7qULf6mlTG+lxMQUJgf+FsocbIQ97jHPRpFylDQwIDieymLnmlzzAECTICa9+boGDqgewRRhChgib/FOaNXn6/duqF1zVyguckASBdq3cLPGl5pp5HJaEPdem58b2nOrrEIoYvJoOQPA8V7zUlvOOwJvbwUCvTwJM+5rRuPeMQjmsCGfCIdAtxJ0Q2RfNS/WvmqTiZLuBACet+8EOzNKr0q/Uv6J1gXYGsLFADT7eWWLx2qWYOjyLdkY8m6xtaNYmNL9go6YATqYsMin2Vvo03USsw3sPN8gxZ6nV3R5mSsmbZ9hp9Sw+fSnGUe8lrQ2s1ml9Z+ac577LFHlV8ozRluQY1fKK1fGDdwIdgEQQp/VfJlo8iXLPEDNoPBz3YhnMagYe6ggw6atwvjQAlKBiEDoYg8gHUYlFf/MOcI98DvwH8g9XHag9KbgIHsTCkOcCATBIgRf8tgR+33cgL5HaA6GYWcKlkM6dH7RPSAR3KAAHmx5r3ZAQMpsUCBxMgEUPL4m2vbc0YbwCCIaISin5YCilx90wGWASyFNqRqFkyJV/jShfLVfm9pzmiFL+FYR0AF0KokX8GdYE6kLyMkg4DWSZ4z3bBDgVym91q2S3oz0pHhqNvKv1q6MYp86RD6ZIME2NYjmc4yvSX9Y3/QLTiClmh9xbEc8q1Zg6PIt2Rjs01czNaNYmNL9qqE5Fn6AFGXnfS759rUsZ15tO1VSUYZJChuhmpsbMmGldZ+ac42uDV+oWvONX6htH5lOOB4yBr4d/zykao4RpGvZy31o2dNgJDRpwQIBPShD32omZ+UthT6oAAhokCJkgB05AEERQqFsvh2AcQzwrfY4m/ZcbXfywn4qIcdbZxfe9FA8ovvJUxnXKJXkR/nKHLqeu8CqfzlB+BNdmttsKj4W3vObgOwwbjJfkDIk4YCn0lQGV8dX2p4hS/DwIB6f54fJyIiF5gNkq9dGex7QQ0DzAlBDZvkObdrEKCa2bGQc6SjpJMrqRsxMCnpX5d823oljYnm/G0Czy3JbZbojfpnRx1hfFdq7desQXq1VPnWBgglekexsSV7BaguZxAAvQH8YauivQKJnEe0ibJdNhtdIHtQCKN9BoZVsxZKc77Pfe5TtfZLc7aDr/ELXXPu4sFi6xfkusAEjwRSsgklPo8qX36HTR8WOn7ujne84/zzn//8JvVtp+kcBnohB0dYULc41a4MQg30MJQzE/zyl7/cpE88C+pa/E1WIr6XQfQNAbskaXDZCuc0IlzHH3boAo7FsKVzBsGZT+m9GftfFCdtaZ6OQ5ybEbI5A0SKv5XmjI9SOobAwL3qJGQPBCvOnNU15OxM24GUeCWAwwPfqnBMA6bZ3zVz9n7RJwVUo4B/JflSSkZAxI3ndIIyTfKcs2446xSBm7M0Y6SjaxeR+b6cuhFlNIx841pgxGSfHP04QwQTLZMwq/TS+6h/sp0Q+WS6INbVpErHId/aNTiKfEs21pFvja0bxcaW7BUbJRC1QZSFtdHj7OMo2Ul2LX8dMkPDuy+uhfazsoy8t2Tr4loozZkTzWtB1heqa2ntl+bc5Y9q5uzopcYvlNYvm+wPvwBeXsaoxOdR5IvPIPx9+8X3OWyUF7OJWTYT3+a4WKV6165/2N9FzL4I5ghiWkY/55WR1Ch8HuXelaFu4VtGmfMo9/b0rhYHVua9y60bQLA4en/LZtgY2QyNMpZ7zqPMbSXu7QOEv3BZlsBZkO8JTMvo57wykhqFz6PcuzLULXzLKHMe5d6e3tXiwMq8d7l1ww5chlSxveONXCQ+CnXLPedR5rYS9058gLASTOjf0XOg50DPgZ4DPQd6DqzPgT5A6DWi50DPgZ4DPQd6DvQcWMCBPkBYQaVQnas/uB8rz4G1xvu1Ru/Ka9T0vFERHEyJ/Jnu6Zn5X2e6lvT5lre8ZVPQqW3b14EN7aH+5P9fKRlWBwgq+LV4+FvV+DOe8YxmjjoCVI6feuqpTe98CaZZJ4B2LEhOuVrVvc973vOaKn/3av0DajHOUZqz+cW5lPp7l2PONb2opTmbL+wFnRDQzYBUaReNozRn53E19I7Cd0VBUQ9UIwMqYZza6I/xPSV66cQwulFjPGp4X8uDcdOrA6OGV3l+Pb21klraddMg32Eo06FknelEKI1poHctrV+tn+ymdmWF88Yoxfol+dZ+TmHuda973TwgIVWfnI6+Y4NDykPBBycOLUp7lTYJLSQIyCBGggPP0GMq0jnyyCMTdDuIZwo9gNkcdNBB6wIEn1z1B9jJW9/61sbBADyJ95qD/tCdd945ve9972tamxQSLnXOek7jXAQI45wzPvlGhKIZg4MG8kToYJYNwda97nWvKj7vv//+DUgTZEuAVNDlavkMiKOG3jaf4WBopdR3r7VSa512MzsQcoi6oe006gFgJu8+5phj1gsQIp8pb9QrWZZa3YDxQC9gZYCzLg36EnmvPY5e4yva6J42IDLTNovnCp60Sy03vQDHaniFtqXSq73pxS9+cYNJ4n1HHHFE0yIpMMmjSyfHLd9x05vRQheTJSRRLZKKkW1y6IWupWmT7zD0AmQzFOxBd6Xj00Zv7fr1vZ1Z0GfykkUAMdAOEOgtYDDoi2xTlx7UyLeNBTEo2Jw77LDD5jMEMsx6ht0OtY25re+awdbrCdoYQJFgAFwwIwNgQu8ryFhQvQw+ZDv9nIwL/IJ99tmncfQ5g9DetTPw4DilVEr3CjRkHygKJYdVsNQ5d81lnHPmRAFe2AUbjLP2GwY442Ezkt5Zw2c9xZyfe4499tjGyAnUauasf7bE+3ivPlkBC8ehPch78Nh8GRe7ekBXEducbpBPSQ9KgCfxvfgT9aqtsIN0w0KAgLbttts27UwgrUuKbx6R996BN+YDyApuhewM+vUig3y1IGErRBktB701vBqFXgGP4AzojWBeQK7HXSpTIOi7KnRWFmra6BVk1sgS7Xrs2RHw6b5LIhidVXphrbAdBnwAawAU/rTRW7t+QRXPgj53BQgg8GFTQOlll21qSnpfK9+aLNTcIx/5yHmGg3OWxjjhhBMaIyGCyQNC3Zlnntn8r1SVHZcIxm6L47PIpEV8CTLjPbdfLqgAEuHZHDyjCwCEcQaP6VyFIygNICGiJoYbiJPgxbOWOmdRZmku8d2jzNlHNCAoclwAMDguO9aYJgMyVcPnzHuOSQYEHHZplOZs51xDLz7vu+++TYuQIVtBAWWJZIzstMBcl+bcpQc1yHOZjrZeobdGNzgGgaUUvS92AvbqGpH3gFbAmgpwoC8KdgWtEaVvpeit4dUo9ALhEcBDImzDonOUsoEyXD5uM4301sqSjjOoUFHzmGV622sh6/800ouO2vU7C/rcFSBEUEL2INowH+2KPqXWT5ds59xee+01b4cpMrGzEJnYqUpF5uHjSHas0puGAIHAnDPbZXH60tAim/xZZEcV0BntfO14Ycgbfj/66KMbYwU+mUOSuhagCDR8qY2xZsS8024cExwpSJH6Iype6pw5gzgXzpBDGtecOSxO2RDU2HmDOrYz58igPgocXFfDZ9DBomMfrPIxkpx9qZmzYK9Eb+SzzIrvbOCzAQ9cMELWn/70p5sgzX9La8U5yyBFPZCJEjSC9+Sc0MAZxznTqahXHFWNbuCfNJyASSbh7W9/e5OxirShJ/IexKnAVLpO/Qsnia/+O6NcqvkQ5C03vT4eU+JVpGMUesnW/XbRZGL90kH0WvN4no/apo1e8qqRZc6SsFdkK+AVzM8qvaUAYVb0ubR+Ib/Ogj6TG3vAZvGpfCPY6xgggJaOel/y3SX7zE/XjLldd9113i7MDoLjZswtnDhEZoy2YbcvBW1YnByr7ABHa0hHO3tun4Xk58kEME7gO30bIA9n3h//+Mebrx6K8KUCOZTSOxTdjDLnOBf0jnPObV5JY2anyxgxTrIfzpZKGOVdfJY6o/zSTIxbLZ/bssy891uJz2pEOFx1IVKS6g/Mx/ylZTmXLlz1qAd0wm95CC4ESZHPJXrpTa1ulJS8RFvkPTht55WOxgRRHKSRgyn052xK6R3jpLeLVyU6lkqvIMT6pXsCMoGrYK0tI1nB73znO0W7Mcn0MoC1ssw6jkhHngLZaZPvMPSiTRaQPW1/wyPSPMnyNdea9asIcxb0Gb2OCQQH1qsaMv8vwJWNZov5aiPqfZeMS366qPjhx+ouhpqH5WvAU4p+FMRMy+jnvDKSmkY+j8KZSaFXm5vaHQGa4FxWz4e8xj0mhd5x09X1vEmml8x1EKkvetKTnjSWFrlJpnc5ZL7W6I08XJYAQV2CHW9XdL4cghz1mf2cR+Vg3f3TyOc6yspXTQq9jgN1Eyk2VtCZs3Oj0Fa6d1LoHTddXc+bZHrJXJAgS6YAfRxt5JNM73LIfK3RuyIBwnIIqn9mz4GeAz0Heg70HOg5sHIcWJYMwspNv39Tz4GeAz0Heg70HFh9Dugg0NLehcey+jMcfgZzm2+++byiJQVLUlFdCEsKubRiqabXXaCoa25uril4Wuze2mkBF9KTrcMhA0R03aufF+iQQi5zyYV78XpzNj/nra6vnfMk0TsMitYs0FurL13XTTIPzFmrreLVPIbR+xLN00bvWpPvWqOXT9CBk4djLYB5tWPS9blEh6MIoFTa24f9xPQk0zu38847z6te1jo4CBJXGxywFZgI+u2hA6qsrLkXQzlp7YsAllTJl4a2OrDN+pUHBQjmqprTfEvAS/nZzt+0X+qogCHg/Yq0auY8SfTWBgizQm+tISldN+k8MOfY012r97NC71qT71qjVyec4j5ttDvuuGODlAtAr2ZMw/rtokNgpLZnmFqP1aS3Rh5zW2655bzoB7xsO0DYZpttGuAZbW9AfgzZA9CzHLj2Cj3nNfeqmt5hhx2aHn5YC3owuz46ESEmb3vb26aDDz64eb+WOO2NAhO7Lq07OUDQN+odeXziE59oeve1+PhvQD+nnHJKAxRTM+dJolfBJ1q//OUvN72wgjMFZ7NK73777dcErFoOtRrCf/jqV7/a6BzERiiHWn922223qeMBMCp/tHwaWoYZ0hq9ByY1bTIv0WvHBGVU0A46nT7DDYnrfFbopcuRNhlNbWywJ9AOMI6tmwX5slF8BnurNZp8yXwW5FvyR7IjcEZsoG2e4QbZ1IEOsM7xQ/shDJlJkW9NcOCapgahC8VNdAOzPA8OWnDASOvFBGxUc+92223XMBCwA4XRr8oolkY0lNlRex/IX/gLcP9hIcgODMogUExBze67794I6pOf/GQDo1sz5xyQTAK9lE2LGqjUNgpe5N+s0GsHwoDSGciGjr4gaO6yyy4NVCyQFAvxwgsvXKBC08CD0odnavS+tF6mlV5B4N57791kFCGwltb5LNHLDrVtmKNUKKdwUXxbhR2zeZnGNd31ISWgTD7qp8VyluQbZZll5hME7QAh2+wnPOEJCQ6Jb9xMinzHEiB0PQSo0Rvf+MYGNKfL2YqKofEZAgrobY4FoCKKlnOtQ/s61zKUBxxwQIOYaKgFwGCOAdiO+yidaEzwAscfsJIonQPJw87Ee2UR/Du8fU4GKmANrG2b9tWmt33EkAMEIEazSm8pQAAYogjIB3fsRGSSACpNIw8YVM6i3WpYo/fWzqzQqzcfTop1/vWvf724zmeF3pINs2mBjgfF0p/3v//9TVZwVuTLfrLXxx13XPrc5z43M/ItybIrQMgfsJP9tSGeJB9VHSDc6U53mpd+d3SgvgBcLQx+aW0QyHbQDJnUCphi56Uif8cFoFtL93LeUBXtEkq7vDy50nXOruwaOXLHHopdpCNzdA1WVwonj0EZBEZXhO4aCISD5jzJ9OJJhNlkVOOYFXrpVMwg2I049nLksNdeezXfh5CNmkYeWFOcn6M2BhT09rB6n+meBplHesHB2jCA51YfpLCLsxy0zqeZ3nyk0rZhcPTxwLGhTIKsWAnBdhrlS59hMAh68hG17wHMgnxLdOha8LuPnfGfEIEdj5EphGG+x5GoY9JJt1dxfnNbbbVV08WQh/MUtQU+auIbAhZxTg/l68DU+iPVUrpXlAUa0znUoIKN0nW6DAQe/s0RRu46yPPzW7uNxLXm3NV9IYvgK32LzXmS6cUDNOjCYGw4z65WmlmgV0ErvREcotV/61Kha1nO/u6qjJ4mHuT1NqzetxfytNFrbbMdNh702do02rYkrvNppreLtii3rl3dtMmX/8i2PW8Qo6+YVvmW6Ig+ip0Gn27TLXuNH4O6OCZJvgsCBDUIJcVUf+ATuFLza2H09K4FKa9PYy/z2ZZ5L99evqvFgdrOs2Hmtxr63AMlDSOh/tqeAz0Heg70HOg5sEY40AcIa0TQPZk9B3oO9BzoOdBzYBgOrOkAQf2C86JZgsYcRvjTdK1zOrUJQLaW60NDk8SPWaZ3lmmbJB2atLkozJwFWzsKHaPcuxryXJYAQRsiOFlVrKo6FSKp8LzjHe/YVCyff/75RVq1gfhMNNAjFZ9aoGrvXQrzBmEKdD1vWmhbCj8mmTZtndAt6cNiMNy1tM8yvbNMW0m+k0xvrT7Ous35t3/7t3Xt64N4MumyrKWjRGPtvZPCgyZAENGDw1SUqOKyNPI35PO/ATgBVsTp5yEgUG2v80F7ISAjaGGAbvT4KnhsozXawet51wKiktl3FUAhCyCOOOKI9JznPKepYq+51xxq6ICnAOFKlwVY55e97GUNzQ9/+MPX0TELtNlla6GDOjkLtBFOBBMCpKT9VnvuPe95z6Y9VpZhVumdlTVYkmWJNp+LZ5OgzwE5++hHP9qAZ02bzVHRzoZp/dZqrQ1Olf8s6GlJbtAhoQpamwZbrjUZZo0WemNabazWxUhHycZOAw9qAte5vfbaa55Dtwj11gMY0psbB6AaDhUWgp5PQDXSJRxtHoCR9tlnn2aXpw+WsYZncPLJJxfBibQ1CRAAx+RWJ4sfBCvjAGHMKAEbxXs5iBo6QL/quQZxKzARtBDmrNEm+/LCF75wZmgrORUZJyAzPnzkK2r08vDDD58JWZbonZU1WEubqm1gSpwJxEhIojYP02ZzbEpgHsimAs+xLm2OZsHmlHRSMCQTnO03f+I6AHkA9gzrlQ2fNlnC7ol02JhGWU4DD6oChGtc4xrzonK49oBnwEV2DaiEFN1HjyxUCxgSYh6QDTlpgYHf9aoLED7ykY8MhV6I2YIGaRbPrEE+FJHX0CEg8bVIoCXtI4aetsmWW8mp+E3W4JBDDllPZWdBll30riXaACyh1w6UU4WECkxo2mwOWfomDHAvIGAZEGlWZBnpADr3/Oc/v8EvAY/Pr8gER0jmafQfZFmClp4FHpT8/txNbnKTeWkvC9AfRwMKwThcKFjS1AQt2hP9+WCOIwM7fgKGGJXHmWee2URSvrngWSJI0f/Xvva1tPXWWzeIhow5JETANxEoSUbCH8O7BCPQ5rrubc/PbrKGDpkPoBWU1rGK82yf5+xpm2y50QlRuRoWHz6howBK6Je0n0+Qz5KeluiVypwFPa2lDeywjB95C+YBtwHYmTabw86B1j733HObAlvQ7bNiT0t0oNcm0QCvT2dPO+205iu6voXzne98p1m/oNOnTZZoinSU1uU0GwsBqwAAIABJREFU8KAqg9AFlCRK92EksMoWJeAH6XiG2JBC4rzj4OCltx1ZiPgpiIJFixwynm+Dew587gxv7HiAcQc5ivmGz4NSrK574/y6iI3XSREJgqT91B4IECj5rNEGEluQNiu0kS9aQG2TnfoU9Sx0xu7E9zocFc2Knpbo9RXSWdDTWto4Ers1H4ljD2QSbCymzeY4s4aqR2cFB/6whbMgy9J6Q5vjW0OxOYhl3Qtsr02jdczOCxqmTZbmG+ng86Isp4EHIwUINTePeg38eYvGrnDWxmrQRnF33nnnpthzzz33bD4RnT/VPU7+rgZt45z/sM+aZXpnmbaSnGeZ3lmmba3JstZGLbfMl6XNsZa4XOCSP/dae980XLcatFGWe93rXunXv/518wnd/DXNcfNrNWgbNw3DPG+W6Z1l2koynmV6Z5m2tSbLWvu03DJf1QChlgn9dT0Heg70HOg50HOg58DKcqAPEFaW3/3beg70HOg50HNgTBxQqKwGoAu/Z0yvWbOPGSlAAACiiFDx0FoYs07vrW9966bCOI+e3tnX6ijzWaQYGNrRRx+dzjjjjAXkzbqOz6I82zRB6NVN99SnPnXWSV0V+joDBN+9hn514okndkZntZ+0BJEL/IjzAZkL/ETleRyK7HQV6J11HUAKXQg6IG54wxuuh8IY73X9wQcf3OAmAMwBrKLaveZezxonvSVJTjpt5hz7e2vlu9bonRV9Lsm81gpNgz5nWgZBqtfq+DTRWyvDQddNC70A+XT3/PznPx+J7GmhdyQil3BzEyCAN4ZRoOf44osvbpzxdttt17TJQS+DanjOOecseLzFxSnr78Vg4BiKJuARGPpc/ffZZ5/dtDcakBpF9GBztajlcfzxxzf3wlGAUSAy1DN7+umnN/DNH/jAB9YLEOKcPUdrH3hPffHmDauh5t5x02tXNm20Ab+CX/H973+/EYlWLHypke9ao3dW9Lkkcx0wcf1Oo3xhZmiv0/qq5dpG4Ze//GXTjnbBBRc0ToV9Yy+ijkNznbb1CxPmoQ99aIM5A7QHLDV6M23bbrttYxNBV8OM8f+wCACNkfm00ZuD2+w/0GYzqYUdBoE2+re85S0Nlk/ki1bZaaMXXWwy2ACt3nwljKKl0vulL32pKlxYl0GwKDhjA5wyxbJ49KoCFLIzj0OAsPvuuycfoNCq+OMf/7jpV+aooSBy0MCO8gCricDHPe5xzVcU45AmArDhmeA5oToKErqQFNtz9iwwppAcOTnvEZTU3Ltc9Lbpm3TaSrvJYeW71uiddn0uyTwH2qX1O03yBYgGzlcGFIIhCG64K7vuumvz2wEHHNDArXMmJRs2bbbJfDl7GdgLL7ywQZWFUwPHhiyf9KQnNXZxxx13bLK3/t31QO/Y2GmkN885Zz7VItjYygYDpvKtCxg+kS9veMMbpo5e8tOVZtMNU+Ib3/hG802PpdJbFR2klNYFCHbaGQQpI0OJVHxb4SlPecq657Wva6fnANUIED70oQ+lgw46KN397ndvlDIDm9jxS/XJDFi4HCaHnsfrXve6JrCwiAUkIkIf4fGRlhqo5TbBIi0gS1/5ylc6711OeqeRtuws7LSyzGrlu9boxatZ0OeSzP0W1+80ypdT1OrrT9552TU7irS7NDhQGUu2ikPJNmz77befOtuUA4Q27Lj1C6CJA7XhkzmRTYkBgmzLtNnitr3PAQLgNJ8M+Pa3v90EfTatMkgRjn0a9fn+979/k3UXGAju1NSA714qvT5/UDOaAIFTBln7qEc9qgHWEVVDu9JPb5fk2MGI11FAKRwfy2FUZAakt6BkyST4FoOjA4tQTYDvMojoZAZEsxlW2bNVofoyGAel6NH1ahUEDTDZ99tvv3TCCSc0f0AjS5O9/vWvT4ceemgDX4p5oinX2z1Y7J5fune56fWdimmjjQzgxN/73vduMkmiUym7GvmuNXpnRZ9LMheMx/U7jfJ1XMZh+MIsW2DDwTH6wqzUsyBY8AClMeo4ezdt61dm4FnPelazCVPDJXvLPjtuRS+bCKpawBADBM5i2ugtBQhPfvKTGzpsQPkym05H45EvbUj/afE9glgZEbrMp0IyFgQtld4SImkpYGgCBLvpO9/5zs1xgvRF14jXObvi1N3zve99r0lt5d/yM0Q8MhKi1DwEB+oWSsN5p/MVQpaRiM9Tiew9dgOOEWQ4DIFM/ryobz3403XvctMrCJo22swXXxhMxzy54rtGvmuN3lnR50Eyb6/faZQvHaa7/rb5YHPQYdeltoaBlGFUyBx1vMv+TbJtEiAI7gwBfg4QZAZOOeWUZrNnZ63iH+1qxthXWeNptMVZRurmbAwdIaFfhiR/pyW3Pka+TKN8+TI+1GZckTQIa/Z6FHqrMwg1F07aNZRC9kD9w6yNWaatJKu1Ru9a48Fak++k0FvboTGq/VwNetWNyTDLUjtOsmlcqbEa9K4UbfE9I+EgrNak+/f2HOg50HOg50DPgZ4Dy8uBPkBYXv72T+850HOg50DPgZ4DU8mBPkCYSrH1k+450HOg58D0cUDxoPZSheX9mHwONAGC6nUFOLoMPvaxjzUgIroGdAa88pWvbApcSmOLLbZouhducIMbNEVAQJBq711N1vT09vKdJH32BU7nxYqr9LEPO3p97vV5kvS5S391mB155JHpOc95ThF4b5DeT7KO64JRE5HHt771rXTsscdWL+NJpm1ut912m9ee+PKXv7xBFoOGqPqT0XrkIx+5Hnphdv6IV/2qIlgF8FlnndWgIz7zmc9sOhpq7sU9zwOkBLlt0Mc2tOaoPD7zzDMTBCgtmLoXtOsIarRhqez0uWNwzre73e2aNj2gEqp289Clodthkum1iHbZZZeGFgOuBN7MKr0luQHRmlV6S7pLzoJxhiYHCPSd3udx8sknN7o8bfrcRS88Al1Hisu0PVvLcZ3TjWmjtyQ3ADeZNp0EKtCN+Ns00ouOKEtdaDac2qTRzhb77b73vW9DN1Tc3BkzCzzg90ADwO2BvaD9XhfdpK/fmghm7tBDD53nNKEOwjDQG0ygJXAiQhZI6De95JJLmue7B3zn/Px8A/to1NyLeRSGM/ROvZ0l+EcfU8lMB7wE0EQL5J577tkonZ2XQEYWA4wqjATtO4IDgEuUNA+/C14mmd6ddtqpgYh9xzvesS5A8B+zSi+DGuX2ile8Ymbp1VYXZakSOwYI9Nk3Rfxtreh/hhA3bfpcoheOxItf/OL0zne+M9H39773vY2BjetcoDht9JbktvXWWzdrGoS8FDv7aXMUf7PpmjZ6bRCjLLUBP+Yxj2lwCHQaAK3LoFQy0uw1B2ojNws8gOgrwLU5dXzy6Ec/ummfneT1WxMcuGbuBS94wbzFyVF/97vfTZ/61KfSBz/4waHQC+FaA1cBxkHwtciHwB+gNEo5yQ6UBqAjgUHGZzjssMOajIX7OPqb3/zmjUBKiFkUVa9oHoRocU4yvbIyOQJlUOyuBEKzSi/ZRKQzBnVW6e2iLQYI+EK/3/72tzcZL4Av06jPJXrtOPXhQzjMo7TOfVdg2tZvSW5os5ECACdL6xiXbONv+bsz02Sv0BZl2W6vFBC14ZzZsxwglPgyjTzI8gLjLSiQTZ+G9VsTJMw98IEPnN95550Tx/va1742HXPMMQ0YQ62Tzy9xtgS4aBC8sZ0Q6GQDEiJ0s2c/+9lNVgDalTNYo30dRDQBCBQwQ5QNKhMAk3lyLpx+KUCwOxFA5OH7DlKWk0yvuTKKIlDHL3gqkJplemOAAEVzVuntok2AwJhaEwaAH+vRjgsImTGN+lyiF+BLhHAvrXOBxLSt35Lc7nnPezZQxmTLTkI7tL7jbzZB00Yv2qIsBQhq2HyN1/Gx7/hkaN92gFDiyzTyIPsXvtMRvQ3spK/fmuCgySBss80287CsEfSLX/yiOQN1Nvj0pz+9gVZ2huRYQfrf/7/73e9uFJsgGSxZg7m5uSat77rF7qVMXUWPJpTfka+TijMXO2sBBChmaH8wx32tzFm99JUjEjDB5kFI/q00nIlOMr2CIfQaaitkV6Bcziq9IEOj3Pz/rNJbok1wDilNoAQBDxywbIHdJvx8w39LYcYx6fpcolfQ49zWObXjFWtagB/Xeaa9TfOk0ysTG+XmSNSu0qZIptR/qzWKv5H9tMmXfY6ydEzi2FmmFp0Co2222aY5JvOdC8fAjn9liGaBB22/Bf6YLyrpwTSs36h/Q7U5csaOEiAYroXR0zvbUu7l28t3ljgwKfq8UgiOJdlNCg+WQ69Wg7ahAgQFOCKjYVo4loNRK/XMnt6V4vTqvKeX7+rwfaXe2st3pTi9/nt8H0AB4rve9a4Vn8Asy3w1aBsqQFhxafcv7DnQc6DnQM+BngM9B1aFA32AsCps71/ac6DnQM+BngM9ByabA32AMIR89G8rrPKN+VkcClVVWessUVjVj+nnwOMf//imglzxbj/+yoG1wpeuNa0IXLG3zi5gbNM6DjjggKYzTSfcWhgrTW8TIKg0BUikU8G3wsc9VGgTINQ0YC+qllX0+lSz9q4DDzyw85vknLJOCaApOhxUOm+22WZV96JjnLTVFt9MM716kz/xiU80/K4d00xvLY3t66aJXi11cDW+/vWvL4XU5p5poreWyEF8mTV645redtttm/bp17zmNU0LYil4HDcPdDu85S1vWYciqeOt6xPNw9hshXswJbRFjzLWGr21vJrbdttt57WgvOENb2i6E7QWZRjM9kP829577904D4WKb37zm5t2Rd/izkYEatZd7nKXpm8/j6OOOqppodQS6R1aEBU5ak2kCGA32wGCFhn/3m6H1C5zvetdr8Fq0DIDxbHmXopTQ5uWMj278LTRDhlMyxEkMH8rtgEeJUB4+MMf3tADj8Fc8GTa6IVUCGNBq5G/9aV/+MMfbjIHECgzkIn2JYGcxaNvm0GRQZk2es0fYhvURkOQ+cQnPnEBDzbddNOZoFcxE1RTOkp+Oo8e8YhHzCy9Ngxsg/UOqE3rnDUdZQ6yPPIFCt606TObFm0TsDgfQNKGzibDzjjjjDMWrGn4NloNodhCOGRL2bTl5sFGG22UDj/88GZubGwODqK9r7XZ1rG2YAOIGFvcts/a8GHrWNNZ5r4dpMV9JWS+WvSCAohrgf2LPKjdMMzttdde8xz7VlttlX7+8583Pdhd0RiBiDzPPffcxsByIAakNwAfOViI0QkgIwtWj6iUFrCMk046qROMCRzyqaeeuu4xPmbBwHHUkOX0TncBObXvBcRRQ5vr9thjj2b+oENF1Ywr5YLxAPbYHCjW/e9//2bRRQCQNs2TTi/sAUcIMCsuuuiiBkFTAGS0gUzIF/rkgx70oGYxthHRpole6GZ0VCbKApIlK/EAP2aB3sc+9rGNXEEYWy92axxClPms0AuXZccdd2w2LUDUIBVat1HmJb6UDOWkr1+0RdvE6UOctZED2CNLy47FNZ1xbmRy9etzHL5Rs9w22/y8CwaCLgf+A6CQsRSb3Z4vp58DBLaKDtjwCZBsCuJaWAmZrxa9AqO4FrKdb9uD6gDhWte61rzIDsIhwdnhd42IeOc6Tl8EKoJlfJ3ttT9SIa0kKvTHLpUCf/7zn28CgGHQGu3apUqhyyGu5l731NAmBQeISfCTh0DAx3N+9KMfNfCZ6AKNKtJ2XAJrHBhTxsrP900DvbIeUnMMiO8CwMT/3Oc+VxUgTCO9onmAPWg1fwZEtijygGxjgDCN9ArsQKZbZzmVTr9nlV7rFzqqrKThozk2MVHmD33oQxfwxX3TZq9Ktsku+uijj25sMRspWMijHfT7LcJ6r4TNJhuZYA5MoGa+eVPS9je1NrsrQMj2OUM882lxLayEzFeLXnyJa4FORB4MFSCIdmQNFK0gzA49pyWkY6WuFIL4qI7dCEQowYB0M2dph+3/LUw7b+dNeUgn2ZVTWHDJGV7ZGTdh2tWJ/AUMkBylgRhwka70vvMyWN+Ui+EzH0a8dG+cM2WroY0SiULttqQhv/jFLzafsUa3z1iDi5VZ8UEqxkjRlw/L2IVefPHFU0cvzHDHOvhMdlKxFqzjBUcOeAEyWxAUHaZActrkiy5RtXHwwQc3KXd6FnkgcJoFeh3POQY87rjjmjSroH+W6dVzby3aQLBdPrerXinKXIAf+WJHO236bN1G2+SrthyBlD0Ieh/AI/O4pmUBY4AAnXK5eSA43XfffZtMJJvvbwHsUm12V4Bgo+oo1DsETL5jsxoyXy16HfvHtQDGPPKgOkBQpFjKGDhzBpf5tre9rXH+jI5FZ6gR4BgtuPwJT7+feOKJjZMvDde5HrwmBxzv9Tnbs88+uwkG7MLt9gwBQv5vTssRRde9cc5dmZDSdYo08ze9GVYpOMcOFqLgRLCCqegQRAhoBlWGTzK9lHe33XZrFpCMji+QOWJqy1LEqe5DwCdFhe+cp+OIaZNvW4dkhKSgSzwg/1mg15k83fU3vRXU0eco81mhlz7m9WuHyj7JWGa7kWVe4ss02is1CNE2nXDCCc0a3n///ZujWBuzaCetaetXXYpNUf4uTpedHKcNk8UzZ3Nn59l7YxSb7X4bRc5P3YkaBDL3fNld3RmOYvJasLlz9OKT28ttw1aLXvof1wJaa3kQ+TJxbY6UWvTXVc/QpczT+ntP77RKrm7evXzr+DStV601+ZbktBo8sGlxNCLgUM8gICh1mblO0bVARLDs2zY2AaOMSaa3RNcoPJi4AGEUwfX39hzoOdBzoOdAz4GeA+PhQB8gjIeP/VN6DvQc6DnQc6DnwExxYOYCBAU3aiVyC81MSauSmJ4HZUbd7373a6p5S5/VrWRtf1nPgZ4DPQfWDAc6AwTnOYq7dCwoztMRAARJESFwIwVrpaEa1r2qUxUAKYThsLTm5KG9BUDHcgytTCp3VeKPOnoelDk4jXzZZJNNmi4VHSkZRpquaoOl2zpTgMyUxiTTW4vuOcxamGR6u+ST29uGoTNfO230LoXG9j09vZPly8Anj/MLyUuVb0mv5nbYYYd5rSB5QCITBCgS1C6iTUpbDaAjxR4qRtvIh6qjtRkJIgDQKIgwwdNPP71padRyYcfmWSpNDdcqFIn3+jfveeELX9hAKXcVk+jpdi/AENerUhZwQGs0dFhoX9LmI5ugelk3gqyCjgTIgRyGik+dCOhfSzzQCrbddts1ld7nn39+4zBV3c4CX0p00AmtXYYKZl05htZdAYOiWINeTZseWGuAggTt1gBsC+AwcX3Q+7gWXDdt9JbWNJySGh7YtMwCvV02LMp8VujNGdG2HS/p+DTSyy6BAIBqa0DABGAVbbHOOZ0nfCJ/ByZgVHtVE2jO7bTTTvMZgtYNMgZ3utOdmgyAdhGLT78qiOUSOJEqUj2tdu4ZPpMg/b9WMo7e8/Uo683VoyyDAFMg3msXcNe73rVpVbGj+/jHP958HyIOeAjmJ6OhZVLaGDIjYBQDMldG1oJXkHtvIXmpZtXad/zxxzdIa1ARBTBriQcCOdgHZJI7RgACzQJfYDxEOiworT9ozjDS9NqCs0Dhd+gdp9/TpgcChKzj/gajrZ0xrg9Bc1wLAoppppfuWtM2CTU8YHxngd6SDQNYF2U+K/S25ZtlLiCcBXq1Gh9yyCFJm6rB393+9rcv2jB2Teu5P/Bc2K5R9LkqQCjhIMgeiFIpXdsBd6EXStW2jxxEfAw1Ywy2VPRjxyrg0IcK8jH34LbvpQjue8pTntI4+PZur03MYhDAbehNxtK3FTAXuhrQJtCigEUANB1xxBHFD9nMMg/w8glPeELzLQ2904yswGwW+CJj1UVHG1FOL3jGpH/Tm97UwEiL3OOYdD0QIEACpPMMzXnnnddk8SLgkwAhroUSkt000BvpoMc1PLCJmEb51tgwtroGJnxa5Rt5UAsTPun00sfsr7JulmyYjDjgOvb6zne+c7PWSxgew9K7WJAwt++++847IsjjlFNOaXb2UBWhJtqRANKRRaiBN26/EOCRXaohnQ1cSKQvrQ922fCejOqEeB+a4NAFAYgVXMTrhgkQ9tprr+ZZ+b2+DgkdkbEAAuUMeuutt26OSdYKD2QQZIlyWgtWuch8FvjiOCzSkfVrMchZu5Jp04N2DQJDAwRKZq0UIMS1YG1NI72RDpmQXIMwiAcCwFmgt2TDSgHCrNBLvlHmUDKjjk8jvTlAAPMPzdYo2TDrXCAMsA56sW8M0YPl0ufsC4tFis4qLTT1CM7s7PoV/nEi0hoMMIKgIrpWcZcKcWe70iMPfvCDm/oAqTAwrxywVL7AwLGD33wYSqoE6hcITjucrhGvGxQgyEI41shHDFIx6HCmgw7HHyI0aWfpHWnnEuzkLPOAouGFcyxOAna7I4ZZ4EuG3W3Ll+FQN+PoSXZBQRBUzgg5W9K/SdcDhkM2iI6rs3nlK1/ZZO1KAUJcC3gUxzTQG+mguzU8KGUQppHekg2rzSBMI73kG2WusK8mYzLp9Fp/MgJsryymb6eojYu2WAYeZDJAKD7WZofdHmX9LpY98O8jtzly+FLUcMBXcwgMZD58pMNXvAQtpQpv1wlYVK4rmhStMa6jjGnjQYnWWeHLctBRqxuTogel+S5Ht8Nq0LscdEyyfFfKhpV4MCnyXSmZrwa9K2WLa3U8XjdygOAzzzCufeRnNYczdB9yUlvgW+nS6H7zxzFCHv5fhuFnP/tZM2dFmaOOaeNBid5Z4cty0FGrH5OiB13yjWuhlq6u61aD3tKaHpWO2vsnhd6V0vFJonfculuS+WrQu1K2uFbHxx4gLPXF/X09B3oO9BzoOdBzoOfA5HJg5AzC5JLWz6znQM+BngM9B3oO9BxYKgcmKkBQjAK9UU96P6afA1oJL7jggvUIAeaikE7dioKbPOAU+EoaoB8FhNM4RqV3FngwjXLr59xzoOdAmQPFAIGhVkUJz8B3xf23bgaAQ7n30m9wBUpDBwNH75wfIFLtGKUYRXGazgtG2jfPtWgC0vB5T62UbfTHOJ/VoreWL6XrpoHe2N+b6fB5VrDHuXMFcqeWy3e84x3pq1/9avrmN7+5gORZp3dWeDCKTsd7p0HmPb3j5MCfkXR7O74yfqtGck2AoKr/Pe95T9p7772bgCAPsLWCAq2AWi9gIgA/UgDojxHv3XDDDRvMA9gJe+yxR9P6CNo3DmiJCk88G1DNkUce2cDDcuTaz84888wG5lm/J6e/6aabNi2SL3rRixrAl/ve977rHgnGGQQlGGg4Cto/jj766CZQMMDQtgOESaRX6yjch1mh91WvelXSq0xvDAWkBh3SQZIRDQFyASyie/6NrjztaU+bOvmOQq+AehZ4IMDP6zfrM/jzgw46qOnZ1k5MD+CdKBz+/+zda6x1V1U//nN44wuRSwIGiYnh0oSCXIRyUYRSpCVQSqEtlbtgoVUwBjXoCxWNfaMmKigXA1641SpCaSVcCwVEiwY1yE0ERCQhYuFH1PjCV5xfPuv/H89vdjxj7TP32fucs9feayZP+nQ/a605x5hjjjHmmGN8p/8qzfzN3/zNASp5amsayJvybXpMU2qp3Bt0OWQ8ELo2UbApdp1epZkg9DU2Qimusr2pzbkS+2yPODVTk/Ee58Azg4PAEXjGM54xlAaGMb/sssuGkkGGnrG1wGX9W/hqSylxEYL8roVuoYg4AH4QTnYvQ26ERJkhbAR9vu51rxsM/NOf/vTBabDLtJukYBj/Sy+9dNhh+uYHPvCBod9o/v3FL37xgLsAJEZ9tzrR97znPSW40ybRS7A4Bu4EUKO/LfRyAn71V391cNi0QCnk6JmXcBDsFqCiuRsD5DWZgK8xtfldhV6yvQ084CBkeTanSqAZUvqDEwh/xPq3KYFmas5VE01tzsF1X3PNNQPyqwZf5GEPe9iA2koH0ptAbRwd7Tq9Ss85CZdffvkA0mYjxDGe2pxzELI9Egmdmowv5SCMPcxTsjMi5BwDShy4Du8PznegIbbviwJgokgERv7+7//+6FhEBCyiZz3rWcPRRXvEcNVVVw3eN7z8DIhBsBwbRAMZC0LZkYhx+o57H6BCLoP+eJr0csYAZWwTvWNHDIchGkJNm+L8HpVecpxBm6bIg3b9hjxTnoFyCAQGsipQH/enQGeN3+iCqc25DclznvOcAc0O4Bg9Se/F3TR0HwRX+nDX6RU9etSjHjXgztDtIkdTlPEKpG+KMr6UgyBUBsvABUaMut2/8J/wrx0g5EOXQrgnwVHAS1/60r13vetdg9DzCk26M3+7RP9/wQUXDP8ubGy3KMycn9Mn58O9DDxx8MpCdUJ00BVNhN9EFLKD4H4I44sm2e3cc88ddqXCld6TBMfpsHgdS1DeYCrBCm8SvcZsrHjK0algcqdIr7nhSIJJlVMAS9xu8ru/+7v33vjGNw7HRy7uoiiycfTM1OZ3FXorB2GKPOAgZHm29rODwJmX9yM6SfbpGGt1anNujtyoF0dodI9oqbVMzzAc9J8N0K7Tix+OWSDwWvMiRvTw1Oa810HYdBlfykGAQOhegjgPcpzA89WE8wm56IFwmityKXyOgibfQChZMmB7YVMeQH6OU+DclbctvO72Rg4J71Lewlve8pbBgLgVkuPBORGx4KHbeVTNuxwCkQOwqv7ut2jGbOybQq/FIbws6sKA2nGAqd4GevFc9MZRlLkXSo75jflwpGUuJbQyItdff/1Cud3k+V2V3m3gAQchy7M1LhfluuuuG9a5TYhIGf1C/oHT0B9VYiqebvKct3rSDpku00DDc4BtVFTxkP9dpzfmMhY4MDsVS1PT45U94vBsi4zn+RhyEIT3RAH82YW2KfSuUrWxzDxtCr3LjHmVZ3eN3opXp8GDXnnmNDiLlsvkj+MIm4JV2mnQ2zvemd7V53dTZHzX5nxwEOxgnd9/61vf6qV/0s9tCr2yX/0h8Cu+AAAgAElEQVQ5br5vCr0nJTS7Rm/F19PgQa88x30Zzu1FExxrrtpOg97eMc/0rj6/myLjuzbnGwWU1Mv8+bmZAzMHZg7MHJg5MHPgeDkwOwjHy9/56zMHZg7MHJg5MHNgkhw4VQdBBvCd73znvdtuu22A3VUrrFpCcpssVyHIsdCSd2XBypKHeyCJUtJQNCBJ6whdrnNWZ3q3e34rWZnanAvVy7gXFo91ucwamBq9vXkTYzyYGr0VHTMP9m5XYr+MvMez2yAHFd2DgwC8RrY5UKOxZCEZ6EAt/BewURhfv/kTvzHynmHcGW1lTn7zJ5p/k70MIEXZi+RI4CLKhlzFLHEpQyMbY4DtKIdUQ3vLLbcMICXGroICgqI6a821z0FL+65/66GXooS3oPmvMaPR72hBlz9oBycNWTL+jv5toBft1Zyb1+ANvmzL/I7Rm+fcc9vKA0BncApULlmX6vxlaW+rjKumijJM82wdW7/bQC8ZtT6BeNHX1qn/z/LMQVAlpgwx9Hil/6a4zlfhQWXzgndTsmXGWumwHkdo/7GPfezBQx7ykKF+GWjRJz7xibLkiBBdffXVe+9///sHbALYCJDDwBx/9rOfHWrZX/3qVw8wo+qBGXh4+xARzznnnOHfo7mMSWavckP9KY0CnvNXf/VXA15ChkaGUw9FEbpjJPSZ+IsvvnhAX4TSxqngbHhX9OHWW28dusvvQirsoTcgNZVKAl+CUSAqAbtBSRbkO2hpkNOUfirbgQUB/0G9/zbQyzDkORe1gW9gvp72tKft/eIv/uJgLLeVXk4gHA1yRd6gXpLbbeWBsuZAU7V+gf/YHW2zjLc4DcpxbVS2gV6bLWiV5lCJuA0WTJUszyJGsc7pYuWZYPIBx7X6T0Lp1Nb5KjwQya7039R4YH6z3Rq7Ryk7DfvnnHPOgXsRrrzyygHVjOKvsuo5CHASXvGKVwxM+9rXvjZ425D/RB7U+sIooFzsQl70ohcNjsLYzXww2e1O7VY4CR/96EcH7IIx5ENKOS6KQsS9733vAVRJ/8bES+YFO26A1+B+h7gVsn3X33vorQAxGAv1ruhCM6AX0M9AmOy0ADyBfHbskdsU6QX0kuecs8dB+tCHPjRgYYjaqAHfVnrJM6Abd4OQNU4o6Nxt5YE1qInwwS1wn4BbVrdZxuk+sO4cBRsaDsI20EsHi6yqUHNxHX1IT2Z5Fg18/OMfPzgO3qFnbYAyQF3IRrvWN12vrcIDG+Cs/2wUp6br2Nhst2IDfVgUYf+e97zngZ0vDwOYB6UQFzHZObgrQeMg6IhHxgiGgwD5j2C1zU4LJjtl6n4B9zw84hGPOPMI9EQgKTwxBsZiFNIEj7wMNLIP8vjd4wCpC/QpcKUYn29qLR2+30Nv5SAIz4lA8Mjx621ve9sA9APgSBQDvjhebAu9HIQ85xArGUc7TTcwiiCZx22Y34peDoI5v+GGGwZZcv8IB3RbeWCnef755w8OrxtbY7OwzTJOX9Abopcio9o20GvtinDSgzZ11iuU3CzPIqoRRQF4J8rgvewgyEuZ2jpfhQciLln/sTFT44GNdGW3DnMO/PtokqKdNmS7COtzEHhjjgF4VW7mojwYSrtoZ1wEkHPBSFIw0BCdY0ITy03YA8yqPAIKSR4Bzx1oigkAWep7ji8cH0Dds/MntMJe3nFGZDfnXbscfck94A1DZ3NfRKZjjCn5ucpBsFN2TgcBjNNhd/WNb3xjWFx4gycQEas2RXoZzDznFghHyG7E4nHEUEUQtoVeMv4bv/EbA0y3CJI1IYqyrTywfq2nuGCNY8RgbLOMh3F0jGnDYlOzDfQ6fuX8vOAFLxicBPrKXTpZnkXG6F360rp1jCaS0hNB2PR1vgoPXCqW9R97NDVbJvG/slsrOQj55VUzXXsGM/YMlDS3wAkF7kLbFHqrOReOlKzkv45UQMrK0VilbTK9FV3bzINV5nGZdzdlzpcZ8yrP7hq9Fa+mxoPjsHlT40F3meNxMKt3wTkPlfToKGIX2qbQW825G9kcM4mcSGqVsyLje5W2yfRWdG0zD1aZx2Xe3ZQ5X2bMqzy7a/RWvJoaD47D5k2NB90OwiqLY3535sDMgZkDMwdmDswcmBYHZgdhWvM1j3bmwMyBmQMzB2YOnAgHZgfhRNg8dzJz4HQ5oHrHH1UY29jgcyy6bn4baZ5p2m4OSLxX7Qd/oi3xP0mqV3IQJGtde+21e85klS4qDYKHoORP+WNGQ2wJU5mg0kBGuBpkmbMYovIhyixl1iqnHGuS5eLZVZkG+EbJnsQ7tb2VIp0qvT20VfybKr0VLbvOg97z1KnOufwkFTWL2lRpO6pum+mdrj1iH9ki5eQwgircglXmt1em9r/ne77nQEmf+lhAR0oLKROeCyCj7/3e7x3gi8Eb+z3aG9/4xuGvSg85Ccod4R4w6BC4YBO0DoLvKbVQPqPUhscPwMPfYRlY3EolARBdddVVw7f9mwS4/K5/866yJKiOys+q5juZDjDLyvM4JrLvVUcoA1FyabzhIKgd3QZ6wU1n2h73uMcNDpAEw2c/+9l7yhmVeW4Dvb3zuy08eO5zn3vWXCppU4ap9hmwC+fd3CpZth6APlmLz3ve8yY351A7AaO1+uqKK64YEFUDHQ6EO3qnJs/mK3STcjq6STk3nBE6En6L3y688MKtWL90vk0lmqDwwmPQss7Gl23QV4w+2YTZw6Z+6UtfGlBolaKed955A+1K5b/yla8M9gmgVWAMsWXrlOduB+GFL3zhgdILSoRxZuwJKe/Ef2+88caBEPgCauCjMSrAkBhq7wOV8Mz73ve+EuyIQ/CSl7xkgCSOOxIIPyWl5ppDgSnqkIGWcE4YNtny+V04BxQjNEXKDmpi1G23hHN8Mh3GrU8T4R4HytTYKU9RjHAQoCFuA70wKDJtnD4lo+rdoSG+8pWv3PvqV7+6FfT2zu+28ED0Ls8lQBv129YS4B+yLrLHAQby9dKXvnTvgx/84IByOjUZB0ImE/xNb3rTYDChmjIe1jo51kJnTI02BgBmAToYT1EROANwX8xb6KZtkV1zJnr81Kc+dbAxQPk4Q1ln02HboK/ch+CKAetTlJoN4/yIbrJ1GntmfUKydJGhSww5h3izbnnucRL2r7322oO//Mu/HBABQS3zbDgGGSTDGQhwoGiUC0/Wjk0DcgREyV0Ny6AhWgAWuQXhHgfOAHAaxxT68L3cHC288IUvHBwEgD033XRTSWsFdsSABDCKIwznOyaCdxdO0i//8i8Pk7EN9Fa0UaiEjocqYuSiLMhp20Bv7/xuCw+g/+W5fMpTnjIYFrsyzsHNN988rI+Qe2uHEZ3qms76ClBXPmKYojy3x0Chi0U3s4NAxrdh/V5++eVDtIAsilC7xwYPsu0R6dwGes2jSIANMuhjkQP39gD448AD4LNhE8nnKImOA7XSjkueD3MS9l/2spcd2K271INzwJOpHATQsve4xz3OfA9iINhd3p/LPUQfRAdcaMTQEHCeEY/IDj28JxcpyRvgRfnDW+QxcxLkIPCc/uAP/mA4iuC0wPwXhrHrt2twnECoIDVSgNDBhKkcT+TnxhwEYXWQovqAmuZiFv1qPDyeun63gd7gaUsbpwD9+OtowVGNOdsGeinPnvndFh6Y1zyXbijk/AlnCt9SMhwJkTdrxRq3doQ6pzbnFCxdYo061qQ7OAh4AO1SaN4Gw4ZlarRVDoL16Y4ZEVZzJspJp27D+iWPnFlhdEde5jPQcjkPf/zHfzxs4NwBsQ30gi5nR2182UcgczYqnAPNemVDIZdmB2Hd+vkwxyD+ff9e97rXAYVhQcXNdSIDvDi39QHDseDiXoP8YSFM53+gkHk/lJPkw2j+LsEiki4uuOCC4Z+cuURY5brrrhuMv2iEnQBPy70Mdj+anAZGjNBUFyFFX/k5YZxMB+/MmeX973//4SiD4MU10r4jSdLEjSVHTo3edt5a2ggcr1xIE1T2WJsavcvM7zbwwLxVdIzNmx0LRcQ5nOKc0xGUKH3lbhRHohwElxExoHSAHAWOf9U2WZ7pTk6CzZJ8Ls6cEDM9SUc5zuXU2XFug+w6HqOj6WO3pbodl2Nb2Z5toJddY99ETETBzSXbF3bQET151hy323zbeC9qR5XnbgfhAQ94wMGP/MiPDAvOHQjC7ouMcO+H83PyFOzona+cZuvN5l51jJtC76p09L6/KfSe1PxWfNkUHvTO2arPnTa9EYav7gKZOm2rjn/Z9097Lpcd76rPz/T2cXD/3ve+94FEif/5n/8ZdtRCtMfR5CWYFH2cZuMIiWYI9Rxn2xR6j5PG9tubQu9JzW/F103hwa7MuXNrR5p2Yutu81yum6Ob9b15fvvmYyUchL4u5qdmDswcmDkwc2DmwMyBqXFgdhCmNmPzeCfHAclyzh3XBeq16QzYNXo3fT7m8c0cOCoHBgchru8FShRKTGVDtDEgoqN2uux7Mb5vf/vbe/5o8dthY9tk2pY5L58CDyR3ykxWrhSARZDAolRnmXmfAr099CjblYWtpEkZ01ibAr0987tr9PbIQKuvpqLDZNyrZutZv1OQXXMQOSsXXXTR1tHWI4ft+pXo29P2L7jgggNlYUovVC0Az+EkKHlU+qjdcMMNA6ph1ZQWKjmUjanUcN1N9qqsXkr24osvHsCW5BDI3rRTWQTn/PCHP3woedtU2nodhCnwQN09MBelrfJZyJAyWIiUyzoIU6B3GTm/5z3vOaD8jUUQpkDvMvO7a/QeJgtTmN9Mw3d8x3d0rd8p0RYOgryVHt00JdoOk8G8fnvvLRkiCKIFgcim7E9dJhQ2ZXAQ9tQWawyy+mMADhKDlGLADVCqwojDOPjXf/3Xs8bKYwPGA9pYcoh6ZUpESRIMArWu119//YCe+OAHP/jM+0CS1PF75r3vfe8AjgSpETgSDAWlMa2DkMfnQ5tCmzIs+A14qpQF2IuSM3zBN8AZyjqBP02NB4TPgiNDnEqoXyphci2v+Y6SLfxQ++y3qdEbpXSiJGrSlSIp1crz+7nPfW5wUDm2z3/+84e1ZC1Mjd7e+bVWd4neas7hukxtfh/wgAcMpd3k1R06Nl8qQ/L6naLstrRJagWCt020sb3sIpgAtjug9ZXFho4FU1Dp58OcCv8+OAiEQvTARyk7OOcWOjAkzoC66U9+8pPD93TEoGn3u9/9BrhlOAjq7SERQkOsGtALBlCdurJKhjAjZokS5CaiIUoh3PWJT3xiuLjCc2Noje34fGtTaPvCF74wCCfAJ86QnbYFaNGp277mmmsG3lV4E5vOA/C3cCXMqWiNIwaykxUMfA3zAViLg3jbbbeV92hsOr3k8Qd+4AcGJ/Xnfu7nhjlVPZHnF30aJLhwEKq1sen09s5v0LYr9JLvsTlv53nT5xdgnPVK97hjB2BRZUSnKLvbTJv5YKfdK2PjfssttwzoxlnHsuGVfu52EOJBdxoA5yAslCAFZ4crPOrSFw1073/9138NfwdH7CzDexwFAB7yGPJz/p+DwNOJVqEcMhruZ4gGeMkuDfa4Pni2H/7wh4fd9zJwzr532rRxaqD3OSLhEPD22iMG90IIfSkFnSIPsjOA536zywogkCc96UkDYiUM/WhXX3315OiFoQ70RKmsCBaAF4hoeX4rgzlFemMuW+jXan53kd4851OcX/kG0PtsvqDY0unhILTrd6Zt82wPwEFOKnvKflQ6dmz9djkIj3zkIw/suiWaAEmSTCWkCNDorW996x6hsPN3qQYDHoiGjgXGWn4OABMvGiojIZTPUDkIVQSB58PAMPCMq502x8SuhrfEa+I92aHLTYDoeMkllwwhbuGlTaLNeKFBgr91OQkHwQL81Kc+NYwZqmE4Xy1vN50HYwLoDM+ORKKT4yLHUo5Y3NkhWiW3xbzltun0uimRowyB0vw523QfSJ5f8ghDHTwuujm2VYRt0+ntnV/oo7tEb9xH067pSidu+vzakND7jmzpIPfgcBDy+kXv1NbqNtNGv9A9ov/sMhhyx+yVjq02cF0Owt3vfvcDBl2jwJ1XOEeDAS6EypiD+9Q4EZwHeQZRTVB1kp9zNhmXOjmHBZF697vffYg2ULT6lMDl+KFqiOYUxPj8vcVZNz7jdLHJq171quH2Qs34N4k2GPIiBM7oVV8EHXgpSrMocWSTeYDXkppEdZTzRbvDHe4wzIk8EMZUzkXkYnjGrjtu9szzvsn0kmXrwxxaK2SXcRyb36ANb6Yo473za77bdbnt9JLnPOdjSneT5dn6JM/+a/Pi4jy70Wr9Tk0/t7RZp6LiNifbQBt9y8axHaLs7CgbUunYSj93OQhyEHoenMIzkhmdB7d3QUxh3Osc467xYKZ3ndKzed+a5/f450SY2hEnh0eUy270ODA7tnkut5W2GSjp+Nff3MPMgZkDMwdmDswcmBwHZgdhclM2D3jmwMyBmQMzB2YOHD8HdsZBcOa0KG/i+Fk99zBzYD0ckPfgjxyeqBpaz5fnr8wcmDkwc+D/cWDUQVAx4JZHtbGyze94xzsOJY8AfVQgjFUxSJBQ9nWve91rKAOTNCjb0j3Y0STBSKw4yXbY1bDbRu9hvJ3pnaY8wyhRMgyL5IMf/ODezTffXE71PL/TnN/D1m38+67PLz5kHlS8q+yR55TxK7t/yEMeMmDSHAcK8FHncpNo23/GM55xoDY9mnI0eOrgkwEkgc/1R/Y1cBjITS164Xd913ft/cRP/MRQOys7lDOgPEZW9ytf+coBoUumOtQ8OAmaqgNJMPld/yazHxYDZ0S1Q9UglammUFoGgOav//qvB3AIZZLKIG+88ca9+973vgNADXwG2Z5KLaE9qmqYGr2qMqBH4qm7DkAZ47XMVQ4cmt/2trcNDt03v/nNoUQpnmNQpkavOX/MYx4zIDNyJN/5zncOFQMxlzJ1IWvCIuC4qppRFUMelLZOkV6lSpBJlRMz/OqZM20qgMi1cialaFrUPU9p/Rpr0EuuJcbJxs7zC6V1W+S5h15rNes15WlTk2eIoi960YuGUnOlkyqYqt+qda70u4de1W/ZRnGae+yRbH9YLJxrSKgQJDkIR7VHFW020lk/02ebRFuPA7N/3/ve94CXFc1kPvnJTx7KD5VGIF7dOmZW4ESeA2AErCHua6CkgcmIMiibgbDHgaD81PlzAAhPfhci1FOf+tTB0IFjhm/gv7mZSFDQr3nNawY8BBEJiHYcBXW8IhdRQmdSRECMT3UDgzM1eqFIqi8XhXn1q1+9B0BK6SgDyXnDJ44b5cJg4IeICT7/+7//++TotbgASQGh4ZRy/ESkYi4BTZE5fFFyeMEFFwxYC/AkyMvU5pdzy9Elz7LJRd2e8pSnnEWb9ULBcMLBlr/jHe8YHPep0WtOrVe4KHaBcCIYwjy/1vk2yHMvvQDqsl4D6z21+eXscfDJK3AtlWV27Pk3diKvczajh14bgspG9dgj+gJ+CRvBHr3lLW9ZyR5V9JLbrJ9tcjaFth7nwDP755xzzgGmRrO7p6zU99qtwB742Mc+NuzYlkEvpMhA6ooaqIe22BmruIegCo06V4Vbb8fMuEH3GmuiFPCnn/WsZw3fvfLKK4ddCMdD2EgkhDdqd/Lxj3/8zE1e6mCnRi8Y33CG3HXAcwbRnAWQg4ZvIjwuz/Kc+uap0cs4coA4OdEca+W55CBkuO6///u/nyS9gGrCwRZtA0deQZFnwJOpzi9nlrMLhI0uANee51fEZFvkuYfeACdq9doU5xfWC6A9zrsokGiCHLD8Gz2d13kvvaJtlY0asxetPeKYKO20YVyHParoRVvWz6LmPbr4JGjrdhDOO++8A8Y2mouZTOpjH/vYYZfmVkdnnu5BQJwwrlBggCcNXsb/nzCVO7XTZdiE9f2BhgiFzu7HpUsaJR9/ZwjBfvrjTgg7YaH0/Jz/t5t2dEGJQOujUH3LzYEck9e97nUDhK9xCr8zmI4YvDNFen/pl35p2B0TbrxhREMAheDxlUeMfvPFS8YD92VMjV6RJA6f3WW0n/7pnz5rLisHAULl1Oglu47ARINah6jHQZjq/NphcfoYQ46Ci3TyWmUwt0Wee+nNem2K82tebSpvvfXWIcrljN9mJf9mA5rXeS+9NquVjeq1RyKSotrrsEcVva2DEPrZkWGPbjoJ2rodhAooiefHyELBY5TkEghxCwcZvF06Qf6bv/mbM/DGzrxVCXgOwzgNdu4mQfSApyZcBmpWuB8oB4eA8b700ktLiOEgIj+nL8ZBaBJ2OAUjbwKcs9CRaIdzee3Xfu3XhjNq3iYFTOnktun0Gq/FxFlDFyRLcwOC+j//8z+H83fhSfPDuROi5rVzGKq26fQKR1IqFIAsfccnHMWYS3kqdp6Vg1DBdU+BXopKiJ0DK+omB6fHQZji/Dq6JLt2So4vXQ5k55jn11rdBnnupVcOQtZrcUleO8+bLs+iQWTYcS6a6CZ3+eTf7ODzOq+g1yt66fRso+SsBdz+InvEUJM/4X6otjbCq9ijil6bs0o/99ie06Qtj2/lMkfhFQZfiHQX2mnQSwDlZTjL5CCMJW8eB/9Pg96KDgsf/aJYjlDcESKBbd1tU+hdN11j39sUendtfneN3l2T5+Og9zTW6soOgt29cIoksV1op0GvREzRGeG6k26nQW9FIyhTkSYZyPJL5J0cR9sUeo+Dtuqbm0Lvrs3vrtG7a/J8HPSexlpd2UE4DkbM35w5MHNg5sDMgZkDMwdOlwOzg3C6/J97nzkwc2DmwMyBmQMbyYGlHYQf+7EfG5KplCRJvvmhH/qhAX9ANvLcdoMDyknd+KZmX5JP21SeKMWsko2myp1eehc9N1XajdsRovwP1TFzmzkwc2B3ODA4CO7MVmr1oQ99aECsG2sy51U0qGCA6ifjWqkdJ0E50qpN4g70RneRKwdRDaE6If+miiI345C5D+hJzavMd1m0soLhOsBz8D0ohFXr5UF+V4WG8anxDcCiseqB/O4U6Q0alKUBvooy1Ph9EaT1LtA7xpfgzxR5AE8EyE1bhtm71qdIb0XbmH7ZpjXdO6ftc9syv7207xq9A5Ki7EgYAcpQGDfARrkppVOjqkbdTgLildKQDNyCgWAsJdVJXLTTZESV4AHF8DuDalcCQS6ackcllIw7ZCsGHmSyd/Nv6mujnAWEqVI/TXmIckDljnayyiqVwwWCogQ3Lb97j3vcY6+HBxwM3/S8xhiG48EJCQdBlUHmAeyIbaCXA6Ykz44SzXAo1BTjMZmAmqls6Nxzz90pejmtmS/bMudkPRwEyKhvf/vbh1LbbZVx9JJtwFV3uctdBt0lKTbrlyc84QlbIeMVvTZS26CzVT3ZvNpo0l3K7SX7hb6i9/0GkTT/NkUdRudIagcyeP/7339IbAdnntdqr0O0/4QnPOFAiSIl/5nPfGaotbeDzw3mAJAeCwagiTpPNbrZQbCIGGA7chgIADKAwIhQMNoMOKNSXY4hZK3m1a4f/oK7FDyff4tad7s1WAvRgAdBVnTk8YY3vGHviU984oA46CgELjZ416CtfdeRSQ8POAi5Np1hUK9PyMJBoEwyD6rIxRTpDd6bm3AQ3MVBJjh04HMBOVV4E7tAb8uXahFOkQcc8AsvvHCA+IbyCMCKM7itMo5eGw+bFHX6jstgq2T9UpUbT3V+M72iw9ugs+EhAI1Tis8mwM2xucn6KoC6pq7D6BwbeOtUGTiYa/q4Z61W+mr/bne72wHGQRqE9mVBjLXsDHgu/8Z7AZfs4gy7DsZDtCCgRuPbjK3+otmZaIA15DO4jIbxB2qRf6OEFzU7e3+gN8a7cicotTEgnR4eVA6CHbMoB4hfGAWiI7zSzAOO0jbQWzkIYzDIu0RvOEStg7AtMs5gAqUJ5WN9Vut8W2QcvRExqfRG6BdO0zbIeEWvud4Gnc2p64G5timtoNynNr+xRt1UGa1aq73H4Pt3uctdDoTMvWCXLbcAep0jBREARs+FFpUz4LeArBR2hKyI0Y4RhCC9K2cBeiKPhncmcvDhD394z50IEPOiOa4QEnH7owtLRCwcFTh2yL/5NhQsZ6KeEQpkqOUtiGCA5fWHg+DqaVERux70CL1k2kQ7enhQOQj/8A//MDgxGuQsaHCB4tXyAGLcNtDreAe6Hd7zTIWvoGdaiCBFOZhgod2Stkv0kvHMF2HLbeBBGBBhSkeB1gEHOK/zbZFx9IoougeC3qA/5DNl/WIXui3zm+l1HLsNOlvUW3TXFQEA1uSKOSrP+oqt2AYdxobSv2ydCD+7KqqV16obY3vaaBWDsD4P2T0JEUpznsMba8PHjKu8BBncdvycC0cKktfALQtVCfmbFNCqGk8tnI48SJdogF2FqS8KoVW/yWewgC+55JLhGUbfUYEmJMhAcRac+4siCPvHzZAVbRWz8nMiIZI4OUW+j0bHJdGE5DhJ3qt4UPUxNXo5eA9/+MPPkEIW5KzgMxkw334TrdklekF5Z760stHyYopzzoGmcMyz+bZ+t1XGRQAdT9pMMJTWtA1J1i9jCnZq81vR62KhbdDZlf2gp0JfSWx3/GAzl39zDfTUdBjU3bgx0kbc0Tb717tWM71Llzn2eB0n8QwjzeuVSLMLbaZ3F2b59jTOc346c75K1cYyI96U+d01eh/84AcPtsMGUuRPgr5IQ/5tUUVfzzxvyvz2jHXsmck6CKsQPb87c2DmwMyBmQMzB2YOLObA7CDMEjJzYObAzIGZAzMHZg6cxYHZQZiFYubAzIGZAzMHZg7MHOh3EJ761KcOGAQSdWQna9Vv+YtK/iQOSmqS+CGzXZPMKPHHLWayglc931n3XM70bvf8VvIyz/n2zDm985rXvGZIygLQpmJqW+b8qHJK51522WVDdVqri3v0+Jh+ffKTn7z3nve8Z++qq64acDHG2iaNOY+xN+ei92VyzV0AACAASURBVLkx29jD5+OYo3Xaxv1HP/rRBwQo2qc//ekBLfCnfuqnhjK2V7ziFQMmAYCk/NuXv/zlIWNf9r5FqdqBUwGIQgao8hLliioI/F1GMHjeW265ZSi/yO8aA8QryFdAjSowJc+AdvYd5YTwB4BAqHpQTaGyQOkhhEOJJ4CMZJMr/5BhryRxavSiWSkhp+tf/uVfBrAn5VXAPfAQn1QOoC/zQELONtBrjpWyytAlRxxXlSx3vetdB9rJgpJL849mlTAa51blzdR4IIEq02GuKx6o4LEOKDQVPGifGr0y6TMdKmF6eCDj3sZDaXPguExR7tc9ZhsyaI9vfOMbB32q6svGrEePV7qYDaDPbfCUvKoAoO/XKWvrHnNlLK0T/ahOCV1ibWXd2ToI9C8oADp4avRW9qPXidh/4AMfeBDK1EsMEMZQvJjHyCpT9P/5N4beon71q1+9d/XVV58pXcREoCnf+Z3fOeACAB0BAUmBQ3dSg8mo5XchEkK98keJBk/1E5/4xFm0qMO++eabBwwEhkI9smevuOKK4Ztw0wGcnH/++XvKPtwdYXcB4EWJ1tTojVrev/iLv9i78sorh1peCvHpT3/6EKFR5wql0txlHjCO20AvZ0CWMZAa9L/qVa8aIFPNNUyGQLE0/yBTI3IFn8NvU+MBJzvTocw284BjTGGTAbDi4J7xamr0cvwyHeS+hwcMFzh2sq6Ume6wM9tkHigB//Ef//FhY8X5lU3/2c9+dq1j5jDZiAGBw0e8gSrbo8crXWw+YAkEZg7cF39fJ5/XPebKfrBvnJvXv/71A5AfVGAb46w72Y4AzGI7bJhtOKdGb2U/RJR6WpmDwAATYKBHDDDcAp3k3ypUwujULp/RApZEsWE0wCOIiYy5i6Gqpl6TMAM4yjcFxvPglO9whzsMToZaXQrBBPOSRT8YTyEw/855YVQBvPhv1Tad3l40sK985Stn8aBCzJoiveYto9v5LTsI8Aj+6I/+aMDQsKg5pVOccyVSmY52R9Mi/MWzz372s4do3RTpNeZMRy8P3v3udw+IruCClazBYtl0HliDH/vYxwZwLfMG1rmCJ19lreIJhxo/vvjFLw533DB6vXq80sXXX3/9AGcvIgw/YN18Po4x5zFW68hcZPvB4eRIgNcXpeJ8T5Heyn5E2sBhTsL+hRdeeMDIRhMtgBgG9IWH+Du/8zt7f/ZnfzbACeffhGgWNbjXdgVQqtwEyVNj+Bky2OYa8JH4DkAHRxr+cBIsjjhmaJ8D4CQcxAPkdPivaAGviEMjWsATZRyNH5qjszh/F5afGr2OcNCHL2h19ocOfGyxw0VeMg/wfRvoZfgDLz5kSBg+HASXkggvm3ORK7JEfs29d6fGA2sj0yEMmnlgHaHbPFv05GGKMo7eTMcyPMiQ75vOAxscR7IMT7TjGDNQIAB1sel60IMeNKrHD9PFwuyOm0XnjNVmzzpb99pa55gr+9E6CI5KRGbRlnUnB4FxhcJow8lZ2PQ5quit7MfYxinb8zKCIAQlLO8817k2HHZn3vk3EMdxMyKjTeCFRuFAWwDQ1ihpIUAeJwhT3yGsjhqqGxkrhyM/JzrBAXBsQUEyGG7egjkNEtWCEFqSy+BcT3+Uzxiy3abTC8HSzsjCsUN0bOMcDEhUe4MiR6ziQebpFOklVy4eIXPGD04UP8iVW9o4teZcZIpsaJ7FI/koU+MBNL5Mhyhe5oHjBNEExy4uabHe7BanRq/daqaD3PfwADx8dU/MpvPgsN2bf19lrdKbdCAdbmMhT6X6XqvH29tx8/joF7qHoTRXInRV26QxG1+2HxwER3J0qXwuRzCMaNadNssRtZS/YRPiaHudcrXuOaroreyHOe9pK5c5Si4iNC94wQt6+pv8M5tCrzsqeLiSOl/+8pcP4S+Gct1tU+hdJqN45sFqHNiUOa+oOCk52GQejM3uPObV5P4k3p7aHK3sINi5CW3LlN2Ftin02lHbNfKC8V6C4nG0TaIXzc7lT7rtGg82hd5qnsnAScjBJvNgTP7nMZ+0Zli+v6nN0coOwvIsmt+YOTBzYObAzIGZAzMHNp0Ds4Ow6TM0j2/mwMyBmQMzB2YOnAIH9i+77LIDIEJqcKsEDCU4H/3oR/ckAm1zkzypykKlwLbTusw8SoLbNX5AQFMqq+plbtPgwC7KqZlZpJ/JMCCj97///StNYttHr57ctvk4CT7HJF100UUDsN8m2OT9c8455wBOgfIXGa+5qaNVqljV6EqUA1KjVOe///u/z1Q75N9UQ+QmC18murIMQifbHMpXz7u+pUpCVjcmfvvb315pAcTL6nthOwDD6G3bxoNMt8oVeBaL2rbxgGJVvqVktmrbRu9hsj4Fenvk9DA649+nQG+MdZF+XldCZ+6jR0/2zMfM51oiATGdhk2uRjMcMeQSoSi9gEYmSx5Cm9JC2APRlM0w0sqT7LSUVwHRMOn5NzWXUO+AFV166aVD+ePzn//8wTGAlaAMERiTuvaed9WHQ8eTnKfU0fcghuUGNcy4lD0CwlATr0TnSU960uBVK8009ttuu20YA7qNSzlkywN84LhMkQeUBO+XwVPuBzfCnCrbgVuvxAfQlFLRzBelP7AvOH8aHpGBqclBRRuZVCIpq/hTn/rUAB3LWYX5oUEo5Bh5d2r0KmvifAPh0ZR0gddVt/7mN795KJmFPMgByrJB+U+NXlVUWU5FgYCm0Udk3/zCw9gGeiv9DKcm02aOo0yPHrT5kcxsI0inhV6rNn9VH9ZH1pOVrKlo2wa9cRJ8rmwUuICTsMk9DnPpIACFYDwY9Le+9a2DQiFEELiiQedSo8zYMLTuRvjIRz4yYMXn3wJxMS768A3GSK03Jc1JAPDS+64QDKWnHzgAvFX3L+QGXEifwD04E7/3e7831MqrF2cYVQCAa1YiiDaGMhyEbeEBB0F9L35Ba4M4+b73vW9w7jRQxBSLKE/mi/mFgcHYaIFQNzU5MPZMG3kTgSIT5MPcf/zjHz8j4+iOyMnU6DXnYHw5w5oIG9AxQDAPfehDB4fYnQ1wSSrZmBq9xpvlFL02DQDSrH24K9tCb6WbOAh5LunwcBCAAb3kJS8Z7iDIup0+9Xs0myZw+WM2oNWTlaxV8+HbU5Ork+AzHlc2KjsIx2WPDnMSSgfB4rKjpzAjvOQIAopUtOuuu25ASORB3nrrrXuXX3758F+Y6vm3ClYZKhzB5OUTYuiHoFV73g3QJscL4eVVhI5BTDIWwJxy4+CEg7AtPKhgRQGnUCZQBx/5yEcOcNj+XvElhwoB9UxNDsJBaOecbMCbB5SiuR+kBdIKuqdIr10J+jjIdtCO7+zo4lY/647zz0nM8NVAbqY4v1lOrV8QufQSubaR4CBsA72VbuIgZNrQCw6Zg/iud71rOCqu3uUs0qnROFY/8zM/c5YNiEhDqycrWYPHsg164yT4bC3Cs3ElgEi9PECIqNlBOAl7VNnQwUGwcxeCAuFLYTIaEAhvuOGGM7DHlCchjOYiJ+iFLrsQuvyVX/mV4Q+FlH/753/+5+FduxoOh90qFDwKTF/+jRLTZ/UupyEgmCFAeddOCNIVA8iRkQeRn1MvDV/bDkKINXYVaCXAwm3CZvqnPCUpCqF98pOfHG5B2wYe4A/DaI7gJgihMxYUpnnBd8cnEhEzX8y1+XCkQzl85jOfGVDZpiYHjhEybc74yATHlAKlJNtjqlBwDObU6AW7HMcL5g8t1iWnUBQJAh5lxJnPsmGOp0ZvJaeQ/ioHYRvodalQ1k3mLNMm4sdpEBH4kz/5kyFSyvnL71ZHDFUfbu/NelK/WdZEk7dBb5wEnysbRS+fhE0+LHowRH04CLxH4UiT7VY8xt/FRpQKgwzO2G1jVXOjIG/HfQqqHbTqN9EGIDcugNIoXgLtrNflTRIUx941LuExN/hVCY8xruq5PBa3TMZ1nY4Z0CpHQSgymhC8xRA8YGQ5KCIWU+OBsdtNyj8QJbBzFD5kLOQW2EUG7GbmC1o5B5Qt3jqOGANk2mQ5qOYcbSIIFKYzP7IQyakcKJ49wzrWNplekbi4mIyycZwi8fLiiy/e+93f/d3hWM2u2hFLlg28mJqMV3LKaHH+YezbkQnlkuFtoBcdWT8D4Mm02ZnSzS6zYuzc3UIeevRa1Yeob9aTdEiWtW3RGyfB5zGbdxI2udtB6Hlw1WcIMA/WDmYKTZmJhC33SEjmcZdDXIRx1PGfBg/Wlcl8VJrze6fBg96xm3OOMofRDmgd5Z2bTO9xyMZMb6+0rfe53rk8Dr22Xkrqr22KXG07nzP3TxQoyW51XSWJxy2UEmpUVQjTGfPYFbLLjuOkeYAOfzaJ7yfNg945ijnHq3Xya5PpPQ7ZmOntlbj1Pde7zo9Lr62PkvEvbYJc7QKf2xk4UQfhJIRo7mPmwMyBmQMzB2YOzBxYnQM74SA4a1bzvSh/YXVWzl+YOTBzYObA5nFg1n+bNydTGVHpIAitS+6R5fyNb3xjuEdck3GprFACn6zvk2qSY2AxGI+ESSWWi1qL/KUMB4ATHIC2jC2/D1hFrfBhreJBD1+mztPD+NL777vOP5gTbj+VnLsscunYGpyi/PXKyyrPbYusrcKDXv1X9THzbxXO1/Zyamt1cBAYL6Vg//Zv/zacvVJgEvSUQwHLociUt8nklwX98pe/fCiZk8SV38VSBh3IDPAS71VNhijhBWAie/7rX//6UMmgukFioPf+4z/+YyhfVPIBAfDqq68enTHnUyAqJRTGOGXs+k2TwS9D2xkSFEbZ+RoaIK39/M///ECbBkDpjne84+3KvYwTjzIPjLWHL1PkKSAqpaPmUwmgOdKgYuKfDGblknjMkVReZ868p7XlcrvIv5ZXatJVkmi5xrmSXXI5Nf7BNCEXkE2tC/KCtpAhETy/WW/WqSZbG3BT+9wuyNoqvMLHWIMhV9X38Dfrv1bW6Fbrcoq6bhX+sS3ZBrB79BcbRB49Q04lpqtusjnFL7Kd9Z+xbNJarWxylpde12dwEJQgqpMFKkLhM5YUPQcByhz0PQ0j/umf/mkPBC9QJIAZ+V1wxMrElIHddNNNA8Tx3/3d3501HiU5D3zgA4cafKWVqhsoDbt/SF1wDsABmxDlWDAX/K7GljHK7dGPfvQAiwsQRFmecXN4/M6hCQAkgE/6NC5NH0qiAOKITmjwFVw2okwoGjhe9cOZBxZXD1+myFMZu8pL0S5MqZKDswDaFvqljH+AKuCuzbXflbqSIe/sOv9UQyjNBTrGQYQDwvBnB6GSXYpqavyzTq01+AOidRQqjBLrkn558YtfPOAvBECaKCXMEUBq1vkuydoqvBK9zXLFIcu8V7qb9V8rayCRbbx2TdaU7GcbQM+rXOJQcXLpNgjBbNRv//ZvDzD9SsQ5C1n/eX5T1io6sk0e00M9TsKZIwYCxhvVGFFMwEi7fIub0eeZwDEAV8wQBIRy+66/cyAoA5PAOYg6+3ZAlYNgMhBjJ28XaiehppsBZ6AcLTD6xne/+93vzOfUOfueoxBOC+MFQrdC/vItiwtyHvyFz33uc8N3ei4XsQAzDzguPXyZIk952QCjgEe5ewOoEMeJoRNlEfkBwGTO4tItwhnOYxbAXeOfyJeyst/6rd/a+/Vf//XBeeV8ZgcBmNeY7LY83HT+GSt8BVFH8kBWyAN9wDGgdMmNOwIqEKNdkrVVeMXxquQq895RsNYiH86y9n/2vvjFL55lA2z0RM1Fu8gr58ndHe7w8DuAORvPxz/+8WfpP2t6U3RdjKO1ya41qORlKQchPyy8QsFRSnb3DCGvlzflyMGOkSHQ/JvIgmZgUOsoRLtL7wcIUvtc6yAA4JEj4N+hKwb2f4wpK9SKMOAvxiAKADkReljlIHhXuIWDAZfBMYjnOAgcB+ElDT6286JonAnvZR4ILY3xZeo8bWt+I68DyJKdnzs6NNEcztujHvWovT//8z8feMpBk6uy6/yzA4EUSsY4rBxcgGLkWS4Cx0urZJdxnRr/wui1kNZkCECTiJ4jQkd9NgKLYJB3QdZW4ZXwdyVXPRDys6z9n2Fjm20AwDSOlzt9wFNDWSWrNkWcW3ch2PC6syLrP9HBTVmrYXNaWzumh7odBMqchyQ64HxLyBxssv++5S1vGXbaFBYjCorVHeMWvDNVBsMRgSOFOGOtOs7P2UXoAzIfYw298B3veMcwCXIF/IFPLZzW4yCAzuUdQztkrHxb5OJpT3vaEF1wPPHOd75z8Ap5gpp8ByE2YV+hN06KHQ7ER6HP3CoeiHRUfNkGnlYOApx10SU8CwTCgNx2TENWLK7YvbQ83DX+kXkRFmid4MEdM8Wa4cTayVDqzj+z7Fbwt5vOP0dN/ojoWUPojst8ROocG1qX0Ph6HIRtlrVVeCUqm+WK4cq8p6ez/pODELLmOJgx3DVZo+OzDSCn+CFHhvPFHjl+ZktExEDSQ6IUVc36j5xvkq3ItnZMD3U7CJLv7Pjtaua2Hg7MPF2NjzP/toN/vchzq1G72tubImsnwStJoaKeNkp2x6LDbvlcpe0S/1bh09i7m8K/anzlbY7HwYRd+2ZP1GPXeLIMvTP/luHW2c9uCv9Owuitxqmzq0pW/d5R3z8JXomU2gELnzsurqIHy45/lrVlOXb75zeFf6MOwmrkzW/PHJg5MHNg5sDMgZkD28aBnUBS3LZJm+mZOTBzYObAzIGZA8fNgdlBOG4Oz99fCwdUiiiZk7g2du12T0cSkCS+Lkqo7fnO/MzJcuC5z33ukEAMX0MCsGTpdbdl+xiTSXguKrkkEkZVVIw1+oD9cJJtinJ/2Hws4nPF20W8l3y4Trk67HtHnQ8yB6vBEdHnP//5M2Qe9XuHyWC3g6DmXSan8hCDk5GtyeCHVQAQBZiEUpHc4AQod5QIGaBIFnv+zXerFhUB4JCh9y3T8rsyUwFiRHvd6143ALk4B1KKppzFOCxw/wYLQn32Ix7xiAHw5jGPecxQadG2/K6qCcBM7klX7QGUSfmn7H78Aeksy1sVQG7ezc8pq5FtDJDDvfYqLwDRKL+B/iXzVj+AnKA6qkGHFwHNUrVIz5grev22Tt4vM2/5WSW355133iBrFURx77dbGO78jgSuSp7XyQO4IgCBzAlZVqlD0eX5JT9ql9Vnm/Obb755KMOtWpa/O93pTmfJhvLhACZThshwASfK8gILped7EEmz/AGRWSevWlrpDUBdMDcqee6d/0XPLdvHIpm0Huma7IhGH4DoTrItkvuTHMcyffXMxxifq37ie8pErXOyKkFTWT2cn0quGGPVbfBz4CHQweygipwf/dEfHQAFf+EXfmEAQlPOD0ju/e9//2APF8lpzIfS/KxzJJHm8Rmzsbz5zW8eqv3cLaQkM1p8j95XVq1ygR0ztjE045652H/9619/wHArZ5S8oqxDg3YWjeFHdFy36VlMpawxRukSRcfoKcFRHqnm+4orrhiQpyzqa6+9dijDCQdB2Vf+DUH5XWPgjamxP4qDkN81Ts4NJwHY0yWXXDLUozO6yrM4QDfccMOesslrrrnmDAocRruTvJr0/C4jz1tl6AFGhYNgLHjnXgm1uLfcckvpIOTnlGjaPeOpEjFKR7IRpc9Z4YARTr/BJPB9oDQcEHDTPWOu6OUcVbyv5qgStvyupKgsa+SB3MBT4JAohyOHym5FCswTZEbzn5N5lP3ld5UqQQTlGAEfspiBnwA8MR4OGrmrkrOAoFTyvE75o1TIkd1lrCdXief5DehhsmjOGe6xK6iz/El2y7IBiyAcBDKj5JdDlOXlD//wD89aC9X3KvlDxzrlJWSKc44ec2gsHG8KO+bXcxwdYyI3ZEIpHywX2fr0FKWpdDme46TL4h/rI9YMPWedUrxZ1rybZRKPza1mDVpDVR/VeuE4KqVTKhxyb5w2Usaj0SnKYwH5MFj+zlGzfjIPxuR+jAftmDiyVb/5XXw2NkZLFRyDbQ1mOqzfnnejvHxszkWQzAm+Zz5Xa39sfmN9cOKUGtOhIVfRBz3H8LIDHAE61kbPs+htHQQON91u/QD6Y9/y9zgPWQ+R0axzPJfHx+FAM11Ah2rV/IIMMEYomuQCICA71zPnlUzuX3vttQcUsV2yRaB+/QMf+MDgCUWDJ2BXCjxI/ah/xwjAJ3Y4FgUGGgigIorHDkitN6aaOIaY8ISDoLQj/8ZByO8aA6/tta997Z6dz5iSHPOG8rsUhfGLFFiIMLbRwjPjwOjHQrVDwlSeGkME/KfKMjbe/C4HATaA3b1ISTgIhAF89eMe97jBYyUsuXm3ei7vzDzD2RFqFfmwG23HR4FoLgXKDkI15oreMd5Xc1TxP/Oek5VljaPEM/ZNkYHnPOc5Qx0yg8bwUcqQCL2XlbGFmt+lWOAxcAIsJN8knxYTJcUocEQ4EPqJRi79VsnzOuWPsy1aQD7Uqf/t3/7tgAVS7bxFAhiIRY5xNZeVbAQwmdB2OL54FbIR8gI1Nctz9b3qt3XLi+8x8JQxg+l4iYwzjIwEMDSyYcfFOJlva8p/YbpwBtENIlfEzWaFQ2TdMH6cLxuaqo/gi76VAno/yxqdWMmkeeOABbx7RUe1XkJ2gY3RnWjxLfqI7tToE8/Rw3SZqCFkW7KUeSAcneWe8cg84GzltcDZy/3ifX7XuqQzb7zxxgEbJVAHrcGWDsa2510ORzUfnH4bB3cAARuzacp8Nr689l0TkL9njdMtZNi8kiPRydyHyB75wUNzTebwP9ZlOAh4StbIF1kLHZa/Z/OZ5wPfs85hL/L4yCv9xPEQ+aNHzFv+Hjm4z33uM2wSyTk8hzG5H7OZ7e/7z3ve8w54/Qg3gQTbICiwaCYjzn2FLuwETRbiKE/ek8GDnBQKzY0w64MxINQiDiYk/7bK2XIPsZ7h1HBaOBoMPwVB8VDavEmgGIGiRSG4CTLuqKgcBMYnv2s3jjZeoN0vnhKiMPycMccGVai8dRDa5yoDwokzZxwnO2X0iI4A7hBWwusq6lGNmXOW6e3lae9zwLSyrJkLi5qDI2wn4mK3zCHjsFGUnDkLMCvjUKjtuzDRQ7lH2I2xcDzEC4/f7OzaC1bMk3nukedeeqvn7HosXArzGc94xuA8WhdHdRDG5jLLBmOBt9aq0KTjM/Kc5YWcVmshf09otvptFd5U79oRMdDGzmhV4F0ccfOOr3ZNdJBoQgZj8n2bktjVcxhF2Ko+8IVsMkaUbSVr1sxYiVoLb6zf3EdFK71rs8LQ2wGimTESiXCcIXLImNlwodkcRqM3Kh5kufde5oHoQ14LIlhVvxX/MoJjRYfx9bxb8aqdczDvZDhg/ls+V7IhUph5L1IIXZDzR8dwigHehd6IPoxF9BvPA1yKwc0OQswBJ5ueEkmoxmwN5vlgK7LO8Y08Pms2y5oNV/6eTT7H1BjJDJvGMal437NW9y+55JKDSy+9dFAKdlcWAwNDgUWzEAxap3aaDJsdGiRCXpSQZXjvdrQUB2abPGFuoRaM1jCOQAXz2994X4SL52pXzGsba7mPHmI9A5eawTBeNBgLw2q8zvIx1QQbe97BBWysf9c4Fo5i8rs8Qs6Ai6UYaTylePFAyAcEtZ2xI43cLKT8HCG3U/AtniRHilCJfjCOdheOH3jKOVrQO+aK3jGe9s5Rfl8oLcuaubCDRiPHU9RGiE9eCIMgehX85h3zrC1YDq2FnN81Z9lBiEu2QHrbcQa8dh4fo1LJc8WHo8qfECFYV/ItSsJYibzl+WXceiII1laWP/KRZYNjFkcMFCMZFMXL8tL7PZHG3IdoyJjh61nT1bvOYhl+8x26Is+vuSALcjQcF9q84G12EBhCBoH8kC3rnX4a60O/4aAylpWcZpnUJ71oY8GoOGP2W+4DLdU6Mi+cL3rWxgKPbco0Opr8+jf5GPQwvUyG5KtkHnC46fFW7vGq4kHmfdWviF1+l2NhN8tY4W/A6mc6bCZ7363mg8EUfcUDkRXyl/mM3iwbAaPfyhAD6kjP92wG6WRykPvwDJ3lXc9xPB1rcTiMQUTB9+3QRfLwmd4SSaF38/dsivN8sBVZ56Ajj88mPTsI6Mjfc0RrfKCfjUH+hHXfM+fV+tv/4R/+4QPCjwEu5DEBVQKNTnjymnsYhOc0O267YR4dj1wj0LD67YBzI+AMZttH+xvBtIAplOqSp/jeoj4WOQuYL8TqD2/dWITFAhffJJhYzlKElmMs3rUwo3EuHBfkdylooR98Ygg8R9kHRj3lwRPlRMS1077JMSNE+bncrxA5gbTD0I8QIyH2nPfNY7TeMVf0jvGxd47y+7zlLGscJ4oU7XYtHB4GnNPG6bGb4oiFQkW7/kM55ncdGwUP7CbtDigushsGzbzbOVatkufquaPKn2/JTyFjojzCs+hu5QqNxpflr5IXdGX5s6vIskFOyTbZ4KRxGOxKsrz4Vs/36IPcx7rlxXgl2gYsru+3Mh7zi1d53siZy9448HSVsCwnWF6U3RTeczYp2EV9uLvAenamXskpI9/KJAOcdQT5zX2gpVpH5N73bATslFu9G+vcu0GHv4vIGl/mge9Xcp95UEEFH9Zv8I9ujM0ffoYjl+lox7zo3bE5x1PzKQJo41XpNbojr32OYOY9p8a82gzajNDRIuC5DzrWnDO4rY5t55dTah3ZpXMaOGmcthhfO+ax+cjzVo3PZlmEyEVS9FfIT55f0VcbX7kcorCxye6Z89JBcN3zIoN6lH+zMzFwhB9XO4k+jmvs8V1CKYEqGm/UmdiuN0cOnEtOZFTLbBpPTkP+dk1e7IC0KtK2LnnYlj7WxY/T/s6652Pd3ztt/px0/91ljssMjFdttzNWtrjMt8aePYk+1jHO+RvLc4Bnr1UXPi3/teN5Y5a/4+Hr/NWZAzMHNocDx+IgbA5580hmDswcmDkwc2DmwMyBo3BgdhCOwrUdHglJOwAAIABJREFUfMeZu+SoOGM8LRY4o5TEVYFMHXVMPbQt0++6v1fR1dPHUfkxvzdzYObAzAEc2L/zne98IFEHMIaECgldmoxVyS8SyyQgtolvwToGQ7KTxJz2XdmlSnJkYkq0icxW70WZmfpUxxBCtbI+A4Fx0bvVlMX3JHbkjOx2fDKJv/nNb97uE/GuyovMAzWwxh9NopExBr3xvar0sXoXD4xHooqSGscvEmhyw/ee+ZAxKwM2moROCSrGJ7lGUpY/1fckxS3LexUGkisl6/Q2VQFKX9fVyIrMbpnCq15R247pMNqqfhfRVn2vRbLrpWPZPhbx+SRuCuyd57GxkFXJbdbGsngn+V1lo3SZ79BPEj6jOgv///d//3f4d2uQ7qB3rG86QmKXNeg5KJbe8741o9FtMtf9u/UWTansWGK1ZGJ/6AHPWYPtu/JtJOzSw9Gi74qvKpaUJdNLoVtizEEbPeN7xi9JGn34Ef22POj5nnHkPiodVvHFODj1+EYH+nuMr6VXAmPwedH4xmQt09HOW/u9PB/tnLfPrVMmw66uU8azvLDDWSb1W/G0Z73uX3TRRQfqv2X4ykqW3QlcR/KccqHIyqwWrHpcWazQyzynRE3pkPpcWZMBitTmIoSi9D1ZyIQlACcQtujdZR0EpTWSJQG/GJ9ywBa/OsZCiDIPCInKgMgYVQrzoAc96KzvWTDZMQFLnd81cZI2gd5IulKpwYDnFmhgh82HLGf92NFz4mSsajLUVUiYS8l+am8zbRbwsrxX7qW6olIIY4KmXEkG8Tob54dyWWYch/XfQ1vudxFt1fcy1G0PHcv2MXUHYZ0wzcq7JP0qD4OjwRngVKrQMD/AbFRskSUVPCpmAMyoI5fZbnOkFFk1hBI+5YxPfOITB+eAXlEFZf1ZZ1ERo4ImkADbuZAFr1qKPtSHrHc6VvWU6hLgVcbk75Gp7jcYLYDnqiaJF46Gcm10qTrItAHSidJWVWp0H70WY6ZrVEzceuutQ1LwYd/jaOU+IDnmxgHMfGG46SM6EK9l2gOLy/QyyPhMrykH1p/Swjy+MVnPzykbz9/jxOX5kBxe0bZOmTTmdX4PPzP/OGCZ9+S04ulhetG/D0cMJg9jlV4B3AGuo65Wqca73vWu4XIbRkU5IkbK4AYnCZbZrpVwMwQEn0dLCCzKcBAYfo6HOml17561a2eYIcWFg6AWPL9rpy6TncfHu7eo1Xjm79kFYAzjCwiDAPJQY4GLgHBg/JbfpUgyDxh+Rp7zYxFYrEpo8vfQlvsNjP32XbyEAkbpEH4JeJQFJ4wzYFFFmVDPfCh3oazAwCovRVNEOUysMlP4FEq08vcoxR7eh2PHyVI6B1WyGjOeooPShVmgBppsqPkHTqSZZxGPTK/vAa8yduVSFDtFpNQxogTkzo6Lc6WPQKgD+mK3rj6dTCo/ohR7vheRspa2Vq4sKHXOHN7cL6WTaYuy3bHvhdxX30N3ppcR6umDg53XR/U9fAlHVmklOcTnkF3rn1EU8ev5nt1uHnPwtFU8Y2OhHxgmOkcpmVp+34TIB8NgUYlzpdjyu4yfEkdKH70AY+gw9FrD0axJOozR0sgZ+q13mwLPc+49E0Bnxi4ayOD23AtB3/keuPq2HRUcyzeU1NFxECYZO/KSaQv0THqAPqD/REVjzOaczrW+er5X9VHNRRUhCr7SfXbropFaxvpogeI4Nco3RbDz+MaMW36u+h6a83yM0VbJZADKWZ9ViWiMrXp3nTJe8a/i/RhPux0Eu0wwymo5LXq4BpAUlVXxwIWJ/d1OVf0548k4MXrgNBkBf+cQEASKNjw0CtMOFmAIiGOKSe0oo5wRqSiL/C6ngGfNoIkCMA7qyPP3OAgEnkKwUBxbCIejR7SCo8E4QbuqxpJ5wJjhCSOlTw5RXITRfo+HnvtFW37XmTHHBTKbOmw8wEdCpq6XgEJPw+ue+UCfxpljkBnWaH5j3CwwIbv8PZGLHt5zEAg0ACvjFPJk6Koxo8kOhDJGo5Z3wNW7FC1ecUzRzynDX8qPs2EO29LPFjmNESd3FKCIjHHagfR+L9PGwahkAy0ZGa/a3R/1e2SoorenD0Y+rw9GIH+P4jBv5IvDwzBaz+aErDA0+Mzh7Pne2Jiz0qmeM5bot42scGShjzLMy7b8LsedLNl80EuwFITi8YCsQrCET8I5CTS66NN7HAZ6zS4WWilHOxyE+A0vRfIYicA6qMYdQDsicL5lQwUc66gOAj1Nf4hAGCeHhdOfacPjwNugu0RKQg5s/KxXWC30T8/3RO1yH+3xcdCuj4ovgW0CjCtuuawcBPqWgyh8zlnjUOTxiYTkVvGFbs7fsxGjG9v5sLGsaBuTSTt3zsuiVr27ThkfcxAy7+PywJanvRWGt0tSpKCF+CtYR8LGcaC02mYXxyBROHYg4HSFNBhWu1wKQIIXIRQ2i8ssKgdBKC+/a1ESLM8z/I40oELl77U5CITKv3uPwdAnIypqwXusxhI0BQ/s9Ow47E4tQP9P6eTv2V2ERx79Uib5XYaQQjCW+B5DyCEK2FAC195WuWg+Yrx20Awjo8w5AwmLRyIKOeei/V52ECre2/XbzeFj5KBAoqzGzPkRduVAxi1jZMX/B03Vu45tKvQzpY4UjaMqCxpCWDbUZNL7nFEQxgBx8KD3e5k2zuyYbFQOQkubsa3yvYrezL+qD0ourw+LP39PpMEaFdoms0LLgfZm3YZMUrI93zMfY3Nkh9Ums1ZjqeZoWafgsOfJhBC8iBJ620aebVboA0YujhI9Yx07ZnBUx3HiUAvdthEEeUbWeU8EgfNL91hPHBU5CKvAa5s33xTZFRkyXjld0YI2GxAOkrwdhpIDbCNCDoydM2xMfuv5Xjj++ok+2t9aByHzxbpkuDgqnFpOUmXgYrdrLXP65RsdNr6230wH22Te2u8ZRzUfmX8VbfFMlvHDZPG4/r1C+828r3jam+S9/6hHPeqAUTGBdmQiAoxhhnWMc3VhNbtSnquQImbbiUias+Da1l7MxGiJRjztaU8bdiy8QuFiws5TlydAYKPFu4yKSeah+7t+7XTy9zgIvkdxcWTQIerhOWeDvEPRBJGI/K7kncwD9FpQ3uX0OLOPi1Pa71X9WrT53bjSF8xtfI/iYeBFVozBQtZvz3zgE6VP8PFUCBR/OEJtWN9c5e9JyOrhvbA5OFJohtGML48ZXyhjOwOhTAoIbXbyDJg5IR+iTvnd9jrq2E3ilV2uxgEgY3YMBJ8TQjbAnuIZmFfOo+coE2fF2fhU36OoMm2RU0NOyQtlQ5nnfjmNmTbrYtH3Qu6r74k8ZHoZ8p4+OM15fTgSy98TwQq+OPoSiqWoGU/n3KJ8og5kped7jvyqMYteQK+M8Ku1uGgsh11DHLtsSk4Ea5nmHWuNc2DOJH3SN/SH34XcyRVe2EFyAjiIHHc6Km7SdKxJrnwvrsPmgFsLZM5caYyt8/LcRPBENh0x2HmKPNgM2NmKRuib804me+C1ObK+YZ1zAKwDDlmmzZgjB8HGz1EkvZsNSO/3GNrcR5vT1RrqzBcbJjwXseEccK7p+0VHDGRDFNFxZaaXPsmtosP8hmMX36OH8nzEZXetbFS06TPL+DIyWT27ioxXDkLmPWcm86AXfGz/Tne600FkQvIqImRkxysc0t6H4P8pWy1CPJQMAa3uTfBvcRe1PnxTmMqz/i5RK5rfopLBb/Gu57wbSWnx/qLv6TOSKj3H+Ykxxvfaseiv4kF+N55rvyeiEHQs6rd612+ZpzE+/3bYfHg2Kkg8347F/+MpfmXaqucq3jOYdukUZNvymPHDN/UX2crBf+MzzuBNz7vtfMS8jY0Z7+O6a/zy9zyW6nuMRaatlQ2OjqRWhmVMTlvaKPpF31sk9+0c5bV0WB94n9cHPsSct/wLvqDH/FC8Qt52av7fHPV+L57D23bMWSar56o5GqtaEKE0PpGkZVuMha7CY2NBu9/bMdNp5DLWjH8LuarkL9ZlJZNyqIT1ozmaFIlo5R6fs/5rdQdjKsqjcfjz9ziwoVfRZPz0dqat5bNnQm+FHMQYyUrP9yr+VePjvOc1o09zbJx4YT7C1rT0eg5v4jlj1G8en01ID1/MX/6e+cvzoZ9KNiqZyzK+rFzm51eRcd/K/Mu890zFg55xzzgIPVza0WfsEi3k9thjW1hR0SaUKVxrlyiaI1LUW253Erxadx+bVPo4Jld2wc7aRTem0CTscuqiOfcN43aU8a/7e0cZw6J3Tmt8p9Xvuvnne5ss47ODcBwzPn9z5sDMgZkDMwdmDkycA7ODMPEJnIc/c2DmwMyBmQMzB46DA6fqIDgrqXIXjoPQ4/qmhD/hLmWUkl/mtnkcEPJ1Tnec86MEV2Y0rIhl29j4ZLyr2HHMIRkxrr1e9vvz87vJgVkmd3Peg2oVSY5LV7Gx+1dcccWBMz7KSHazrHDZsT6uTpiCkt27TOt9t717fpnv9z6rLFE2sjMeGbyyZ2WgyhiOFopXoo6EG+fQaO49N5QlLNlLRYHM3GVbL6+q7+Z3Jcr5o1Igmv/Hg2juPpfkBLxFhjmjJptby79VPJDxDUQrmpp15UC5D/+ukkSLPi644ILhPDnLmuxm4DWEGaaB5wEfybz2e6CqRR+qFlSV9M7R2Fn7OnmvkkeCGqW8qMk6lgEPRU6Fh3rwsfHhk1JVSV8WefVu1Re5V4GhEklWvfntfdf31smXWSaX0wjr5P1JyCTqrEvzHDp2jOJ10jbL1eFy1VYIHZX3+8985jMPwPMqEaF0lY8ogfBB9fVKlCJJTZKUmmkCYce8SBDad02m0j8GmhFW7gMjwZ+40heIh4xxSpPRNQZlRoy1WmV16JDRIKIxbMYiM1cJh/KyCvKTkbE7o2SBlcjGZ1QghykF0QIhjWMErhh+gzpyWbTKzNQP+38lnJ6N8cF0ePe73z18I5eE+i0/V9FhzBWfD5/6/++J/G5laPymfDWcIqAu+GteGXv8MweUSf4tMqnb8SjJUTIDEEm5qJJYDkPuI2BjlX7hBadTxCjLmiRIvAFiJRKjKffiXOC7JC9loC0dgLKUiSmny823smwYszJD2dBkDC8Y3HXKuG+TYZgNAaFdyb0yR6VunMlAEEVbNT4OglJTWfAaOvK7fs/r0v9zEsw1J0s1Bj7mdytezTL59iEx97hlEp+zrqvWdDW/vXr3JGSS7HLwYXYodVZxoqyz0s+zrjt+uRJlVOEhsu26BBsuG6qj8n5wEBhcO2vGkWH2B5Igo6hePkAV/Gb3A5imQrIKwc3vUvwEh4dJoGQkU2BqYilVzS7RONRPM+b6YbAZCQZdHSw4VoaHoeYcKHMBOKJelQLkhESDVNbiKuibc8JhUHoECEUJjG8D/iHkvqHW2pgoU+iExsJ4cggwnVHkpAAW4nCo8c8OAkjm/BxDmumguCs+9zoI+d0xBwFPGWpOnRC4shpzCNYWoprfq9/GxlHV3uY+1IzDJgCnq8Ye/oPxZllTbggtEYJfNHMLuIaB5LiZh5Y2CHAiNjzk3MxLlg3yAssBzRYPx47DuU4ZNw6OrH6MQavknsxlkCq0VePLDoJv5nf9Vq1LkTBY7e4JEDWq3q14ZT3NMnn8Msl5y7qOTpqaTJJRWDAMEIcEQiV9mdfgLFd/NeBwHLeuswlz94eNPvwPtpaDcNQ1PTgIPA3GjxFj8HpBFHoNmeeAr9jpCzEHylqGkmVU7A7jrJghRpyjDt52NIqNUWN4/JtdGYATyGHROBMWIUElxITXzpHSBpYE5ImBdz8EplLuxtP+BlGuNULGx3HgNIi2CP3iVXYQxp7LdCzDv55nxxwEsKLmFc12lGFUALUATWGA7VQJUf6t6rdyEHIfeGB+eLSMufC7KEOWNYvGHDDY0Qi4sLioAg8Ymh1Mf+BTHEbKiOBXQCaVbHAQAhyGHOFDoFf28LX3GXkOFiY477iXoJL7ykGoxtfrIIyND8/wD09ETir0zLyO1s2XWSb3Bv5nPpuzStf1ylrvc8ctkyKx9KeIgf/Sh3TpLFeno+tEbwI6/DAQsh4ZGhyEQFmikCiSMQcBiIXdm+OD3vpwg/AeyFMoVUL3DL8wHiPgDJvxIlBCso4d4ixfiBugBULtyP2/96oFVyk2To9zdSFfuyh9ODKQkyA6wahxLDgRwu6Bme43feGHunh9ii7YlTF6nANRBhEBsMIUsfH53XvOl/NzoE0zHWMThF+Q7zhSy/CZMgZ5LEKioRcyXv4twGtEhsyB6AI6AuQofrP773UQch+Og0KuRCrkeuBfljV9Cq87M0erMXEkGHK8tDux89d6YG3HHASRJ3juwqBgYivEu5DVo8h48Mm8U8qAliq5J2vmFkIcnjgqwZdqfNlBsBbyuwEO1coLRR3AP46C5KRYY/ldUbpeRT7L5HplUl5X1nVja/2oevckZJLcAgjjzIv20e0iu7NcnY6ug+7pGJ2NZuPYXZvso7alHATHAkL1bV5CT8cggO0U5S5QzgYu1O1MlVEGNRs7d7tFBiOuJXWmK2TlzJhCFRnodRDsYh1jBGKXYw5HD3ZVdv2MojE5dsBIv7nli4HkFBgLhe/vgWMPrpkDwOhRvv7Nzlt+BS/a2Fz5mp/jTGQ6xngX0JsW3zKNg2ChBioieuWP5N/kZIAvZnyDXsci+bcxhVVFEHIfnJBwBuz8jcOuOjsInBDhdZELvIxbIeUgoAPPzKMIwyoOAufN8RElJklzrB1VxtvvAVli3Ml8lnuGW3Ku/5JLOT1QzqrxZQfBt/K7jt6yvJBP8qfJ47HmoGLmd8lLryKfZfI5Q17MumTSMVfWdXGBUZbNTZZJ65ysuTTNRkOE0qZqlqvT0XX0OVvGppoDm+2VHATXPS9jhOZnj58DkivlJ0Qi5fH3WPfAILcVC0JXbV7HaY0r+t3U8TlisFBVY6zSRGXszjQL3VFa1U5CXk6ijx5ebeqczzLZM3tnPzPLVR/fTkvuTxUHoY81u/eUoxHHFkepqd89bs0Un4S8nEQf80zuHgdmudrsOZ8dhM2en3l0MwdmDswcmDkwc+BUOLCSg+AsWq7AKkhNmWrn4v5oMuvbWwZPhUNzpyUHzL1Eq7hlc2bTzIF1cUCSp1bhcBylj3V/rxrDcfdxEuttmT6Om96jzPOid5ahbd19T/l7KzkIMtXvfe97D5mryzbog6oWJNK1TWLW93//9w9YByoF/Hdu6+XAGO9zL5ILVX2oNFEBEE2pqCRNSVYBdLXeEc5f22UOSHpzk+ZYFU3FG+VdKoWqtuz3xuR+0Zws28fYtyo6jmu90b3wRuTKLNvHuuhdxNN2fKush4q2RfKyqK9e3bnKeDfp3aUchMhkjioG9e2MOGyDRU11gGxtuAItelyVlZ4zt6t3q75k0QKGURsvuUv1gpp5/fkDBEoW9xhsdKZtmUnK78q6j2x9yYbAQ2BMyFSX6BeZ7RJ0lFoq/9SACclYBtokIQ1mgIoKiYHrHF/vNb8WloWEnxlG2rzgaYBorXN8eAaYSg4G2ZLl7++ZfyJXKlIAzOgfCAllR9ZUq5AvZa5KWPHU3JNZWdZKXTPv4THkBsdAv4FGBtBJ+elVV101AGxJRrQGJBPe5z732VMN4jfw0zARcuP85netixiLOYfxIKM900Y+cqtkTZmyOb766qsH+VFK6TlVQJAsQyZlOld8yevStyperXPOW7re/OY3D2PthdL2bsZUWeV7i+R+TC8cZczVt8boyOttGf009myuk1+mj3XRu4iOddTxx/czbYvkJd6xPlSfWa9/+qd/OqANw8HJ60NpoeqNKLWH8CqHLNsj383PKY83NvreO8qj2QoAhXSO6iPPKLPPjR3Jz8npyH0se1VC28/gIKiPxgDlhYt27DpXwkXZKBnT7CJ57oygBiSDMrHAlf5R1ghW764MpnUQ1LozjqIQnqPIsoPgvfyufqoxqzHXPzx8dfXQAZVJqn03Bn+UIQJUovjRQNCV0FW09S7C/G6ltB2VMHYAg6JVhrp9Fx/xhOBV4zvqvLX9Kvu7/vrrh0gAw6T8joELQKUMAsWpMW/uVVCaGM7NOvn32Mc+dlgYynWMD8CWUtTMP7Li9wCzUi9u9wfGFkKk0lSGVqi6LblUbmncPWWT0DeV1mZjXxnHXP45Jj/53XY+LrnkksExhN2RaauO28YcBChqSogDrc9zIn6BZmq9UoA9fBlzKNcpk8EryvhrX/vaAC9drVWloeSPYwrwzPzgGdoCOAsgWchl+z27XjtmmChwKNAvUmHjEI6uMlvgXlnuobRyNq1HDqd3onys7cNYGAaOKhhzuoVy9w6HrzU0PXTgS15vFV8gZhq7TZE5NT5Acbm1dCghVl4OmC73UdHhrh6tpZc+Nw9Qd/XJMWYPMk8dRXO06RfPg3nHZ//lCOK/knM6Lfgc47OGl6Ut5qiiDa1j8tLyizPPKVCVlOettVtkUoQV/gyaAvY/2yNH5/k5smKelL3qA+3mMJxjckoPeibzgFzl5+iNaiy9tiw/dyaCYDLU7y9qDDWj0F52RNmps77iiivOLLLYITFsgSNfoccBxCGgnAz4++9973vPchCMp4KX9Xse8/nnnz+MA4NNFiASIXJOD8fBbsr9ClWNbkVbL1Pzu5XStjulzAgdp8ROlBHkMFCI8i0IgnfRQLB5pgTmC1/4wuAkZd5XPKjGnN+l8PGB0bObZkjhFFCKnrW4obzFb3aZOYJA8bUOwjr5h27gSPARAH5YoBRI5h/chkANC7oZxeuuu264+8ERFmeDwgpDGL/BD8i8r3gX4FkUofAiJUkJrttBMB8cITwlK+eee+5ZtFXja+VFJILcM07W5JVXXjnImvUYKJb4IeICC6J1EFq+VBGEilfrlEm0wRNxdAWoivyPgV7ZyFDc8FQYe4a62hHm78Ex4BzaHMid8R5MEGuAfDP+YVSzg2AXxyjQaeYJ+FRA2LZjRgcHhTOABoaWgaschF46fLNdbxVfRNNE+uhQ69W6EdGyy4xmdwr+vKIj91HRwQnIPCWnNmGcdTtnkVuw/Zmn9LCxcBJsMkTh6Ov4DaYMWRUJzuOz1tZNW5YXhjrzijNjXXC2Wwch2y2OqQ2xiKp/Q+OnP/3pgb7WHnF+qufwWmST/hf1i+Y369lvAYLXzm8cwbXP4dVYH732rH3ujIMg6eSoSUF2cHbp4TkJS/t/hifOqBfBy3oOc3nzq8LLIo5ylBdBUIXsA+LYQmWge0E8jsJQ71x88cWDAbGgGHjh7had0kJgeCDeZWUczoUdsB09pbYITfEo80bYRFiEnozN4rQ7txgYU2OAwcDRoiiBRVF4bcsOwlF5NfaehcEB4EC2N0V6PvhnQRujXXE0/MZrdIkk4R0jEA4C48MBcRzRE0HgtTOm/pBNoUBGYt0OgvngyDpKEb1hkDJtYw5CPs6yo8EHaJEBgMVYeE6IlKLiRLUOwiK+9B5JxfiOIpPeNR8cGMpbOww2uw1Be6fdtVbfsy7BeANIQy854uwxmo5e0BmAaFnuGTxOp8iLDZL1y0HIYw7D2kLDW0+VgxDydxgdPQ4Ch8eGKSK51nGFmzFGx5iD0NJR8dRvIsWMkghN3EOSeYqfeN/eNMsp9rsoofmj/63pzGfrdd20VfKS15cNiTXD2NusyImwtmLewm7RhaKX9Gnc0BoX+bX2iCMx9hzeOValZxypin7jC/1vA0l2Mw84s/k5x2NjfRxlXQ4OglAYY4YJcQ/CMgqfoUMg4RO+Z6B9i+DzfkywBSh3gRA4S9Wn8Kdwtp0OZY7g7CBQbPldcNAMv3ChMxgTI3TmDAdzrrnmmiEqoQ9GJm4e5KGJKvQ6CLmPXp6AznXOK0oglGW3QxlTEsZOsBh/3jiBilAlARFeDoVPgQkXjcECH3XeQuHjB6Q9BpiHb0fIKOGpc3VzxaDYqTGK6BFCs/hFYzxjJ+63qh2Vf75FJigLxtLCsnvP/BO2pHDsjEQ7OJlxrbH3HNEw8OTPkYgoDTrthslp5n2V5AaqmrG1PoBGURZyQjhNFJxjM7sLPOg5YiDP+V1HbNlZCWXa0laNr4pWUSR2w5wkjh8FQ+mQK7s8ygtfyGQPXxwl9PDKvB1VJsPxEy0Kh3gZB0GEx3xYK26LFXK3ftrv4bHIGN1g3qxLMh+IpfJI6DARmCz3ZNm7ogV0GofOus19yEvxDU4E54OuIcd21v4fv0U9yGvlIGQ6GPm83ux2sw6zRqwFOtFRlMha3MLbrk36L9NBPnIfHOBMRzVHfsN3eo6+tzZ8K/PU5tOmzf011i0ZtEO3kXRbKwPIyaDD8/iE0tdJm7VayUvWYQyqYwKNDqTTbTqz3bIhjiN1jj29yiZleyRylZ9j/yDwOrqn82xmzBF5sX7xjV1wlJB5ADE1PyeaUPVx1HU5OAgmyqQ6YjhqWSHBFKZj5ClKkQPhJ5NBOVGM0RhJzW+UgWfjilwOAuGyMDCax5bftdOi9HnxwnSaPk2IJnylXzCgfmOIOT76sfDR6MIfzwhdm5Sq5T56HYSqX+Nj/AlcjIWCbmlzzKKZDzTwDvHHAq7aUedNv/4wIpL1KBIKB6+EKs0XvlCyHC4LQF+OOvx/HvO6+YdWi5NBpqwtjop/nqPIzJNGrtBifJ4PPkfOiWc4QByFivcWpkUXTWRCuN88kJeQ1SzP+CSfBW/i2IuMUUL5e55t+ef/yUTMRzvPmTbhy/w9NIe8kG1rgzIIxEuyb+z4Es85biNr+qW0DuNLXoPeHZvzo8okuihIDn20aq0aS/CKfpEfgvf69f/++6UvfWnYmebvUcS+ybAz5O6n4CCE3gh50X+WezLoOZshDjWn0Zly7sNGBc81Dh1j6B3vkgk8t7ZCBq3BRXRkWcN73690mCMm0SFyqu+q/DzG4r/GoX9jymuaM5npqOYInXJl6Ih2rVY8jfF5h3wwGWN5AAAgAElEQVTSOfo1n/LD6LlqfOZ3Wdpijny30ldZXsL+jOl4mxP6j17KdqvV99ZfXIy2yB7Fc/ojgyLbIlsiQa2+8u+x3jIP6LhYv/Ec+xs2r+3jqOtyqSqGRQaSoTGgMcXRa1x5aM6oNJcmjWUy23XZ1QhBH1c7iT6Oa+yb8N2p8Y9SZESiOa9eJQN407+3CTISY+DkUY5jzvCyY13395yNi/xxUGykREk5Yusc87I0nvTz6+bpusdfzdFRN7zrHttUv7c2B2GqDJjHPXNg5sDMgZkDMwdmDpzNgdlBmKVi5sDMgZkDMwdmDswcOIsDs4MwC8XMgRPkgKQ5lQrOv9fVnvnMZ54BK1N9MpY0uq7+5u/MHJgKB+b1ttpMreQgLAJQkeUL/EgiyjJNxnT7rooAtaSa0j/ZuRJiTHw0GeuSlSQ4ShKSjCjrVKJSPCdxSSa63yScyDxvm4QwWc0SIyVIynSWQS5BRhKRLHrlknl8q9A29m7ATSt5UUmgrbNf/Ms8yDyFkSBpJvPUWPJvATLT0uO8VkJYtLj+uJ23AB+K+Y15c5ao2kApkmx72AOSrpTAqSs3JwBEPJ/nraUj5rwa33HMW/XNPG/KDvFP+dKiBkxGkiPZU4ctgW5svfmehDTlYZIwnZNXMtQzvlX4IhEqy4a5lEwle50jowpEy/KnssT6jPX2sIc9bMhBqtbqOtdCxed5vc3rbZn1Jskwr9VqHUnGhHMi6VlyMhvlNzpRAmKr7497rfau8/273OUuBwAdZNhryngkGlLQkfGrZlyj3GRp+3cLXiZwlOrIAKeQZVzKmgbUEZDMvYPxXH5XGRelr5yO0VaLqpxN+RmADqAUjA9FqvzHv6vI4EjIglflwBAxQr4h8ayqf5fwSMHZ2amjV45EIStHVGooKYmRqmijZJSTMVqL4GF73pUpDNgGUJC+0Sd7dp08rQyN34JX5iEqPjJPJaPm3yrENnNmzJxENMiWtghyH+bRs0p6LDLlZ/hpvpQMqQVWSqbch9OBL0p5ZIdzYPK8tXTEnCshyk0ZIeci+gVAItM/5J4cBBBJz7yNyXh+V3a8cjAGMZxnY8Eb5Uz4gy6NnCpZatFHlZSZG1UuyvnCGZAVH6BklQzJbsdXGdf4py+RhnXKlbnMsgEMLOM0BG0ttoayaI6cyhGOOh5weqq1us75kBCd+VzpoVV02Lze9gYMhLzeyH9le9Y5vyex3sZkKNsFSZ42sOwXPcZ+qdrgMMAQUgWobJHdPe612ivP++eff/6Bkh1KWFOTygjYxdtlM1YAI3hJFL1dtV2B+nllMLGA/W7BM6LKf9RbU9DL4KnrP7/b1nn7uxIOTkAGqsF4QCmwsyHFUS7twqRYlafYlWSlQ2mq0VXfbOLU/3IW9AMKFEYDQ1eNz28ULtoptkVZ7xVf8ruMAa9S9i2jwalxWdI6eTqmsPAI6AneMegVT6vfxoQt4wIEgmPbhzk1Lww075rBJmuMHNAPnnzcXyF7nFGMVs1bNefqznOrwGtkpZMB+A4gm8mCcqyeeRvjQfWuaJRSXtEqTeWEkl2RAv2TP8ayAhez2/CsowRrlnxk7JBKhuzI8ZNChmfBAMO2WKdcVbLRzq+xR0Qsr0EbD//+spe9bKDLWlbRVDkI656PCql1nXyZ19veAL6WwaLo8Gx7OA3rnt/jXm/WcCVDlV1gW+HMsIux/kN3sLfsLhCv416r3Q7CueeeewC1Tr2o6IGdBcAQXgxFxCkQLWC0LFg76WgE367ebk6JIwO57tY6CABH9MnTqpDsjBGATyh69d7Gxzvj1AhXq2PNSsekcQDsUB0j2LXZFeMBYyY6YMd2Eu1nf/ZnhxpsCp2RhozWonKtYwxjCstiVQ8sTB1zmXnKAap+q8ZVOQi5D/NrjkQI8NzO+sILLxyOguxIOQzC0uZeZIdBjFbNm6hRnvMKaKpSWIwUGYj6cQa7usBp1TkIuFo19BF9qWRtEfooYyqSx8hnB6GSoZNAEMWXLBscEvPh6IAjFCiJeQ1yCqE72lRYc+hbFsHxqPMyBuV+1O/l9+b1VjsIMB6y7RERW3c77vU25iCM0cEWsauA3ETc8QHGiQh9oFH2gvmtm1f5e0MOAqAMC9TOyXk+74WS5s0wmH4T8oDxnS8bcrQgtI4wYcJ1t9ZB4HExEmNQt9G3sdiRYrzxCVPbkWF6tVhNDtQ2wokX6IZ61oOMF33CCrczO0pr3xXiFpblzMSlMpLa1tnGFNYi6OHgaWugq9/acVYOwhi0tF2jowBRBLkGEZZm/ACPMDzGLSwXrZo385fnvOJd6yCIhpFrYVCRC+huGnlQ5z7WVplzkQLHAjfddNPweXge1qCjDdG3Sum08+bYyzFeFUGoZMiR2UkqnZAN+QI9RwzoBW7jmIRjD3htWQfhqPNxWg7Crq83G5FsexY55EedX7J1nOttWQfB8+SbvRVxBw5m7dukArmqEETjpsh12oGeb+1fcMEFB0KaGpASi9QgGWM7cbs3oVbG1q7SLsu/2wk6KwohZ8wY5Qgh5s5jx095LeMlUuQml4F3JsxZsRvCRIrHLopytcjt/IWdRTMwm6KpLp4x9riN0nmwiIkjAsmJdqp2ro4Xeh2EoA0k9GGIXGN8iXd5u5RroFEyViI0VTsqTynezAN95N9ECzJP7dDzb2PHKmMRhJb3UNjCgOhfHgto1ewgCInbiYqskB9yYLeZ5633jgU7drtZOSkiYwyzyJTdt+iFKAJo1THgr1XmPObSLZovetGLhugW51vfFAdIVQ55QJeTS2NzXuk3Y+KMCklWOQiVDDky6XUQjipXEoqzbIggVA5CljXHaNarOYmLkSo59dyitbDsGrTWM5/HHPKj8mVeb3tDNDavN5HRbHtCNxymJ3uMW37muNbbmAxlebHOrUNNkqJ1HrDKcW8Ge0THHfda7eXfSlUMvZ14TiIHoy2nYW7r4cCm8FQyKqGOJtFw7P6I9VC+3Fc2dXzO2x3pRWb/clT9v6fljgTkOMPL6VmlbYpcrULDcby7KXzZVHkOnm/q+E56vZ2EvBx3HyfmIIhG2GHIc5jbejgw83Q9fJy/cnsOzHJVS8TMl3mlLMOBk5CX4+7jxByEZRg7PztzYObAzIGZAzMHZg6cLgdmB+F0+T/3PnNg5sDMgZkDMwc2kgOzg7Ah0yKTVQavmv/eBtwK6EbVlv2e2ltlNkCngNX0tGX7GPtmRYfkReVu+oCSua4GwVBGML4dVx/rGuv8nZkDJ82Bda3pkx73LvV3knO0/4IXvODAtbwqFWRVKjVTrwzMQW267Er14ICDlJjJ7qZYlYZVxkzVgXdltsMcUBUBICNnMitbA0B02WWXDdni6v2V98kgV98um933JXCpFwWm4zfZ3ABZlL8xahLijF2DQhUJWkovfTO3GF9Lmwzbqo9Mh5rVCn+hVzgXvasGXJb+MtcLywqWlFa1Zb9nfmSRK/PD4562bB9j3xyj46KLLhrKWpeF6140dlnCr33ta/f+8R//cXisp491zrn+r7nmmjNDNBbrS120KiLgWMpsAYJVFThZxq3VvI6Uf6pwUEIlefHud7/73hve8Ia1yi6Uz9yHKqZMB31BbygXVV3BOVMxAghJmZuxSV6WCZ51DoTNnjW9Ck8rWVF1kPslA1lP/uAP/uBZ+ioA59rvVuWakssyD1RqZV4p+5QA7Hdj+upXvzpk/vfoSWA8FZ+zvFhj0daxpjdJNqAXVmurWkdZ36swyjIOOK3nXbYit2reyEue38qGtt87yhwdVYft3/Wudz1QSkdRwUrHzBZ7gAGyoJU0WuxwERa19l1GF9iPVjkISpLUc8PXZ8wJalVamInTh3JJTgAFGOh6i+qKY8wVbZyiqo8Yc9BBufntHe94xzDmMOa9JW/Vu8alxI0zpf5d+ebd7na34Q9HTPmo0k0QtpwqJZwEVCmYkky19BrER4BQ+Xt+B0YC99u3KDn9KA0Fv6sRXAJI6RhLOAggQJVcMtDGzpCHYW3HzFkzD+aQg/GmN71pqG/OyGkcsR46jImXbDxwESjFii+f+cxnBjhqvLvtttsGQ1s5Ey0daKY0PZf7qOigoMfmrceJyu8CH7OmAHpxstV2q2SQ+d1iPPRiVZDnvI6UQ4Ibh//BeRYRUv65Ttk17tyHTUSmQymqeQ9sCc9wkDjy7tiA0grnQul0W+5K54zBome+r8LTMQch6xLjznrSuz2l0NVc0imZB+Yt84rTQCdbszZQoX979GTVBz5XejfrjQpIzNie+9znDvrIHxs7NGT9t0mygWc9a6uyW3RElnF4BWNYLvReaysq2armLc9vNZbAQWj17jJzdFQdNhwx8LJAJQfmeztAXjLgGkoW8Qyjek4XJwVmfMsI7yq7Yrg8Z3fg+5WDIFLAoNjpiBYs4yDY7Vp46qIDXCMQ9NSJA6GoWkVbhcxY0QHqlzFiXO3y2qbeG+rfola96zf1wHhvsVUgGZwCqHvAfNTJM/gMdbXzzt+DXWGnBr8ARgMPGHwxXin7gTkQyIHZQYA/gZcMGWeMgtRv7gPNFBcHhKFmAMxJ5SD00uGbH/nIR27nIOTaYNgNZEzfZJOj6JiE8xiNHHzf931fSUfuo6LDXI/NeY+DkN/lGFg3T3rSk4ZbHSlayh/uhh02gCyRsjEHIcs4Oc3rCOonJ4gzxjmwY4yI3rpkV0Qv90GOMh3k2dp2kVQ0Bt0uyG+hX+iA0BHxW9y/wvFdtKZX4emYg1DpkqwnV3EQKh74XuYVPAy7zMsvv3y4zEqZuGhMj4MwxudK7+Y1PWZ8RHzhdXDs6JK4/6PVf5skGwx6tbaqdZTtljWTZbxF5w2ZHLMVPQ5CNb8XX3zxWTY0bE9rK5aZo6PqsMFBACUszMFLoZRbI2qwgInsXu2cefYUj3Bohe7kXWFShptBAwzRfi+OE3yPQmBETKLdxDIOgtCknb+dK4WqAZ0QkXCPwViovqJtzEHIdPQYhGWfYeDw325WG3MQwmttQ+SVg5C/x6Hj+eORuaSYGW8LGu+c/zOudunZQWiVe9tv7iMMq4uToo0Jby8dPQ6CZziYEdVgcDgooKqjARLC21C8+YihdUIqOpadz8OeF8aENc9pc9mZMVsrgMg4CKDMRX2gmVZHDFnGQ57zOnK3CCXIqTsOCHR0Vn1kOiCyivS0cOF2TAwL2u1I0eriqHAQQudwEHrW9Co8HXMQqn6znlzFQah4AHUy84rDK+IkyuQ4jHG2lnschEV8zvKS1/Rh61e0zfHzGMLfpsiGOarWVrWOKn2f6eC4977b4yBU8xuXt7U21LfWPUeH6aqBdw996EMPhKzt+niqlCml60zw85///HDOT9AYdN4rBQvPABLUmIMQC93OSIia4FNWYGXtIO2SGC3PURx2p4xd5SCYNEoGNrtzVLtEl29kpD3EWMCuzNQA9VQJfAQ/02bnvqiPoINzVDVjEcq1I18mh8C3IAJS4HbyyzoIdoZxAZXdKCOfvyf64+jI2CCJyQmx02OcNApalIeR5SzIQ0GvXa6oA4heEQRyYafmudyH83KetncpOGefHBDywhBQ4PjDcaschEyHSIddjou3IHpKnPStHEEwvxxOi1jo1NiCj+08cZIyHY6+ch/kNNMxtoisB0cCZHmZHAlK3m6QosdHY0evox9G0jw5GuDxZ3m2FvJvzumrdeRoxjm39RK3sa5bdnMfxpLpMOdkDp34JLrhGTLpNxsIkSdh6rwuOUw9a3oVnlY6ghHI/TpiyHpSlLT3iCF/r+KB44TMK+F6x3V2kCJj1oI5zf1WetJut+JzJS95TY+tX+tQZMIRp4gGJ67Sf5siG5VMVmsr1pFjglbfZzoq2Rh7t8dBwM88v2Qt21C2Z5U56nEGqmf2L7roogPwlm5AZHgpK7sufw9DG4aR48C78e/OmxkUxiEaYaGoTYDved6zEg0JOiXAiAnFey+e44S4+0C2unM44XYRBYbM0Yab76K5bdLiiHedEQmZa+1zvue8uRpfpu2wPoION0FWzQ6I0o8x906GBQya1g4+mjMzigKfGTzJlELplD3+2l1REpQTHgiL6Z9jRKjy94RFfRNuPyUVN/jxgrWYD3+PM2Tfc0FXXH/s/82R8LRnch+gqkV0NE6g97wTsNrmFA3CyD108PjzXPp+5ovQM+hvuyFypu/KWMdY/Nc47FyNKffB2cp0jM0leGYOq/lYppE1SoazxnGySxDxkE8i5yTmI8skeTb2PGZ9V+uIA8MxivkYG+NRZdf3ch94kunwHEczkDZFbDgJDJDnW31w2LocW9Nxx8pReFrpCN+r5C/rSSH2rK84wFnnVN/jmGQeVLwi2wFfLw+MXhAN69GTdvgVn7O8uHUwr+lq/aLf0ZiNo0idqIZ1V8nQpsiGDVvP2mrXUavvMx3Vuqze5dxmObCpzvNGf+f5tT6yDWVXV5mjZXRU++xKZY6MTyjUMDaBKX3UAa3zvU0f37nnnjs4VARnHW3d36OcRG4Ia9xvYde9zjGvg+7T+IYImKhYm1h4GuPYtT7XvaY3/XsnMb+9emPZy7NOYuxtH+uey1XGv+6xnNYcreQgrMLA+d2ZAzMHZg7MHJg5MHNgczkwOwibOzfzyGYOzByYOTBzYObAqXFgdhBOjfW707E8Aefsx3nD4zr7kMjqOuWcz7DOPrZ99nt4Ncbnijc939t2ns70zRxYhgPrWDNLOQhqNiWrSQaSqW6BS7KSPOXMxfm0SgQZ47JqJdJJdpPIItNT8odnJdTJVYjnlO14T5mdhDpN5nUktUlwjHbrrbfufeELXyj5pAxE0qJkGkmUyifbdyG9SZaS7BMt+q4+KEFFKaDyTskusk0zbbKRJV/qT9JhJBVGvxJOIpmn53vGUfEvjw+v9KfO/dnPfvbAPwlfuQ9JgZkH0Pfw6e1vf/tQVQAkybt5fpcRxkXvqnyB3aBKoAfMapl+49ll+zCvEri+/vWv3w45UhKmqprAj2jHEn2Qy5NsuTTzJPs+al+HzcciPld9xvfk66g4ioRnjtzY2Tin1L9ZA3SW/yd/dJV1o+LFv9Nb0VS30FeL5LSdD2vL9yVic4DpiDw+37Y+VKdIwFWF0MKZx/fIVbyrjJzurJpv0RHA1NrnFvUR32nH176rMk35M2ArieASjdu1BUhPcmLmn2cWvTs2l76n3DfzeYx/eSz0duaB5HU4DdFUX3Hye+SlehcPsgyRjdx654MtyLLGzpEhCeYhQ9X3AqCpld3DeL8OfbWUg8CwyoaHTIV5SjSUCII7hnlAgBj+l770pUMpjEx5dfeyZJXIwSiQuSzhDaNl1St1itIu/6bUSdWESgZZ8wyeUh2KQFN+F+iM7UQBV/nJn/zJoQzTdzxjAcikV0bnd4LPUeG8KOv0mzGPVScoyZSJKsvUM5yLTBunJACBlAIqN1TaFWOW5U4ZKPfr+Z7rO3Mfyt9y45zhH+wB5Ub4yEnIfeBF5gFegRH1rNKtQLHM86tPWbdqddFVLY4YV/Wuf+MUKJMlH5SxxUpBkoGojpGZTUbMF2fFItIvECEZ0oyC6pp4zkJry9NyH6F0QHKTT0rCPKmK8a0oRc24D5QEzA/NfHP2orV9VEpPRY9+OMX+ri/jJD8WvxZlmAyKhc6RJX+ezTygKI2FYpAMybh4f4wH7Zjwreo3v4vPxka+jMd8mIdMh3npedccLZpzOkMfMrwzn/VLVs1BKxv5ezYQ9A4ALAmiyqMZmpCr6IP8KFml4FX9AHaLMlEKOUDhYH1QyMoIGccomc3fw9M8H8Zm/ZgbwGmcSjTk8Zk3FTLAhaJiqZpfa8i6VmpHJ3KqjT3zXlWIig9jpiMhoaroyX0YX5Y1TnHug5zqSyUWaGF0cJwzveSCzmn5h6f5XQBCeb1V9Fbzhq7MP45THouKpswD65WNIRMag2tT2iMv5i2/S3ayDOHBUeejkjUbbTt9jgIbaa1bC5k29PTwHr5KXjP+v0dvVHptKQfBhPLKQHViFMNhoTGM0OwADsl4J7DqZCkMGe8YswgsRbmXRdqCpRBWSotXzlOEhuVbYzXn6uUZYv3YnYhUMGgVBnVP7TJmcXIsaFgO6pNhB2TaAlAEBoCdp7puCzWMFBwCTg/Amp7vVX1UExd4DhYKZDXlYxyE3Id3KxhpC5gxI4zhIOT59a4yMOV86oGjnLQaT/Wu52AZqHPnsHEQoDNyaChLvKR4YSSI7nA8OW6cKwbZIlHahi5GCuaBnQcHyt8DICv3Ebwnkxb9l7/85QHvAR9UHwB50SoHAV8ohYB4DlrbPir6KU3zTA7RC5nU4gcFjTbNb4wAharclMPpQioKNfOAk2HMN95446A0gOUEvG3LA4pceWQ0TgdlkPslk5l/3vHdb33rW8P8mEP8znRwYHreBXW9aM7RYR0rD8x8Jhsc/CjlhRMR1T0t7znjZIeuMU90CyMYchV9MEgia6KV5FzkkeMeaz8cBAYTz+gZus138C9/j17L82GOyCm9RRfqw1zm8ZE5GxMOmRJbz5G9/D0bKs6R9cHwc1LH5F6/6CPTDAs9k/vgXGdZYzBzHxwEGwb8DwfBWPP4ODqZf2Q4v8tJy+tN2Wj+HnnLfKbfM/9EaauxZB6QA44jHpMxG1fOVI+84EF+l/7JMiTyWumhnvngtGdZIy/R4C/AVbFpyN/zTA/vw0Fo1wybMqY7K13W/raUgyA8ZlIj/NTCRFJ+EBYZKwvHrpFHZ+fIG14FbpUiYOyFwQlU1cIwUiyAUxgGivmoDgJ4XkqWoeB48ELRnWmz03DsYicGBY9QUnbKAy1w/845gPHQ8z1GJffht9w4CEpf1NE6KrB4x/qoHASGn0dKWdnRM8J5fqNPu9hqDLcTpCQb/k0JrN0Qh5Ijgy8UMg8/wqpxNGW+OGLmzHMZFIlccdb8bgeKl8Zc9YH3Illk1TueZzjiQioRJUo9OwhBT0ZXzH1U8ifyYyfJ8ATmhHm0I2V8YGSIfokoUWRATxgxcu03CrnlgZ0yRYdGckV54VXmAYXD+EfTh51P1W/FP06UNcX5tp4jTN3SAeei513ro5oPxovzYF4oxABYa/lszhkRMhD0kun8PcYC0mREU+zg0Z/7wA+/cdgAgUFd1V9WssE3hg5uBF1jLPl71lqeD5dicdrwR4SNjhMhyeNzlCGaBUOAnhLBohPz9zhiZMickl86NWQ4yz2HhSPMoTY3VR/0YJY1dOQ+rA/yx5kIB4FuyOOrHAT6J79LDvJ6swnM30Nb5nPFP85BNZbMAzoKToHoIv1gztmMHnmhB/O7+JJl6P+2dzehtmVXvcBz20oJ6SiWkFAl2PEjYiOhhARMEdQiEawQyzwCgoQkqA0RGyK2IkQUgoKUdgwYog1Rk9io8iNFEAVNVJQIQUJMQ9ROEHl94b73W++NYta/xtp77n3W3Wefc9eES9Xdd635Meb4mmOO8V/ko5OFmf2gA7WR10b+44yI3tB12R8HJnm3o319AG3Uu/RLN+djzoF/P8lB6Drk8fB8hLEx/9gYRl55GYE6YXjGhCkLDMnDcxpEmEKQErLzG0U+c2/NESFYvO8RBvRcB4E3L4Tp1OyU7f+F+6rV2vwbxcbgcYqAWfDY3IVxLAh63ZfN9IdRc4zxt/q3ETLaen3whiHvxlj7EBXjhMkYq/GLbrnPTnvddzeOMZjrD06LPBVtvCsuB4EB8DvFzKgxWOiZDgLl6ZQmmqGJTvmtGwPtOT0cE5Esn3h21SCMZ9/8nSDVKc4JbGzpIOQY9WzShYGnjChX/9Xke+B/ESi/4RdOo5NvNbKTNOAg4BuhccIuQmUfOxp0+5Djuq/u3kXvESJbX7kOhmb23UN7/rGPfWy5aqtvlqSD0KFsZn8MD0Ng3mRelIFxrHdrDMYH3Qsq19UV53PNQfCNEzQWzh75tPqz191+kHXRDCc2jrq8oJwfXkxntHTeuL8MsHkzuPgFnwqtH9pzH2ETUSKfOQa+Sl6zvzkGnWUcMuVgxJn1TK63cxA4X/ku45by5hCV/Y05CEVnDkzSTxSgm0vxfdGAY0y+0Buf2HPrmeEX+ibf1V/ykCjUuftR8x15TbTbwVpkjM0brzU9P+5v8m5He8+nzKzJ7zH9/aqDUAaER3zspJidUmRO7TwfYUr325gBwSl/yrfw8IVC9U+QIHH5N56RsKuQmvAXbxGRMBjBwzD6rs84g4PuPuPsBCeM4mqBcnSKEzolZE4dDKjThLu6mSsGHiglJDyNwMKE7rRybeZcOQiMnPAQ45NOzWx/5ppj1BcbR9p3DoL9yzkzikkDp5lyxEBdE841B0GkgRMnqU9ocrbJHaG4eMXVOgcBrYTXnWApejwh1JkOgvnhEQLKE6fM/f+hMQgL55Ui4gjVvaq+hLrxpxA/HtQPvnPSMU/OoHVTTDmG9XR0cTLAg061lBNFUp92Fp3xb/V1PjxILjgNnMikgdMMJ4KDJeTNEddn0qADJlsbN9/1ZThOFMXvVFnhzlyHvZx5d23PHQasgwxzPvB40pluSAfBepP2aOFqysGBzKNLfUhuHMP++De/2Wey6bf6rDu5dhUkyuffOfNOWpW4mHNmtHM/zEE0jC4TzjeGu+ycX/elVNcB2R8+FEFhNBgRfNrR3no5oXiKEXMwcWpPB8G7/m3kNTKcY4wyXREEOjTnJ1rS0a/er3fxT8qb/K/sr6Ij476JuiX9nOTzXWtPGnCCGVlyzqYwoNYxwy/1mfXxXXksyUN0RMrC7H6gU/IaOtEX+FFj30SYcm2iZDO0d0hOmel4aBbQcIkgCENhdJ7MXWhCleAzq7n7F947t23d37nzWHvv2ufXzZuRdZpa+6rmFjS6L2NsQYtr6GPr/di6v2ug0T6HnQKPkgJby8ziIPDo3Y89SmX+KImy971TYKfAToGdAjsFdgpsS4Eb5yBsO529t5308BoAACAASURBVJ0COwV2CuwU2CmwU+AaKLA7CNewC/scdgrsFNgpsFNgp8CVUWDVQZDkIflmqybxRiKUBBnJOFs1JVoSD9U7d60b99Dauv4kBEr2kyw4u45TxzhEDzki/hyqNNiKnuf2M0uXtf5lW0vEkXW+t9dSoHhSou2j4oNTx5ADJHFPEifsgmqH+OCYrD6qfR/l91GNsXW/x/bjVHk7RPut9cux/s7dDzznOlzlirLSauf21+3Z2hg32d8t52ce1Z+qtVP1walzWXUQJC0CUdmyKadRXVCIa1v0DUJVlv4IOJH95riH1tb1l1C3M+s4dYxDtLj2z6zW3GfosrZO2ekyfLsKlXqnK1md5aF8F01lPMv6ldktM5kDKLtc9YxKCtnVsphV0pibLHyInn6vKhCVCQU0teX8xnUVT6LRTMnvLE1uMobMbSV+aINeY1vjgxlZPWfux965i1DVM3t+irxVfyoRVFSpflCxQcdD8uv4SrUTUDKHHdghKgLIjKqtEYmSUa3qMRgXKkNmoKo5l0rfYQuo9MBHMu5zfmRUdYjKDiW/X/rSl15FYbX3tb8qEFQuqD5QLUc2R8jo4hOVEioHVM4olQb0hxaHxhh1UI5h7ejo96rkKMCicX4O3Ek/cz30bsfbtd4OqtpedfSrfk6VhQfPP//8Q2AQJgmgRJ05CF5MUyWPauuV7xkYc6hjVmampBHqHYQoABfKERFdX0pdNAzmNyWGylUKoQ6DMqKUjFI7GApKJmf6KwQ99fJqcL1LYatFNoZNx2zK4HJcZWW5NuiL2lp/SmoYiq4/zJ3rVdo2M4bSGrgNsBbQk1fc9ac8qwSuwITMCa2UXxIuZUAEeKY/EZycc9F0ZEh9Kh1SwkV47Jd3cwx7kHRmgHMv0a9rBZyj3M68OhqYn7kokQVoU3DJx4xD/Xu+Ozpd6oadyPC/+nP18niasGtZFjuWmI4OQje/NQjqnPfa2kaeLJrac1Ez8qalHFF4uW9geVN+az9yjOQ15cu558bNsrqOD2qd4xjdnsGrwFvAbYAIKSGkF5JPgeBw3vAAEBxKmWOXNIBEV/qg5BfGwRoNxjl1/IcG+a6DCawB4GhKRpUUwkvIdcCCmXkXimXqoXHPrR2/2f9T5G2kPWMO9bMAqZQC4/3SJTUGfUqvijxwjJXkkgPNestBYGgZZpD6SvTQnOHK/px2cz843XS+MutCojWXnB+gMc6KPfecuXT7i/9gMFiTklN2ivO+tueeZTDJPH7LMfBN8hpU3xzDu/hQSXc5CMohc70FDz/Sz5j5LjyglLfRvhU/d3RWOZb0oztzLnTtTHvwxBNPPMRsmFrtOYLZJMzuj8bgYjLMj2k4DABPPKeemULyu80zaZ5tYY7zzDSeEgCLchAoIbX1iCOsrC4d4Wf6Q0D9MSz6w6BKAdXSi1DAArAmnmaO263tWH82i8PR9Ufgcr0Q8pJ+3Rg2mjLiLBkDg6lhz/6MUUob9C6AGKElQspIEFJ1+z7uMtMfocwxKGh7PHqanDxOon2C6obOlHaOgT+SzhRb7iX6dY3y0GAgMAgdTdHPuOrozd3fT2n57uggcOjwqVp4ig4mPzkoDIPOQYAISeDJBCwF1z/d/JzYADcxEvhzrXXvJo+bc+25iiPId5zClCNGK/fN+lJ+fZynGyN5TcQk91z/6SDg5+SDkv1RVjsaFN+jOUPjZEkpJp+igf3BJ2BvOfeUYtLAQab0QckvIJykgXGT7yn3HLfTfwyXAxXZYCSA8yi59u64DngNOW73Lpj2bj9gVTBidCosFnI+K2/ZH/3HyUAzpeH0toNejkGHqdEHNMSRpHM4ZAnWQ3bJIh0AYEn9Pv2S/Tlg5H7YS4cP/3VtwKDDS8j54QXG39zxHWdQNC37oxPtu+fJLxCqNb53CAYwJ7Ji/+j3HMN4yWvkPsdwwFMFaI/KQSCDOb8OaIquy3fBa6e8oWv2x9YmnV21J/3AF3RzmdGfr+IgEEqTqPyADJE7NVm0e1CNobDpCW7iZIP4jAuFwXsroJ8ROU1/PGEMypjWl8tm+xMKFp3wB4M67Racc4ZREhmvC/+f2x8G79Y7MwZm42kLPQFc4q0Dd8r+nGaFpggqVEJGcjRwhRzpVD3Tn+dyDIJkLdWE5iisBCzqxqhw2gwy3iGmLJqt0XSGoWefqSsG66kTqEiNqwbgSmhKKYrOdA6CyJfrBgrE1z4fRX5I8mQHNCXUn3JE6eS+oUvKL3CWbozktY5PC4nSyTmvGFLecoxujxgyjhYnGbKnk1vHB+SEIQAGU63TJWiQ+gCtkgYFcjTyPacu5cO4Hf0SibJbR6c70b5DsTy05+De8eoaVHWHRJn9MUacIoZR5MxpliGsd2sM9Ci+EilxCj2ERGm/gO84oI18Wv2ZR+4HhESyxcmDXAsx1lxyfhzZdEY7fW+OHMVyBPGIa79u36xPFIIuxb+iSzmGfUteY7hzDM6WMdkwToJoM/jtzh6lg+U7FvlufaBwtAsOW9nfeMVQdC6kx3F/ObdrtvGYvnzwzd/8zQ8lDzo5CU1YnBAOpoD65tTH6COUxTi1MMhOT4QmmRIDSyTRhAqd5HmHlK87JJ4/L5jRM4awrlOw350YZvoDKwoyV9+Ve+BkZYOFoIXPrAPD5LgMX65NCO3c/iixXK/5zYzh5O/k4XrGfDlTFG/2Zwx0wcy8XcKIfowYGnCSPvvZzy6CNdOfZ7o5J7MQwjQ0QmI5hg+jJJ2d7jqFhakhm/HyE1a0HAR9zczPfAmsD3s5vZyCAtrldRBC68PbhJ7y5ATMXjF0wnZovceEM3mycxCc9FKOfPQq960+yDPKL3qtjTHyGnTT3HMRK0mlBZHt4MDZ6uQtx7Duji5O4HhCpEq0seMDukcEUwSFnnL16U45aYD/Uh+gVeqwjme6cR128l2KHQImGjhdF9Z+rqM+aDTSfu3dbj8YG9EtepKesBez8tbpNYbZgbD0BqOSY4AYFtJHZ8+5+mFEOcacaEaV4XagcYXMSUYffIZPsz8RlNwP78ltQEProrftW85PZCGNd6fv8YIPjbFLnBuRbVGB3DfyzNbYU4dT62GjcgxrTV5zkMox6DnOp0YX1aesc70icUk/dMl35fWkvJG17I8MdXRO+uGVfHf6iuEHfuAHHnqZ4SFkTqgUfsFgCmFKDPEbKF93MMJJ7jQwEc+Q1+hdni0P0KZrHAGOh2dGlEbhVvftfvNvThyuLPz/TH8IyLja+GrmaVzeF6ZwdUGZdOPm2vRxqD9JMhwPhjr7k+CW6y0FKCRY9OvGoNh48ZI2nVqM88orr7T0K7p4nsOmMQRCR+5HOV/2Y6Y/+93NOQ0WyGcJOE5jvGMGgDOVY/BOky4EKfeS4UUPITAKYfwyJ8UgXMZJmp2f+QrfOnnizVPayGv1nv2q74lQMEKlogn23fVHzZmCwEP2ykmT4vSna2vrPTbXjsc7+UDTlKNu38hbyq8IYPL9OEbxmpBn7rlTvvAymHVrFGqn8JMP8EyOYe0dXeRr6K/gp9f4oNahH3DJ5pc0GPVByS9aJQ26hOlj45b+E+0Qgtfow4KDz3X49xy3e3dtz62NIyN8TQ93+rSTN/uRtOdQ20u6glGk9603xyg9Tket6XHXKfiesWWMRZ7oo5rfOOe1/ch96+bH8ZKv5SqEHi7+KX1f+4vXRP04ChyqctiS9qIKpf/IcEWvc4xx34rXrKkbo+TZoYouNnbOL+1H0S/fpVtS3uihtf5GOnf0M26+W/kQx/TQncRBoKAx4vjxJHdSFKPEF6EjzsPsibLr7xjhTv33rce4K5UNx+hk3zCvE7s942Wf0kS2RKoYlvvUtuaXjjb3ZYz7su9b78fW/d0XOu/rmKfAnXQQuuW5++OlCjvyJP33PjfrdYI7NZv/2mhiHUJ+nLlz1iJsLLn1nHevjRb7fHYK7BTYKXBNFLg3DsI1EXWfy06BnQI7BXYK7BS46xTYHYSJHXQPJ0egKji6VyQISuh0P3mszfR3rI/b/vfbXO9t0e/ccU+hVbev5467xiNb9zfLizPj3hda3cV13NacLzHuJcaYlQPPzcjCKf09qmcfvPGNb3woI15yg4QdiSuSWySNVSvDJ8NbAoW6T4ly3T14965ENwZWZrr8ADXAXU24cHPOxRz8LsPdfbNSG0lxgGCqyaSVRVzvyqR1l931JyRtHpIZgceUQZdspKTNXTgamHM12cdKktCoQwizZomaklckDB5r1R/Esa2bhBwZ4Fs0iTLKjyQpjaVst73eoh8wqm5+5659bb3JB92+reWEnEqrbu5b88tt028rObokre7Lnt8W7S8hH7e1tnP0zdYyfc4cZt558M53vvOh2lilJBK9ZL3KLrcAGcKa+lTlGOriYQwwhEpDGFk10lVyJJtUdmy+K6NTdufb3va2ZRxIV8oNbWiBXyhveutb37qARoxz+cpXvrIYdPWllXmqL8mIjDHGUyqpZAWeP+NoDQCUOAzZH6dBmV0BDSnLlNUqKxugTUJlcigAOUmgM1au179Db9SsieNjTfID/JtcCHSpNvYnu7TWz5B4zvNJF89xsLSCSB2f48z4Yx6y7ZUQamv9rTGGOfij7Mm7qkCy9Kdbr/7QXw4IJ3MEMRrXi/b+jr/kHRgDvWq9+pFLgHYdXfz72J+/5/z8Vv0VXfyWazNfczC+DPBCFez668bNOcuwvglvPE70u6kc3Rat7sOeX4L2owyWTF9CPi6xtq11GF6mt+l3epNupJNSNx2zAXK4qmw8+ZRuW5OZY07CcsVg0UrMZL2q+1Q6xugrPQRiAa5SLS+0PeUsDLLn1FdCDINYpYLAKR8uQb6rX0AOatXVdypDUdKjbEw5itpRNb516h/nUmVX0KsYf/PBbAyReam/VZ6mdroMk9Id8J1KcHJtiC8KMsJdqk21Ngho6SAwuMbQFwbM9ZqzU6z3CyXSc2qhRVnQjWNVZSVjf5wuGfgiMkBGrAmSWNJFSZSIieiGMif7gobwK2Au6Md4jBuwK7X7mhIeJVcdnZMx1OIq8dOfOlp7KFKTBlNJU65XX0rmlOJwskR0qo3rBTxiH+1N0ZkgcGjqhMYpVWKYdFGXr439dQ6C0F3ShVORaxMV4ehyNPGE/19zOHJc9Mk5++0mvPE40e+mcnQbtLove34J2t8WrS6xtq11mENxwQuwoUpFRcNTNxXs/WgDHJBTt7NtqZvo4zWZmXIQnKadvgFMACxyenPaNwEgGaBKhd8pdoZM1rgTPSNf4EocAEba9UG+y6hAcwITLIwrgiD6AIAFohgjJOrgq3A5F7WpSuH0CT+BgTSHUuZO9iIC1fTFuCCwU3b2591EsxKWh52glnl0EICZQKSCFsezw4C5XoiSWqIIvutd71qMmfpwxgkwRfbnPVcXIh5Ou76OZ71JF+Mm8I21MbZqxv0BZCLSkwiOIijZnxM6x6sah4KDYD9BXo+n+7UTdaLl6Su/YJnrXRMu8y9QosJ4SLq45urol/MDHJJ0sZ5cm4gCRLSCKwXVDbmsW2+OSwHmnG/KG48T/e4ire7Lnl+C9rdFq0usbWsd9rM/+7OLbaCD4Sewg3Rg6iZ2M22AyEDqdofNTp92+uWYc+DfX5OkyJgJtQvzCns41TlVAyIRVaiPSDDA0P9MuO7kOQx/8zd/s3g/+a7wiff1X/05tTn5iiBoIgv13QZ/r7k40a4ZKYaXIeGUCL1zckQjRDkAGI1t7C8dBF6bawxz4CTpU06BvkQgOAnaeI9W63VK7xyEDkUw+ysHweZXY+CSLiIkyRxyJyTe8Badrjk26M9B8E2McqK6/kY617gcGsBAUOHGVlGJ+i5H/VvnIKAhh69arncULvtOOCBHcooKBwHAldN9B0Pb0S/nZx1JF05Arg0fcnTxOAcNjQs+WBRmXG83bs7Z9UrKwim8gWaPC/1uKke3Rav7sOeXoL39uQ1aXWJtW+swukdUXHSczhP9FHFP3QTltTskdja006edzEw5CM8888xDIWNG3CmacWXMTRyUJhQ9RoNRFSr3xTGKEOKdyEChrbluEH2g5PJdEQmKX24BRU35un8WkUAcOQpQpZxicy6uLDoHwdhC/9AE3f07KcuhkHioQdxyJ5P9mac5C/17VjSjvubovYogMLA8OuH9ahgw1+vUzAiD/nzppZcWNEknznQQ5FJkf65SwCVD8uKEcGrML+niGw3JHAwbR4BD5h3GFq0gXbruEP1x1SLHIvvjZWbTB1hW6+Z8cKjMWWgKUqETvCsE7+Z6OYt4pqItnsHguV5OgKiKJFC8JuqhX9+P0Oy/aJArn6RL1593cn7Wm3RxxZBrI4SSHCW0+pqp6BYBzf5ErHIdeCfnLFJ1Lm84QTxO9LuJHN0Wre7Lnl+C9rdFq0usbWsd5jDDrjrkslUOniKgqZvYmbQBgAJTt7O/qZvYiNQvM86BZ/YyxxVKVcKLE/kWbev+tpjTo+xj6/Vu3d/s2u/LuPdlHd2+bb22rfu7LV67xDouMcYl9vwSY3S0EvkWpXZA930MuQa+IXQtbXcQVnZi/IzpFpu1dX9bzOlR9rH1erfub3bt92Xc+7KObt+2XtvW/d0Wr11iHZcY4xJ7fokxOlpJuBdVlb8nmi0P75ra7iBc027sc9kpsFNgp8BOgZ0CV0KB3UG4ko3Yp7FTYKfAToGdAjsFrokCr3EQJNpJUvPJ5y1a9QeiWB2/JLrZz0weGl+t+6H+tl7HTWix9VyO0dSdlqRSlQ3orZwUeuUa3U+d3yzt1/b81Pl1tD91zvpQWTMCVo39zvZ37Llc2zG+UQ4GR2OrD00dm9+x+dS/H6LVbB83ee6cdTwO+7vLwjxXncNDXe+XlIVDcz6mx+cpc9qTr3EQABnJhlfut0Wr/hBZ+SCUxRGy99wxVDUc6m/rdZw7T+9tPZcZmip9hOnA2RtLf7p1nDq/Wdof2vNT5rfFnPWR+BBjv7M0qOfcGQKmqgZps/4+ru0Y30AlffHFF5c66C3a7DqOjXWIVofelSmNNoCuAIupSFEdo4JJlYcKH+sdkTb3/T22G4f//Zw9f5xkAficqjm4L/AFAPypBphtl5SFQ/pFRVoH8z+7jnOfe9VBUFqmfE3ZBDAg4ESEGbIdIildUz4H+Un7hV/4hTcAGPJ3YEEQ9CjHKhkc+/N8V6qoHJKh/+xnP/sq1gAvCjCRenpGTomk2lDGzqlY6d1af34fx1X/TmGJNmAUCtk6sj/KXWmicjiKzL9bR82valQlmSQNnMy9i1ZAm8ZT6qVpCgyIMtaUfHL0OAjq+Clv5YgcNLCcSStCZK9hSygTVF+r7K9b7xouxbE9P2V+MzTt9g0Aklpl/KuEEk9aGz4tbAx/V76YNPD35L/CkxjXhkbKgZViAqd673vfu/Bv0l4JU85l5EmQqGSLg5CycMp+5Do6PjVHYFRKTM0buhrUztxfgFEdrVIWOtpTwCBhgX4pDVWyVXDfSo6VziqPNod9f+flbafVPK1SFpTVw0ah9xxa6H+H4GuShZxzp1/IaqfHZ+SSLVvjoWOOw+IgMMLq/0E+MiodWpTTv38vABmGkTKG/AT6F5gSTAKnhuyvM+iQESkjxuiXf/mXF8Wh1l3N/6/+6q8udaAyOqHbCWv7NzgLACPgJnRGKsel7J1gYCIw+sZhJLM/xlSDpQCtkXPCoQC8BHIYDDQMAIo3aWAu6GDeTpL18afboKkxMQJPdIR9ft/73rcYIqiYAI6gduX8lNcwVM8999zy1Uo4CjJru/XO0L7b81PmN0NTc8594wQwgNDEXLVwEPCmkwNe0xhH+5Y0gI2Q/OfdfE6f4MXRk3MLrpnx62ifc3GSKZ6EWmlf8HbKwg//8A9P70fOj2zlvsEzwc9kyFw52xRmPue3pJX+UhYo3aS9CIFabrzHceKQjw1uCZrhq31/5/d3p9U8rVIWfGeH7seP8Fxc50H1vSZZmNEvDjupx+mwWbnseOiYc+DfFwfBR40oDh9DgnDYOQjQ9ygTgA3uTRlDRrRDvMv+OmNhDKFI3hKnA1iQexaOiL6rcRQA0DiBAKmAgFeIdyIN45VFjsuA+J4AhMEK5/poRfbXoVQZn8dGmWmAnIDqdDToCH0bNK15JOxzhabsL4eLIs/5WatcBf/OmPCwOVPdejsHYWbPT5nfDE3tb4KHcBA6FMsuVNjtUfKfeeRzH/nIRxZ+JNicA2ifnGRtjfbFf6J0yZMAolIWKLbZ/cj5eS/3zdx8Q4XTjJfJgGhGt79JK7KasvDud7/7dbTHV5ooHCdf9E7ET5036HN6g/O61jr53ff3f7fk2mnV66ZOD4lqOfiIcjvAAta7JlmY0S8icanHOxt1SC5nHIJ8ZnEQGGg1mARYc3XgmoFSc8pxneDfoBdqTuJOIEKFwtJO4BRzfREv+/OO7wwIhzDowraQ9OBIO+n9yq/8ynK14SQldOkDFBwVxsqJg6GCHOg0z5Hx9+yPZ5jjMoj6FEEQ6XDyc/LJ/jqiOmXCw3bN4c7U3/WVNPi7v/u7JbJA4Qqr8uq026CpqwNK30mNQrY/rnCc6iq8a994ozk/CIwiQJXgCHnQ9ze69c7QvtvzU+Y3Q9NTHATPCrW5G//617++wHonDZyUk/8YqHzO6Z7nLiLhq6a/+7u/+wZ80NE+nRUoc8mTFFjKgmjE7H7k/Myj2zfOADmRTIlX155LWnHMUxbqq68cB4cEMv35z39++ZImJ5zckGu/gzKHcOkeVeIsZbfv7/z+7rSap1XKgkMnPifHbAcIfWjA1yQLM/qFTKUeF+2bkUuOe8dDMw7Dg+/5nu95yCA7RVdzZ89QUOgmwfjz/AunX7iG8DP27pU1d5lO9k8//fRi4Mf+/DslKFqgb3eTjBTFQSkz4FCktA984APLlyE1d0VCI+52KRaKzVwosOyPwl9bh1Oe/AIbwYnJ/lyrYCCOQsEJyzuoubhTtT4no6SBeVLGlKQ1U8AdDS5BUzRB02ocKlEevznxUtpf/OIX2/lxJEB+MlS+k+D/hcK79c7Qvtvz2fnN0tQcc9+sF08JKzLgDCGnwKna+u2D6ywOX8enyX/mks/pH286jbuS4iRQQh3tcy4MJZriSbzMcTW/lIXZ/eh4Tf5It2+iI4w0PnV1svZc0orzk7JQUbdRZjheNS598Xu/93vLYYOTP/Ik2ZqRmX1/f2Uh206rOd20Jgu+HcRRKLuFptciC1ATT9Evox4f7WXZqE4uO3mbcQ488+AHf/AHl8891yeCZ19ce05S3Jb9zc6nG1eugYiBcK2rCneja6Vus+PMPLc1DR63/joa3xYNth53hn9OeWZ2fpIU3b2KcIn4HaskOGUOWzw7u47ZsWb7m31udtxLPLf1nGf7m33uEjS4iY64Jlm4dprea6Akp0VJYU6Zwu3unva2U+BxpIBrAk6ByN3edgo8zhTYZWF+9++1gzBPhv3JnQI7BXYK7BTYKbBTYKTAaxwEiVGSIar2+6akmu1v5jmZ3nIFKhHypnM75f2Z+Z3S3yWenZnzbdL0EjS4xBgzdL7pPGbHmH1udj6z/c08d5u8NjO/WZpc6rlrn/Ps/Gafm6XrbH+zz82OexvPPQqZOZUur3EQlCbJgP/CF74wTQ9gML5L3bXZ/uq5f/7nf34NypWkNtcD/qvs7kMf+tBSo3+sbY1QN65DBrpkSY6KhJFT2iFaHeqH02ZcnwStccffYC8U/kL1c400lSgq6VQ7h36ztM49OoYmWf26m5dUJx+nyme738Z5HOJxe2S9+EUS7aF7f8+hz6G9PCaXs/I2zn+X31muesMbbkN+7Xnx8//8z/8sIFQ3bZ0Oy9+U8OJf/Ig3je1P6pdr58l/+Id/uIjOOXdPRp2oDzlCigPS5h3TQ7Pjn6ojXuMgKNdSGnjKKf0QFOVsf/Uc/AM4B9VUPfz0T//08leZvFCwlD8ea1s7CDW/7/iO71iytDlRP/IjP7JUYwBVmm3nwnZCtpMxTxhfeOGFJclM3bxkGzX1/mvfRkz/a6QpQ62MUOYuZELlsjLkt2y+b5B79K3f+q1TMKWUIgRGZYzlIHS/jfM9xOPyX1TMwA6xfyoYuiaZluCq5rGXaDRG8U6Vo11+X0vluyy/qsTws8oi1V1KziFWnts6+eAApMx4js5FO2P+1V/91Rv++q//+tVh7wpP+pzyo9Y55+6F90ad6O8cGiBsafOO6aHZOczuW/X3qoOgLvSf/umfFkZQRijBD4ADpaZ2lFcDSpiRpnCVjgDUUasNKEbzXH3HYeyPglQWqQTN/8NWqKjD+ByHgEL1X0AWNhf6FQQp9Z4jOmDOxXyBYEjCevvb374YbzgKStus4Zu+6ZsWRESlU0oqzYHQqbhQv63URJmWZq6lzMf5FfrjiMPPoZH8qKzL3KE/chqyP/XwSSub7jkYD4yJOl14Ckn7V155ZQHlQW/gUEriePaFuQD4xpyVy2nXSlP8VLgAAIMoPwieM3vkA2JJq+/6ru9aeBK9nYDs/b/8y78sqITjHhFCDpR/h5aoht++Z3/4pQOBWoOWHukMhEXpIueUI4in/vIv/3KZl+jXIQcBgicnAViYckKwqqWMxzHsLchssM74gCxW2+X3fspv6TRAXHiaDoVJ85M/+ZML0qbDgzJbuiD5Gd+mnnzTm970Ovno9BpwrDUH4S7x5Bg9LJ1DD6TeUAqYeujJJ5981abop2D78104A3S3Uz+EYbq4s6H0eLYuusm+ps3zXuohe5l7DpZgxpbNOhSLg8B4Or0APWHs1gBoMA0YVqA7jDgG7U7F2Z9SQ+E5QEVq62EaCFflc4jMyCGaqwR14pShlgh1ORdOAc+aIMEkUAevvFE9uTmqN9eXckf9+jfgEZwbjgEho9xdc0BM1HJ+wkGcFOViL7300uJgiCpwPBggDhKAImvs+ktaCWdbh/pcz18zHAAAIABJREFUQEW8O2tP9DgMCGCHg+GawWmzogWYyUkcToPw4zXT1NpEXvCaSAiDiA9m9si6k1acMXvNMUMPPOC7ILlHHE1RAY5VRZfsUdffrIOQdOb8UCAMPD6jRPH5E088cdRBEBHisFBgIiocC3ueY5RQm2N9k6Tj011+74/80rPwJKDB4mM8ju+Ln8k9WHRRo+RnVwSpJ+nXlA/P5W+c1ve///2LPaArGU9O613jyU7n0N2pN1wXpx5is9KmsHn5Lpvj4OEwQP/TASDbOz3eOQgOLHUgHQ82o83rHITOfrjKnLFlJzkIUOGc5hhR7RSEOkbPn/ELWdkfZvvu7/7u133JMZ8TQpOYIczy7LPPLqewwmc4BmHLCRGV8A5USAiPjKeTOVRAIWO4+QAzoDhidqBAjLLQPUNvTIJnw5xEc34jUQHwiHJ41385TkJxPuKjdf0lrYzFYWEoNcwoz+IQYxnLVYxoj7UxeqI5xWDXTFOREQBDFBovniGFDjazR04zSSuOXgf1XftUeyT6koiGTgddf4wvPrRXo0HO3zreMB7HgKPrj7bmIEgWAtak4QMgXPZVqNdJQyRvjf/Gd72/y+/9lV96hT6kIxgdBgDCKbkB/OZgQvbltyQ/03Md7HjKx5hHUDIjGtZFEO4aT3IQUueIvqbeYKNSD4nYpk0pB0Gktxrnir6n0wAVcdo6+P6CIh/tyKH8qM5BGPVQZz/oxFNt2SFn4cETTzzxUIh6RD48xUFwImRoGazPfOYzy1fysj+hECc3pyOnXCdv99D5XH3oxQduhOxFAYRshNFssusGDgAnIhmfImZcX3755cXzZTgJkz543zZbaOipp55aQmz+nyfpygEKHgbReOkiAk5oOT+bycsU0jZHJ0bwveatTw6WNUKoy/44HEkroE3eEXlwAuCJdg4CGnCwnKKFqnmZ/u7k6bSpWQvmvWaachDyk6Vgm2f2iFAnrdyT2j/ol4wqenZ7xClMfikUw5H2fmOo8RnHFE1FmPI3vJ50tgf4wP5wRkXACKq/gy23T+YJj4Pj6v9dS3AS5D2IrtX9oG89+AZIN0a+iyd2+b2/8ityyNnEG3SM0yF+pgPoUb+JIIpWpXx0DgJdlzpMf/mbHKd0EEQ67xpPdgbYFx5Tb3R6CDJj2hRQ4vkuh4BD5XrdVTgnS0RxNoKQOlF0M20epzD1kDyl3HP2bcaWTUcQnn322YdC1yNMLIaRDOg+Q+iW8fJ3ySyUKGK4C6O0KSh/l6ltwpLPsj+TwZj+aEL6FTIfx9W/sSlHd636078TUzXjd3MxR8+Zh3/3nPmBjRX6sQ5/XCv4rcZw7+zqoLDrhZrc7bqXy3V41/yMUc+ZF8MnbI45jOu57M9zSav6NgG6OAGYi/9P2ltb9VfrcN9lLiNdOA0552uiqbkUD40MOrNHaFA8VLTyntC8hnauK7o9GscdeTf7M4ZwqzwZe0zp4qH8jQPY8Tg+8q4Tnb6MO/IuZ4CDjA8oAVdZVdmQNOj4r3hofLd7bpff+yO/eA9v4KXSOYyea85PfOITC3/Sk/go+VnkLHW2/lKHdTJDv5AB+sbz+FaEouP75Odr48nUOfR16g2ylTJo/WVTwNazVWid7/o7/VzJwfQ3XZR6fIyyl/7rdGLqDTbFu51uyj2ftWXTDsKb3/zmh5hrK+wDxJ/pb/a52YVs/dzs/ISEGQXh4dtGqZud89a0etz6uwSdZ8eYfW52j2b7m31udtytn5ud312U39my3dui6SztZ+c329/sc7PjiqqI0opES5IWbZypopvt/1LP3YQuO5LipXZpH2enwE6BnQI7BXYK3CEK7A7CHdqsfao7BXYK7BTYKbBT4FIUOOggyI6X7Snf4BqaXAL39mOYR2mYJsHvUJt9buzD3dpaSGm2v9nnroG+a3MY+cB9pXsuddeJ3njKGmbokvy3xX50c+z4qntuZs753hZzPmfcU/biEs/eFg8dW5t7ZvxMr9ykbbFH1zSXm9Biq3eLpio41vbopjbqnH17nGT6wcc//vGHsvGrAVnwdwkRL7744lJ2tYYAt8YISjFk7EtGVL0gg3+L1iEkqhGW5at07lCbfW7sQ4kR0IuuzfZXz0liUYmhffnLX17qim+qlLagafUhabTm5zcIjUoqkw/UBqv0kMRUaIPnzGOkX8cvHf9tsR/dXGeRN2f3fOeh/0eBS/EQkCnAQZo9Usk027a6zy/euKa5HNOJszS6reeKpt/2bd/WIqHexEbVmnaZPry7Dz75yU8+ZBiALgDRIGgUpjI+TfamBEbZq7AS/vZv/3bZLIRVfgfxSZmW8j6CqcQC6A8cAhmWMjBlXStNhEMASOJTn/rU0jcYZUAcKgD+/d//vR2Dc6LOFECHz3QySsr5NKUkQCnKwVHqyKP8tV/7tdd8J2F8zjrMqzLOjS0LldFTRqI8zdrUuaozBZykKTNSatKNa71oIitdeWZ9VnoclyLSHxTHH//xH19oLTP4EE1hNSi3Y4yLBhJmQHGiRb4r0tPRNNdr37KN8/NvVY2RfODfOjCh5AMZ1JxEpYgacK0CoBrp0vGLd3Pcm+yHjO+kwRpf7Tx093gIGJAyNSdNSWV4jZ4qniw5wocpqyp/qswMzDV5V4qa/Lym/1IfXNNcZnX2mqwm/VTvpB6nNzod1unEc3WEMaxFGTMdrERYuW/qCGXFqcftzy7Tr5fpWafvwYsvvviQwYZGp8a1MAvqvwVvLFOfcQbaAepThifgB5gDnAiG2X/V5XIOeHdKynixajrB4n7sYx9boHXhDCghs5k2T604Q++UnWN88YtfXEoiff9ANAM4CAdBOE6ZD0hl8ylGEE3wTJWU5HMwHoTJ1aa7loBjwBhyjBjvn/qpn1ocDkbemigbDWMy6NkfQ61PzynxVDsvYpLPjScV5ZDKOK0p1/vHf/zHy7iudjhTwJcY5KKBtaEDY5vvqodOmqJ1rncNsINBl6mrcfiU2yQfdA6CsqbkA2F7MLGiUBosio5+QKySX5RW5bhOEefuh3UlDYQJO77CjzsPvVYur52HRlhgDieDBWQm5QgPpKyO2ByAu8iXsr7kZ2W0KW90T8r5Nc1lVmd3ssqxT/pxwlKPu2ZMusBnSDp3NJ3VEXQnrB3w+DAH6E12IXWE51KPi9buMv16uzD7vZYHv/iLv/hQhIAxZxAYX0ZOSySnRJ8iDONHgn7jN35jOekysE7LFLPTuJaMxWu12U7yBBpwkShCjoHRhCoZmDEU7LTPuIDsPVR6ks+dAgLVwUhnf2gAlc/cxpbPYV6ne46GMORHP/rR5bTS0RRICYhVysqpCMhTR4N8V79J01MQvZy+KkoyXjccg/zs+IADY40UCFTAT3/604uDkHQBkpT8Ug5MjnvufnR7DjWto2nnWe889L+mQV9ug4dGowyKmJMsQpdyxEilrJZc4lMHDc5hx88AszrUzk4fFMDQbc8FL8/o7E5Wocp29Es93unsTifeREeMhysHUIfLTkeMzx27NnzcZdq+zbQHL7zwwkOM7ATMKAjfwPp2woJOJ7QrCiAi4MTOQyvvwykcKlXd0wOH8DzP1R07r89mwkVwuvYNASF4ninDDplLKFBUgWIhoDkGowpgxslWmF8fnBinU0Zn/LKZOb773e9eQvAFQJPPneIgyMfgrUKHLOCL7A/tXBlA19LWnuvuOtE41/uOd7xjUVAUFchoSFlO6EkDzkW+a21JU3Q+F9ELPZMP0NUVAdhXc7ReIfzkA+9x/jTC6o+9Tvp1/OJ7Ct245+4H+OukAeXX8dXOQ3ePh8iLA47DiNOsq075PSlHrupSVvGtKwb5Nv7Ih1nj55Q3vJ38fE1z6fRLp7M7WRVtSfr5JkPq8U5ndzrxJjqC7tSnq2P6ENKpCELqCAepDlp6l+nXy3QdBI85CQ9+6Id+6CEmZ1iF3CWCuZP3XyhSwu+uDmywqwKhd3jz//Ef/7F8YVBI3r85Hfrdv3M0GDUn+49//ONLroLrBf/Gu/63f/u3xbgbV+hOfoHfGJscQ2hZ6BzDapwREQ/MQtjHxjHhSLivMpZ387lTHATvC2tRLIyTNWd/aMCJgVHOeFo7Y5TPdQ6CE3FHU7C7QnwcNAIhh6NogA4iC+7z8l00T5oyguc6CD5AknwgoiFkR0jNBfQrZyX5gAF2FaK5xvGc/Um66CP5xWmuG/fc/fDlw6QBuOTkK47nzkN3j4cYMrrHwYVewZtayhFDkbJqv8uo0FUgsUVQk58dajrdlPx8TXNZ0y8zskqXJf04CKnHO53d6UQ2YGbcTkfQna5z5Fi5Brc/kqVTR0Ca7ByEXaZfL9Ps4Ey7kzgIGMamu68/1GafmyGUZ2b7m31udlz5CgQCFKj8Bdcx9aGf2T6u4bmt6bJ1fx2Nth5jtr/Z52b3deehWUrNP7f1Hs2P/Ponr2ku176OrWk129/sc7P0u4RM30kHYZaA9+U5uQXqdUVzfKzKdyT2tlPgFArsPHQKtfZndwpcPwUuIdO7g3D9fLDPcKfAToGdAjsFdgpcnAKbOAjunCDrPcpWKGPupysB8Zzx3EPWfLt+jKMdKgO5yXpv8u45631U71xqHTP7ccoaZ/ubfe6UsS/97KPYo/tAl7V9mF3b1s/N8sVtjbv1/Gb7657rUAxn6XKTcW/y7m3Nb4txb+wgqGWVGChJSLXDBz/4wSVRRAmZLPwtmvIk39iW7CZpUKj93Ka8RQa+hLePfOQjrwFU0qeSO+BEwFW6luv1DIAO4CrHWvfusXdu89/X9vIm65ilVa372H509Dk0xmx/s8/d5v4cGvtRyeVt0wV2hT8qDg61jneP6abZtW393LiOu8y7HV0kd6uM+4Zv+IapfTukTz/84Q+/4emnn36DqqSxze7HVrJ6CR02M9et+PnQWNMOggQLpXwy+bUqT/T/ELbUHSstkuH+nd/5nYuTcBMo3nHSslWVXqqnX2vQHJXd/eM//uOCMujb3eaqOkO5JeQ8/w6ERxSBkyCzXVbs2Pz9Qx/60LKmWi8wFVmftfZxvd7t6vPX5pnvzjBC94z7J9UMsvGhwVmb6pP8TVlS1WUDXULDzvlRJkaYlS15noMn32FtL89dxym0su7aj+5b6mu0OzTGbH8dH6gmQSPgK9fSLi2Xl6RLx+N+q0z1Q3vQ6aFjuqnW5rCjiui///u/F8wSAEpKsaudykO3xbtKGmdkfyte7uhSeASQTGf27ZA+pYdVlKl463Q2OqvkKoC52VI+fak+UeIKrVF5tqoJnwro2rk6jM6cpcHMnszyMz6AOml9f/Inf7JABawdgHPcBx/96EcfIjzoSmF1p37GIVtXpkd4nMKVwxXiovcSireMD+MsRARAx0ZDb6zyRWVwa+ANBHQsaZTRD6AJKBAgEOVqxnj++eeXCIDTBRAl1xH+7t85CDAZxgaMSNlTNY6EOYKELnhP0RHlOQyDluv1dxtQ8MW/9Vu/tWACCO9AZrQuICuMSr4rCzVpwMky1kir7mNZwGBsOPyIat1vI4jMIQcBoJIqCTTRCIkSptzLbs+7/QWogikLC8E8YTIkrdBN+RR8DBUaY3Ro3A8OWvKpMtrZMaxp7E9pLSWgTzzJmS3Dn3xQQq1cUuQJsIy1QBWFCQF3A6iTPoT1leEq8bQu+yup1MnHvno+3+X8ljOtH3gf3XpvWy6P0QUia9KA4/rbv/3bbyAXooBoAmkveVyZcNIF3ZLHySVdg0/s3c/93M8tPNbJTAcJ3v2WvEG30BWUKd1jD7/yla8scjHSwN+vmXc72QclP6Nzuv1wKFzT2SNd8HrxvdM2HcxBIKucLvvmN/Ym+3Og63QEo6a5ysZTnc72G10P0weiJr7DLzWuyjfv0mH523iQghzqoOSAlHLZ6Xvw9/ncmk1JB4HOTZlhO1I34cdujBl+xgegr+kp/1WqfpKDMFsnz5jWB0Cc6qsdQ9p717vetaABKktkiD7zmc8sG63+vRiJQVxrDDZUxrGZy1NPPbUoZoIspKovBAMTrKYZkxc+AaaldMfTHwYSttKEwPRDISkhxFiMGm8VVgPHyX+1Ywh/UPqEwaB+Ca8Zt+Cgx3fBVScNOloBP8omWsD5ADcKp8KaKcr8DaIlw4vBChmtY44RsXIca40Bx3V0c2Z0f/RHf3ShIdqBU4YzsOZ9czKBn1TL/VjDr5gdI/t75zvfueB3oBc+4pxyKDs+8J0STifD8aUvfWmpteeYqoHHK6DCXX8Bc8GDTk1AdZwY/vM//3NxODmLwMPQIN/llMG451xwbClbzu81yeUMXWCPJA04reUgoS/MDI5d6gM8nnThVCQ/c77pAvJVp1NGuutv1kHItRUPOqFB+rTvnY6o566VdzsHwQFkVufkftijTmcn/RjR5HsOgkoshs+/syN0UtffoRP6+G85rv3ihNLhsDCA+uG/4heRBcB6bE3+xihXtMU7+Jgsplx6N+fn3e65TmbSQaCHUma+8Ru/8XW6iTPVjdHxeI6LD0SZjfPnf/7ni559JA7CWnjkmINggsL+X/jCFxaZoiSFb9wlUq4UqZD/1772tdZHcOKw6WOj1HmKPEHKXYQBYf3mVGEM0NG16Z5zshu/QzA6CEBQzJNC0saISaGtjR7cGDHBMBh/THpkEIyJycxnzZlKGghtdrRa9Z7+b8SGE0KRjQa2fuM1z4QZKVzCw3k71UHo9tfJoQMt6WhlPEI2JobmfpwCcNWNkf0999xzy6keENXYOj4QDeDQEir7SckmhK3+8CRHyGmWIDJarnQoVg4GR64cBAiS1YBecbJc01EYnNZTILIvIZczdAHPmzSQPwTD39pEYISh8WPH4x2UcdGo+JljnHxFcXb9zToIubYa077b88997nPLT2vPXSvvkkundcbSlasIlPXM6pxuPzqd3clq8v14xeAKl86GmNr1t6Yj7MFonHNcjpoIATvDyIsEiG4yjECfygaIPuVv+i496UAl0ueKIuXSvHN+nfx67pBNKR7r9IboZuqmtTE6Hs9xR0cRDUSRLuIgQFpk0IR1GCghKKcFIRwf6RExED6l+BGV8XZ68ByhZng13hwGri8npjHM0LhxGXeeKGRFVwBCJ64YGGanL4pfroH7RHPxmwRHJ20Nk7pvqm9F8Dz155RTDgIngNF1ryVxEdJkt17KnDFwlcBZ+upXv7qc2jGs0Dmj0NHKb0kD4yetuugKwfINC564NaKDU3v+Bnt+xkEQ9YCSRimgi8iJxMvcS/ubNMDQOWcKu3MQOlpxYpwWefx1xZD7cYqD0I2R/REs3w7hMDL4jABadnyQBlheBn7FV64ZILihCSWkP3yIlzhJjKKIg4gXJ5Is5LtQ+jQKCQiWeQl5zkYQcn6PQi5n6NLRgJzbDzJKH0D6LEU/6gORsKRLx+NOR8lXUFw7mUneFT3sfsu1mZ/TqPk6eNRddPfcNfMuveVw8md/9mfL4YcepRNndE63H/a309lJFxG35HsOAp3IHoiQkQ/OS9dfJ79lE0YHIcflWLvC8N0eY1W0wOGTg152QaQ1f6uPdtF7jLYDk+hzyiXHP+eHtt1zh2yK5zlRnMvUG5zg1E3W040xw883chDe+ta3PnTXXJ86piwrGW801DwxwuAkUM1vb3nLW179OwH0rg3gwTnBU6DCsE4RFkNBOlERdJEDTX6A0O1aI6zCsL6S6L+YjdHzDm+JR+SenlJlrISu6pPQxnDPU2NINMModX9JuXvG1yTHDxSNa/PM3//93y/jduu1oeZhvZIkjW99mJ+n5v2OVhRbR4OkleeyWT+jLoej1tb9xkHwjOiM512TrCXfUAoMpyb50XO5lxi6o0HOGa2KX9CGs8H4d7QyPx4958pJvdsPc08+5UzNjIG3c3+tsebs/zmt9Rnq5IPke1dDTsYahVdJaJwiz8qr4CTiBzzpv+UgiHLlu/5uzfaZArcufV6LXK7JR9IFPZIG5MzegTB2t4zO1pb8Imcl6dLx86iHRr7qZKbTQ/mba7eON1xZiiJyHEUGOxpY7zXzrgND6j80ndE5a/uR73Z0GfkeL7MZrs/oDTztOo5uWZtLpyPQmqGTjC6K1407XvXgJc4peyAKwBhzHhzi6OX8TT5YfZpevglnvZNLB8ycnzWl/LJzh2yK9ZS9TJnpdBO9m2PUtfJoazt+Hm2ACJ8D55oNSDszXcWwar0v+A+UrQ8ndQZzdhoYBsHGXASOCyVQ+RWzfe3PPRoKbL0fs/3NPje7agpRpIrR58SKYFEmd61tTZdrWv/s2rZ+bpYGtzXu1vOb7a97jhyJQHHuXBu4Kp6lS5dc3/12k/l1787O79rHvVMOwtbE3PvbKbBTYKfAToGdAjsFegrsDsLOGTsFdgrsFNgpsFNgp8DrKPCqg/D+979/KcdS03mtzV2LMNMhwKS7sI6b0HeGBqf0P9vf7HOnjD3z7KMeV36Ku8rMgXnU486s/dAztzW/2xr3JvSamfN91xs3od/su5eg88wYs/P13Gx/s8+dMvalnz2HxxcHgdFVtw3bQP3qpZrkQ9nrkkdkh8IhAB8pu7lr5qjU0GbVN989p2RM9v2p66g66kpoPHfdErFkxdZazu1n5r2iwQy0c/U3Q9Nj/dW4krck2km+BGrivQKRmZn/qc906z0HnW2NBipoJPbIGh7bOO65++vuFA6F9sorr7xa5tvR4NAeHZIFuTOqJYCgbNFkbqsSGMFfOroY973vfe/yT3J3lCI/6u+xnLu+kXfdP0t0loiqzA7vnqo3zp1Hvneq/qv36TvVUZXsKaFQ9QxMEOVxMvH9+9p+SO5UTmuPVdgkMmHOc1ZPFp0lknalt1vQ+bb137XzvSTzkkv76OCDN86l/YM3v/nNDwHGaMphqqRO5rGSOcZb1YG/S+5TOuJ3p3gZ8Yy131UYyE6VbSnLG+KcJgtY9no+598ws+zuyho3D3WaBFeT1V7oh6oPJKj4o8TRexQwACK/cRxyHdAhEYyCl+lvzjJQ3/GOdyxIjsrRCrwm56cvJY4UvLIZWa4qFLq1yVZ1ElV/6884rvkbF5hLzaV+s8auP0ZYqQ2HqcouPTvSAJqk52QqS7yUHY4Jcr2zNNV/7rnqixy3A19Bn0N7LqNfVYQ5Jw9JOOrezXG7fSvwlaq4qNre7A+fdHxVgsQpHsGoRjqbx7n7C81NhrIKGEpdKSpaAIyh3PGK9Xd7JBE3nyvFPc5vLeGqk7fcX7LajbEGjpXjkh+OiZI26GzoOKMjxr1UNYU+nLR8F41yfh3fz/IQ3lVPLnEUJgVjQ2/dBf03Gm3l10qRlWHSncrDVXEBdOLocgBeeumlNlOdLCh9VAmgCkU/5Df55ZieLJle40n7Nsol/Tijn/V3zfqPvF0L3xdw38gb4/z8TibZm47HZxzdB9/yLd/ykOJgYAv8RykJZeZUoLQCDrnJAA7hbSoB4QBgUL/xQoUv1OMrDQGj6V3NtQXhz+c4GcZVWsfwUjAYg/AW7rnyGAwsC5zXD27T2LLB/R0ojVp0Jyhebq4DsZzsOT4Ug1p64WQnX3MmXICRlKTk/AAzOfVB36LA1P8TilwbL1zkQA0uHAG1xsZ1IjQ32beUkTKf/I2Hn/1ZL4fGGr0LnU5LGlgLA2ksACicGY5Yrte7MzTt9lwZTY7bOQgUea5Df4VB4b/gtRm95CHebUeDHNfJNvfN+ilFe4/+Ik/GyP7wakcDilR7z3ve8yp8a47r7+fur5NUYVCIVMhshirp/+0xY0fm8G/Oz7zyOaeXnF/nIMBpSH6m8FOmVQR1Y3QOwqFx7Q3ZI1MzOsLBoPYS0iZ8CLyb70JDzfnBUUi+pwRneAjvch450nhW6SUjdu36LxU5nQxLAO3AcpMt5ZboiA7KbNeqZegNEVOYLtU6fhn3qPQkHZYyLYLY8UbKpZPsjH7msF2z/hvl7bb5fgT9q700PyWcdKIGdkDEN2k/4xwsdscVQ53Wy0EgSE7MGepPZC3PFXyvjwQx8hCkvMeYAiFSJ+40nM857XWKqIPZdHIpxcqYUxIcFXXrjKzIRRFrRHUcN7PCZDxbBpXXXL9xGnJ+jApFwuCojwWU1K2N0qfYCISwHrCf+sARh2FE76qwW/1m3kmrtU9ZJw1OAQ6aoenanue4nYOwtucUC2AsDY3wQvIQunc06Nab+zaisx2j6Sx8a46rbvjc/bXuchAKjdNaKXZgRpQwfil0thFj3r93z+X8Ogehk0uOe8r02hidXHbjcngpdHwNPVIUa0ZHABXLvewQJrv5dQiTa3LU8S5njAJ1cGG0Kuo06o1r03+pzDkDvhHhSgEypQiXhl4OUTBY6KOKAI7v0xuFcli/d/zS7RE92cn0IZ5MBNtj+nntuvda9F8d/q6B79ccBLa4HESgVdUS8XjGSWgdBIAmmGb8EJDOUvg95w/PlQGn/IRNAWVQSLDqIRpS5N1zaw6CvurjR8aFuiXKQAHVia9QCiHP/eEf/uGriYvHGBDioiiE0w7hEmqjxHN+7gc96/QI4Q0Slznk2qxT7oYTiWsLEQSnNWFXoTygTNbi6iZ/e/nll1/XXyE9ElAGtVrS4FQH4RhN1/Y8xxU25wDZWwhgQpmUbEcXJ2RRHo2y4tx18K35LhrkuNAGc99GB8FVkT3t5qI/DkLSoGg7Og85rlPCufs74rszoEBaOJROXeSEvIhQlYMwzo8i7p7L+XUOQieXjEbK9NoY5JJiHx2Wbly8YA2iaMKYnNsZHSGcnXvZOQjd/NYgqGd46BCi3Kg3rk3/dYrcNz/AoouC5aevHUwYj1F/VB8Q+UQgRBqqdfzS7ZEriU6mD/HkKJd5EO0OcOUgXKv+M+dr4vvkjUMYD2c5CM8888xDJwGJLhJ2JP/xrBk6JxxKnUciCsDzFhmoryMyosKW7sAlKlG0TtuVUyBsyLhSHPkcg9o5CN43nrsc2SmmAAAgAElEQVR3YXaKhJMxfs1RDoFPMfOgCQJhEUnIdbifT1hW43Jo3Nk5UVkLA57zc1dnDN+KYMgLGjTXZn3m6QrCvNBR2FII0JwoZooWLfM3d67Zn3nlF+KEqpMGpzgIMzQVhso9l3+S46KZfXaKsb/esY+5jor0UCr2koF00kkeonDyXQ5WjitalPvGQeDEoj2aM07u/DuaJg1cG2n64ADYo47Ort7O3V9QwU5y1u+Ua03gbxk5OTGcBU4nRyvn5zSYzzHGSRcKwfzri5+cDOilyc9kIfdX9Kabi7HpAU4tBS/Ppxs3E9HQfUZH4PvaSyiX5JeRynf9PeeHrxKC2v7P8FDnILjCu2b9V3yahoDcuB7lYNKR+EoEGH3oWzQlv9nobNcEImP40j67akp+Gfeo9CSwL9HbUaZdL3S8kXLpSnlGP3MQrln/dQb4tvh+LYKQculDTUn77gOAnSN69TgINoQBklB0V9rW6F1b02C2v9nntt6XS4wr8kNpcQBV0IiEzI679f7O0m92frP9zT639bhoz2HmPHPCJRz7hPaWbes5bzm3+9TXJei89Riz/c0+N7ufl+D72bnMPnf1DsLsQq7pOR6bk6wrjGrdb9c058dtLvZDGF3YX1Ls+CXJY7TY9/cYhQ7/e51oRFHkKY3XiTfreX97p8D1UuAu8v3uIFwvP+0z2ymwU2CnwE6BnQK3RoHdQbg10u8D7xTYKbBTYKfAToHrpcCDH/uxH3sosU5ionvYLZqEN5m0kpxUCfjc87lNIpUad4Aqkrn8d2zuMCWoqWm+ZKtx3Z3KkegSRm46n1PHkEja7aWEQiWdEsNkzJ9Dv5/4iZ9YcCEkrHVNCdTavx2jw6F3x/09d4w1uhyb1/7vOwV2CjxaChzSTbMjn2MDZnXOzBzO0S+nzvmcMWbmfuyZB08//fRDGfv+yNjeogHrkVUNF2Ct2SCZtjLhlQcyXhwJQCYyLmWyAwpSQlUZ2DLB1S+P7fd///eXUkIJJdDqoFzJ1lbrWzXOW6wp+6hxR8yDrcc5dQzZv2t7iS4AowAxdfSzD4faMbjVQzgDx+hy6N2igfmdO8YhuuTcKoMaeFKBVB2bf/17vtthRnzta19bcBX0jcf9v/+q3OFQqwhSGUOG1OzL8of5wQFWC56/KdGFViqXAjKkvwMYk21OniqjXT/1m/nKXlf2tOV61xzHWTnv3k99AFcDzVTxyB2Bosrp3XIddEnSz/1xYVqUfjHfzBi3R7mX9qyjfa539l0HMA57ybIKHLrSnqpEw3f0K4TFHLd7F5jOlvSblZd6bk03zfYz6ojZd2Z1zkx/p+iX6m/U7clrHfT1OWPUWB1fff3rX59Z2v8DSspyQwYbOpdJYTiOQxlx5TGaMpa15KIRvMOzYB4xLWFWhqUsBqMCLVL+po4X6qCyHBEHZSOQG5Uzjc17ynqqgUE2R+Vt+lf2qFwHw3EQ1NJC5ZI9SvFCZlMSZCx9QyGTwU4hKKdS8sYhUTZmLsp5/uAP/mBBc6syMmOP43oXiqTyIc/APtBEUEQ/IBwqFbOmnIuoTdK5IiQ5Riki/YK3Rftch3FzLyEacr4APxUQVke/jluUNxlPQz+KWW1+rg291GNXWZXSUWtFU8wJ6Q5dOHq5Xoo+3wVCknRWt53PKa3NuRgjf1POlXQB/Youyc+MwB/90R8tSH8FOz4lSf8fFGl8t3MQGBp8IjkPTayV86O22nzGhqfAbY/OSv5mXT//8z+/ONWf+tSnFrn0W/FL8TXnusPH79a7xvdJh3x3KzmvcVQ6pD5QecIgKhkeHYQt922sUin6cUJmHAQ6J/fyUG36SNPZd0e+UgFCDgC6oQ3cEfwPE4TjmXvevSv6uSUfGEMk0zxqj6qkdtQHfkvd1PEQPTmji+mS1LHA7lIPMcgzOofeZjM4Xv6fLmUzOr2R+mXUnRCCRb8L42FNt4+8lvTDfzM6TOJv6lglsZ1+mdFrrYPw7LPPLnXZDBCiQxGkeKG+UUS8+DXEP4M65TOqYzNpmeJOUJ/85CeXfyLoPhoClhkgEcaC/GQjgMwAQfJ8Nd9gcN2gAUaBT/DCCy8sNeXeRUAnaHW95SBkzTRh0LcGYAm+AgI6fQHjobSdwAqKVC02J6Jajkv46906ZTM+nB+GE3OhI9ClnEuhNI50hvDYjfH2t799cdQIPkwGXn+uQ39rOPoJkpFjdMyC/oyZ/WF8gCN1a+MEpUeOLmjrZPM7v/M7i1MIZyD5yno7b76bXz5HmSSdObL5m/klXSjjjp+9D42O4j215bt4Ev9wkChvOAb4lXNQ+Pf2FX4+x5lccaILY33GQTBHzqeIBAcN/Dna65ezbB36o2DILtkQWShwnbX1Jt93tOje3ULOa6xOH/jOCfAqUYnRQdhy3zr6Oa3POAj4Nvey0PeS9knT2XdHvtI3x52cMlwqc+g1vM3I5J5378Ja2JIP1hyE1AdlMFM3dTyEVsd08Ro2TDfujM7RH+dLRRogMIdlMtbpjdQvne603jXdPsoqXptxEDod1tluWCudfpnRb62DYIMN/uUvf3npwwYCI6F4CScvzamFkeqaU5RT/NiEODkGNsu9PUQvJwQeGYNnDKdUCoDygk1PqdWHm/TFAPtds2muFBh1rTxjKGEao2YNaZRBUJqbSAK0MP3xZBMGeS2nIMft0MA66OZuLuaZdHaP343hBM2AQE/jKNmLXEfnZdYepBDmGN0+EpAZWGpXOZ2DkCBV6NKttxPWbn753Bqk8AysN1z5WX6eEaTuGfP79m//9sVhpjA4tBxguT4cBM4CnsfXnD2njkKoFB6edRA4XvidTIlG4En8IhrFKDm9uApziqAoAHhlLsq5a8z3tpDz0UFIfYCHRAQdAERL8ITrlS1bRz+/zTgI5pF7aY9naT/zbvEVGnAI3GeXfnQ15dSLNuac43bvHjrsnUPXNQch9cGag5A8tDaH1BGngMfN6ByRO/wmWktXcEihsnZ6Ix2ETnda75puH2XVvs04CJ0O+97v/d5Wx3b6ZWZvFwdBmNXp1GlXKBJDO5U42TJKHAUhHh980Cg7VwOSA7vGo+UkUHIaRecECZEOmp47PEzEQLuOkEPgVCVKwYEwrt/8WyE+uT7gmNTJRyit0NhGB8F9rJMapdgZZRtJifIGhZqsGxoYxDvzq7kwehQRb9Z8674vx+0cBP3p26mbA8KZArOczoq7pqQzSOK1MQg+DHYKwcekch2gVXMvebw+iKVPa6FM/ZZjoGGu15xBWjuVuhe3r93a0JJiokAJAb4wj1QIFFG33nzXibubXz6HJ5POTkL5m/klXax3lp/xL7749V//9SWUO9u6KwbgQK4vOAWcW/zsRG+PRMIodh/3cqqbdRDyuTUgJzwjD0Ujm2tJpR3fz6x5CzkfxxEFSX2A/vZdc7AQ+uXEdu3cfVujHx3hdO56w4lP/0lTJ8TcS7/N0B5a6My7jEw5K4yWaIqrP/ODgkln+mMdOe7aux39zuUDkT163vWYCIarBnoj9QHDm7pJlDltBYd2Rhef4iDM6BzIuD7yRybZInSmwzu9kfrFQTV1J914yH7UHnT063R7p8PY69Sxrpc7/TIj04uD4K4K07uDZwwoDsbbAm0O4mA8JxTNJ58PVTww5JQcYXISFyngFXrHqQkOvYiEawg5BMI4FSnwmwXVGBiDQnXyEq4WSuNdUdgURDUnJMpX35hSxr1x3T+7dvAdB/kFjKMx3C9zSGy4iIYsUXMSFXFKF2mQJyGcRJlTTN24GMMp0TWEtfHq9cE4GJ/HSVhFXnIunLGks9Nvrm0cw9w5FsLGuQ6nyNxLXib6VUMXwppj+PdcL34whv+iE+erW5t30R4qoWcpBmN0dMn12od81zy6+eVzFEzSuZzFkfZ+S7rY+1l+dop1TeI0dkobebJghO1dfbyseJzw+nfOzShbDAsHs/jP2DO/jfxS8/Vb8gH+61ryweyarfdcOadQ0aGasKgoR+qDcS4iiK7c1hJsz923jn7usnMuHU3xc+5l9xx+zPVyoGfeLXmj6zhRdBUdw2mgx0Vl0aQbd+3dLfmg9AbbgV/pDvDfqQ9UMCRPmkfyEDmf0cWdjjV2p4dmdA4odH1y4ukjiYUOz53eSP2C/qU7hf1F9OicQ7q99qCjX6fb13RYZ7s7/TIj148UBwFxhVIzc35mYvWM0wLPevzwiEQvntKagjulf8/OJhFtPW43z/syxql7MD5/CRqcMj9OG+dUJGhvj4YCaOywUI1R6L53f8ro17xvj2K9p9Dmrj+7tY7Yuj9Rhjp0i4rQHXLrtrRbl9jDR+ogXGIB+xg7BXYK7BTYKbBTYKfA9hTYHYTtabr3uFNgp8BOgZ0COwXuPAV2B+HOb+G+gJ0C94sCSkLd+VeS801Xt3V/3Xwe9Rg+hy3P4JQk2VPpdsoYj3q9p859fP6UddxknMfh3Ys5CMAiJBpKRpS8ckrLd2XDSsipJvFLoiHwi2qSnDRlH5o6VvkQEiDdBcnmBljhue5Ts0rOqj+oU5IcvZv96Vsyp/tT86iSKwIEQa0SdCTZ5LvupiSkwIL4i7/4iyWJUuJSN78t6XcK7U999hji4pbrkGVsX5QIAWBRkoT+tR+15+gsUUkSnWfhIkgiyn1D+9oj+S1f/epXl9LD5CslstnyOcmqEpeSh7q5/Nd//dfr+jMXCV6y0yXw4VF38jln5UvdOsgHWuBBRqWbs0GTLuZsLWPpYLc2c95yL0cCqGKCi3KKg6DKSYJ1107tT+Y63BLJ07PosqeOsSZX3TrsiQQ52fQdyt6pMlrPj7J66hhbrffQ3I/pku7dU9dxjHYS0/GhJD95cGRJEqBEfNVWdIlGDskpPSQZv/s6rMRIeXnV6Hw5CXSEZHzVVgUt0O0ROZd42z13bB3n/vviIDB8SnaUW8nkNwmGy98RAlP6O+JQrIyhzFlKYuZdhm9LKE+bVciAsBUAG8nWh0RVyYwMB0P7zDPPLESXga6yQjWG55ThKEP8zd/8zRaSudAV9afuVWawrNvsD2OodIBNoPyQQjEXwqzcUkYuQ4MB8l0nAqWEGAssNaMkK7+bX0c/pyxlm4zIoc8V57uYOPfSXj/55JMLH2gAqjyjxt4f5ZeqW+x77TkDzGihAYNm3UoMlSkp6Une0O+WfKBUSVUFp1MS4b/+678u81HmY6/RUgYywVT3bK/tB77Fx7lv5muP9CNT2VoY2uQr+5lNv3hMWR6eVL1jb+rd4iGZ+TkXyJjZuhJJlSE5Z3LZraPqqPEhYw8HIxsnNueiyifR97q1ofOWPFlz40gDqpLtTQ/hcevmLKGdzG17ouJD8jPdJOHPOsmgxrAXCuvYn+fwi6RnvIx2HK+O77OufeRxssY4dGN0upNcmK93OGTmTJfMrMN6zFvDdyqhOrrQsZ285Z53sqpyphsjbYAxtJGmt6lLcm1onOuwhqKz/eIoqxbp9Fr2h87KEuHNFCgXWVBZxIEFaqbcHxqqknu0YHeg7+LNHMO/A0WDdaLVYeZtb3vbYoOU04MQqLLnUZ/iOaXmdKtyTojCa2XK3dpm1ts5EQ++//u//yHs8MIeIGi8MJNgFGQTYyrlek5XoE8tEsEQfObdqhkGGEPxFaPNejWMVr7b1X4r+SloYExgLA4O4w5RrqCheWw20Do///nPrzoIpSgZDf/PEcn+vu/7vm8pcRSdAGWsT+VFSv2UIWlrc2FE0JJjgY7qbM25m19HAwzMyYHkeOiDWPmuiEW3l2iHHhrDSrB48dYHbdJvmNKcoWty1JSaKQdirJWHMlYYXUve4HR06ziXD+D0WzteVYaoJp4zgIcZZt655t85iaMhRuvcN85x1ZerH6+TdPLV2nzTYI7VMcVD3s25dP2NvIueav3tW86ZcevWwUEgd8qj4C10wEgdXdYqejpnYEueLBqYM54jqwWda5/hQnByOHacB5E/oWSywwgADCpwM3JX0OjZHx6A5yHCIzIISCr53rvpIJD/4nFKHEpqAf2MYziUpO7k+HfQwzPrQBf6gHEoqPSOLuQy5Q0NOVTVyIP9TVnlUOUY3TqsUxvXe1u6pFsbfsx1WK9yeDYAvRl0PJR6rdCCR1rRkZwBf8pBYGjJk8MDJwHyLj1B3+A/DmfhwOQYDnLe4Qx4pjBJakxYQBx2Oij3iGPicMtJpI/YG99nyf2li3NctMrflLvPtAfve9/7HpqM0yAlYPOdmn3fwKnMdUABk1DAav2ddjEr5ph5l9duIQi5hr54aLLdu52DoNbUqZewmDslW2twanSyxDDgfp3ohCRtVPdRJ8+JMvAIK/pAEWV/vjuQ0LlC3RwSXp4aWKdZ3mC+qz/KSTkMrxPQCZCMbn5r9NPHsW8G5LuMSu5lAZZQnJwxYTVXMJwdJ28nOOF5tBC2Bipl7oRCyE2ojRETNfG8MTre2JIPrB2fchLsgf3ijFHGBVlMsdr3QoQsPjPH3DcOYDkI1kQQyULy1SkOQvKQ00LOZc1BKH5Be4qtg2nGa906RKac9GCRcBK6NqK91b+f4iBsyZPG53zDXBG9wWtrwDccg/qGC9liqDtkvOyPzhIBE5VAN3JPoTsljnxvLukg4KfkcePmGN5N3cnQdA7C7Dr0OSKhdnRh/FPerJWsVmNU1OZ368gxunXQ3bne29Il3dpEQnId+Nl1EZA4hxeHADoi9ZrwfdJKtMdvANLKQXBYFiVmqEVs7AUH1nWnCBaHAZgd3ZRj0C0cLwabXtInvtOUWZofXeWAk3vkep68sVv1bxzcnLPoWKez87dZ9MwHzz///EOnYB6WxpAyspjc6XBsBIkg+pIYR8KkZ9+d8VZOeWYGPa7CtBwaJ0yeP6emjIBTh3DymoNAIbtPokR8MIRx9O7YH1AmoUOK2GlGCIsXx+Gi7IxRd8z5LmPhdAhBj3PmVCIqMDO/opV79XPwIHIvS0ETCgwKiZK3zGHxzYxq7tDMm8BRztbodMw7FuqHxsl5EE7reOOUPZ55Fj/aW4ArIhtjI9j2yn6gq+hXNc5b7hulU7RnEPy7cHD3kaNubl0EIXkImFTOpeuru2JwFZVzdrLo1iG6Q4YpHCcg0cBsPjKWcznFQVjbn3N50inMNyUq0nMKMh4+wNMMQLXsj77i+FHMZBXsNAAfRm/ke4eGuh4SadLIRPI4ByHHKMM66s4RepiecAId4d3Hu/ZuHWn0Oro4yM3I29o6coxuHX7r1nttumR0pvAz+tOt5MDhEa1Sr3W8/Eu/9EuLQafL/Zcjzln3PtnCQyJQosYcpfoUwNoYnABXzQ4INRd5CPJO6BhzFNnu9og+5WTSYa7gRGsLZXicO/3c6eyZ9XY0ePCmN71puWJgxCzcVYOToxCr07Owchk4XpbJW4iwFGU6++4hhcorOjU7t3MQKMNSEJJ6fFioFL57H2EkHuCMAe4U5ai0qz8JIxiJ8uC9+X+eHqPK8BvLZmKsnItwGG/Tu/WFL17hzPzQE9NQdk6L9SXFGaPqmdxLykUEQ3PytMfuOyksd8CMJwMsPIdJRS3Q0nOiDzxnHjwjJoQrpJ28sXYNUob1HD7guQshcrR45gxAfX2T0nf6x9c8djzGUHJk0Cv3zUmPQXcFZu2cIIYi+WoE7Sp6g7AVwuTRUxoiNPYnnQvRuJyL8Hm2zkHgqOac8VW3jjqxcvQYQdDn2bq56C/XS2nl2ro8jJvwpBMXBctpqXaKg2Df6Sa5EQy/+WV/oNfxiogdx1+Uj45IvkdnPMnZxVP6cwdcPO7EiOauzHIMfafuBJpDJjyPPxgFzkX3bYJcB150B865cZDhYPj/hG0XHZiRN3yaskomcgxOXq6j26Nr0iVkNddBl3HW8IN9qE+Pp16jxw+1iiAw8OjneXtJR2j219UhneP/7U+O4Tn6kp5kK8yFnJZD4N/ZLfKWe4Sv9eddkQv2pUMQZTtyXPb71PUWLS5WxdAR3+lHmJpXepuNN8fQVKMQOBN7uwwFroUPZle7Nb9s3V+3jkuMMUu/7jkOOafV90a2aFv3x3HiTLgqFCGjwCnqLee8xbofZR9b0/RRzrX6nkXJvcRc7uIYt+og8KLcN1ZW510k4D7nm1Ng54Ob03Dv4dFSQPRB3oPwMX0lX2Vv108B+yZSUwmW1z/j65rhrToI10WKfTY7BXYK7BTYKbBTYKdAUWB3EHZe2CmwU2CnwE6BnQI7BV5Hgat3ECR6KY8sZMTb3MOt57J1f7dFm/uyjpF+KnVUMGyVi1L9SWTq+FnpnexkJVSSW4+1c+anjnpMFL2P+3aMbrf978f4YIv5nTqG5Fxln/hdBUe1Qzw58l/y1alrcAXg8+ySQm/SVORI+JOULIlUYrXyPgm25A6Amd/2Nk+BpYrB3ZpNlikpy1J5mwxiv8mq96lKdcnZMJDnZEhWlqdnbLT3NBnRykTyuQ64pZt2l2QChcyYSks4DhKbJAzJZFfd4DdZ5ErVJB/KSAeg86d/+qfL7zPrMP8cQ3lfZqXPzsV3xGEmSHRSTwx5C/hQ9odOOWcZ6Lk2Ap2/dWNYd+5vV/I2zzKvf3KL0rjsdRZxcfa5bn2H3sXPSiFv+snhGrf6k2m9VjZJuSmfmqlIOWd+iRVwkwQuiaWdjthyP2SMy8xXbaEcmfx0MqPigxGg/IHPwOKQPMhI4HVloP7f+j/84Q+/ygpAa1S05Lv0xZbrGHlvhg9uIovePXUMJZeqmGTgJ7T0Gk+O/NdhUJyyBpn8nFXVHae0bo/wDH2pkkk1gKbaSuUV8LoCgjtlnMf52Qcf/OAHHyoFIVSEEQFHWFZIfYSrUAhHYlF23gEvOzoINkO5WLW159TQM8QM2FotPyWmdlzZDSwCSqkUmzIRtfgwHJQKFnqavzuNURxKlniOflOmN2LMH5qfuleKfBxDveu5c+EYjGVNnCiMm/2prc05U465Ng5W/taNQfgP7W/RQJY2hwM4kCbrXSmPMh70Vo6p5FWDJ6HyRMkNR2c0eviBoCvJ4mgC6XnPe96z1Lef0mbf7Z67ybvmqNQMtgNncqxhLx7n8CatlJpy7KxXqRukNeWF2V/HzwXGopy00PLG5/TD2a02zm98jgxx5pV22i9gV0r5zFeyFhmqphZf2Vrx3zhG7vmhuehv1BGztO94Id/FZ2hCN6E3NFelqulgjSWhdI+DwPgcrBLAMG95y1sW/YEmIkNKi627yorr3c997nMt786ube25tX07RPtCTaR74HkooaPDao+AmsH7WOONolXJpfL0Tu8mMJRySP2OPNmNAQMh+Uq5cicLnS4pg62mX+meg17Ob43/OjpzXJURj45gzbtQa0/RQ4/7sw8+8IEPPMQcPEcYCOqDoeNR6gVf6lQjpERpVrOJaoMJZ6FCUWKMEcZisAkeBlcnn88xggBKlA15Xv2zPzkGwQYkQTAgy1ESPF0nYzX3DCXISfOuBiGRgaMkIIypJYZUqH/Ke2Yd5ptjMHLnzoU3S8kRANjd1uyUk/2Bic05j2GxWltFaKy5fuvGeO655xYDnvubjE95qRFnYDRGRcTEh2vU0ivtkr3tAz1oSOFQIpQbTP9SRObi1EERoR/EQghhBXs8K3Cz73bP4Sl7zXAd+kZF9y5F/OlPf3pxgvBo5yCI3iStjOlEqk5dhIihL9jysT/KLveckjQXJ5zRQYDCyNijuz8Mfs5Pfxx0vCVaVx+UIb+cFLLrXfuhL3upkQl7Xu9SniJxInC55+bWzSV1hH5n963jg3wXz5FbNf6AXpxyycchB4FhIlfeqefgHNRHskDM0mucCA41/VEOQr2LXo+ar8Z9O0R7gFfkHxAYB9V8YZBw+MiWPeYk0Isdb6RcqsJIvSti0n17InnSnuUYvn+QfNXJglN98pVIb337hZ3gIDg05fzsZ8d/3R4VLggbwfkdG6TDznGY1UmP43MPnnzyyYdO+0IzTjKIWF+oEtojpEJ7lCXjX00Y1IbbTMaZwWDEnToxEWNFYTGGwkf5nNMLQ6Mfhh5MqHdyDPdjxeQMjftZgu05d2ZASyhFp1bM4UTr7y+//PKrc/UeZwESlnXOrMO4OYZw5blzgXBFAVF4Ba1svtlf4cmPc7aQbm35WzeGU/7a/o4MX3j2eIDxcJriIIhAUER1AkE/BpIxrEbZEXBKGHRod41zV4SLs1Pog/UNjYTJFblhZEZacag69NHsbwzrFz/XnicCXAekc6i/Qu3kcECXtO/mxNmxN4euGArNz97mntu7bi5+H3UEgKgtG4wUThNjrxyac+2O/JCDQAboEzoATwKTYVCtXcQAHdxRO2kCqGLMykGod2e/4HjKWg/t2yHacwQSFMm41lJf6OSUk/NujJRLTmHqXU5HOgi1tpEn/ZZj+K27YkhZ4GgnX40IttVHN7811MmO/viXE0y2OD5jK6TDU/btcX/2wRvf+MaHQkS8c38oR4aHIRBeQmzGoRN+QisJRPPNAUqJMNpk/y+Ux1Az6PmccJlrC2FRAsm5GBNkRuPDi2bcRSooDf0JcattNT/vM97yJwgNhYvpIUhxVnivPMe170B063BvmWMY99y5gGkWSakPR7krpaiyPw5Vzhntcm3yDfK3bgyKMvcXrXj+7tg5gPJLOHByOjSnUaco3rzwLAfBNZPrFhEEPOK06WTjZMqAUtrCjdbH2es+Yaxv7+MVJ7hTP/s9K6y5ttn3PIe/RHcqUdBcKTcRM+t3WsJbSSvOKscIj0LzrKhP9sdByD3Hs4yUiIcToRr70TEeoXi7/pyuhG/JG77iINgDfMQBJzuafRN5EokwX8hyafjl1OSe59WVSKP3Z3TETfa8vnRq/aKTrm/oJKdpiHOavaBvOGuM2c/8zM8sV2HQTNORIB/+MEb0xic+8YlFl+S7HYStsbbkq9FRrP3taI/30kGQF8PI41NOLL3GGHa8kXIJVbDTu5IEnXW3yswAAAKTSURBVOB9LRBNHRKSJ/2WY3R8JTctZUEUIPlqxJIoB8E+5/wc1NYc1JRtDqtDGGdv1C/o7TBJ3+1tngIPnnrqqYdO3ZQG5Y7RKA7GQ5PEw4s/1mxwQfESUh6pEFJ9grXer+cYOM9RYIRZ+L4DTHJvKJwrAkCg6wtqDD4lytAI4dbHlWocCr3uwUVAJCIdCjfn/AhhjnGTuXB+rJc3zCmiFHyUqVubu7Vxzt3azJdhGNfbjUGJ5/56h2LkYAmDE/xxz10bVL5B0sC7EoCcYDT7KZkVbeRVMFKcybWvhYkm2Zvxu+jHeMu/ew/PVGOEKwcj38+1zfTvGYaCc+Q6rZq+yAK5YCDwqYhZyUfRytWMsKbGkTC/rr+Oh+q3cS9F04qmnA7GkZzk/PAGB1cECJwsGaxPAjOirhBE/zT08741yd3RX47hJNrxfT7H+ZjVEefuuTFcFXJwi84drUZZQCc5BJ6rORdd/Z2BlOdj/QysRLeSo3p3jV+25KtxfrW/He1Fheg+H3aih/E8vVYyyLnHbwxj8sY4Rsklx67Tuw6FDmnWyIj6O9008iTnMsfo+AoUdMqC5zpd4ne2Ap86iAJNy/mJDnd8mvvEMTGuva0kRU4XO4HGogrj1eysXnicn7v6MsfHeXPu49qFdjklkuROaUKb3q3m9DFbCTM7jnCuXAkh7S3aJfrrKhEYQVEK0Z369PYW6zm3j3P3/Nzxru29rfmgW99dHINjwAGSE4Zn8etNmisoekVSqxw4zW9ypRx093Y6BXYH4XSa7W/cgAI8elGNmVr/Gwzz2Lwq/OrP+BVDSlHb2oE6l6j7np9Lufv9Hr4VXXItveuD69zr3UG4zn3ZZ7VTYKfAToGdAjsFbpUC/wcQGUF6t3S+KQAAAABJRU5ErkJggg==;" vertex="1" parent="1">
                    <mxGeometry x="120" y="514.98" width="179" height="149.05" as="geometry"/>
                </mxCell>
            </root>
        </mxGraphModel>
    </diagram>
</mxfile>